<svg width="131px" height="51px" viewBox="0 0 131 51" version="1.1" xmlns="http://www.w3.org/2000/svg" xmlns:xlink="http://www.w3.org/1999/xlink">
    <!-- Generator: Sketch 51.2 (57519) - http://www.bohemiancoding.com/sketch -->
    <desc>Created with Sketch.</desc>
    <defs>
        <polygon id="path-1" points="0 0.315455662 33.8503236 0.315455662 33.8503236 33.7391128 0 33.7391128"></polygon>
    </defs>
    <g id="Symbols" stroke="none" stroke-width="1" fill="none" fill-rule="evenodd">
        <g id="NAV/header" transform="translate(-101.000000, -30.000000)">
            <g id="Logo/color" transform="translate(91.000000, 12.000000)">
                <g id="Page-1" transform="translate(10.857143, 18.487500)">
                    <polygon id="Fill-1" fill="#144A8D" points="3.25714286 39.15 3.25714286 40.4457958 4.82336826 40.4457958 4.82336826 50.025 6.03346384 50.025 6.03346384 40.4457958 7.6 40.4457958 7.6 39.15"></polygon>
                    <polygon id="Fill-2" fill="#144A8D" points="8.68571429 39.15 8.68571429 50.025 13.0285714 50.025 13.0285714 48.7288607 10.1261263 48.7288607 10.1261263 44.9657982 12.6800245 44.9657982 12.6800245 43.6906087 10.1261263 43.6906087 10.1261263 40.4255329 12.8943716 40.4255329 12.8943716 39.15"></polygon>
                    <g id="Group-52">
                        <path d="M18.084541,49.3669559 C17.8819107,49.5773259 17.6632402,49.7313764 17.4291842,49.8291074 C17.1944735,49.9261758 16.926373,49.9748756 16.6255374,49.9748756 C15.7266314,49.9748756 15.0454139,49.5289574 14.5812302,48.6367897 C14.1170464,47.7449533 13.8849545,46.4264135 13.8849545,44.6815018 C13.8849545,42.8222945 14.1062438,41.4365026 14.5478403,40.5237948 C14.9897642,39.6117496 15.6624706,39.1555614 16.5659595,39.1555614 C16.8373335,39.1555614 17.0965955,39.1959789 17.3434182,39.2758201 C17.5905683,39.3553301 17.837391,39.4782392 18.084541,39.6435536 L18.084541,40.9955538 C17.8527765,40.7851837 17.6298504,40.6278203 17.4157628,40.5228009 C17.2013479,40.4177816 16.9905338,40.364775 16.783648,40.364775 C16.216676,40.364775 15.817635,40.6629372 15.5861978,41.257274 C15.3547607,41.8516107 15.2388784,42.9150561 15.2388784,44.4489352 C15.2388784,45.9874524 15.3521419,47.0866773 15.5786688,47.7459471 C15.8051957,48.4055483 16.1773938,48.7351832 16.6946085,48.7351832 C16.9214627,48.7351832 17.148317,48.6732317 17.3751713,48.5506539 C17.6013709,48.4280761 17.8380457,48.2362584 18.084541,47.9752008 L18.084541,49.3669559 Z" id="Fill-3" fill="#144A8D"></path>
                        <polygon id="Fill-5" fill="#144A8D" points="19.5395509 49.8253638 19.5395509 39.3350219 20.8139285 39.3350219 20.8139285 43.9452729 22.9086478 43.9452729 22.9086478 39.3350219 24.1836801 39.3350219 24.1836801 49.8253638 22.9086478 49.8253638 22.9086478 45.1548178 20.8139285 45.1548178 20.8139285 49.8253638"></polygon>
                        <path d="M26.1472953,39.3350219 L27.2485042,39.3350219 L29.0296212,44.4637439 C29.1278266,44.7340777 29.2757892,45.1836401 29.4731819,45.8137564 C29.5517462,46.058912 29.6109967,46.2434413 29.6506062,46.3683381 C29.6257275,45.9833775 29.6070685,45.5888095 29.5946291,45.1836401 C29.5821898,44.7791333 29.5759701,44.3441477 29.5759701,43.8793459 L29.5759701,39.3350219 L30.7812767,39.3350219 L30.7812767,49.8253638 L29.665337,49.8253638 L27.8996055,44.7569368 C27.8351173,44.576383 27.730365,44.2643065 27.5853485,43.8190509 C27.4396772,43.3744578 27.3375437,43.059731 27.2782932,42.8745391 C27.3031719,43.2545304 27.3215035,43.6467794 27.3342702,44.0512862 C27.3463822,44.4567868 27.3529292,44.886803 27.3529292,45.3413348 L27.3529292,49.8253638 L26.1472953,49.8253638 L26.1472953,39.3350219 Z" id="Fill-7" fill="#144A8D"></path>
                        <path d="M33.6495265,44.5865205 C33.6495265,45.9723124 33.7716284,47.0195245 34.0168144,47.729482 C34.2613456,48.4397707 34.6260146,48.7952464 35.1104942,48.7952464 C35.5949737,48.7952464 35.9632436,48.4377829 36.2156313,47.7225248 C36.468019,47.0069354 36.5943765,45.9623737 36.5943765,44.5865205 C36.5943765,43.215968 36.4663822,42.168756 36.2120304,41.4432278 C35.9573513,40.7176997 35.5900635,40.3552669 35.1104942,40.3552669 C34.6312523,40.3552669 34.2675653,40.7140555 34.0204152,41.4319639 C33.7729378,42.1498724 33.6495265,43.2013912 33.6495265,44.5865205 M32.315571,44.5901647 C32.315571,42.8247129 32.555192,41.4790073 33.0347612,40.5533791 C33.5140032,39.6280823 34.2109335,39.1652682 35.1255523,39.1652682 C36.0398438,39.1652682 36.7354648,39.6270884 37.2127426,40.5494036 C37.6893657,41.4727127 37.9280046,42.8197435 37.9280046,44.5901647 C37.9280046,46.3559478 37.6893657,47.7019848 37.2127426,48.6269503 C36.7354648,49.5522472 36.0398438,50.0153925 35.1255523,50.0153925 C34.2109335,50.0153925 33.5140032,49.5512533 33.0347612,48.6233061 C32.555192,47.6953589 32.315571,46.3509785 32.315571,44.5901647" id="Fill-9" fill="#144A8D"></path>
                        <polygon id="Fill-11" fill="#144A8D" points="39.4867193 49.8253638 39.4867193 39.3350219 40.7810653 39.3350219 40.7810653 48.5648001 43.3304752 48.5648001 43.3304752 49.8253638"></polygon>
                        <path d="M45.0037301,44.5865205 C45.0037301,45.9723124 45.125832,47.0195245 45.3710179,47.729482 C45.6155492,48.4397707 45.9802182,48.7952464 46.4650251,48.7952464 C46.9491773,48.7952464 47.3174472,48.4377829 47.5701622,47.7225248 C47.8218952,47.0069354 47.9482527,45.9623737 47.9482527,44.5865205 C47.9482527,43.215968 47.8209131,42.168756 47.566234,41.4432278 C47.3115549,40.7176997 46.944267,40.3552669 46.4650251,40.3552669 C45.9851285,40.3552669 45.6217688,40.7140555 45.3746188,41.4319639 C45.1271414,42.1498724 45.0037301,43.2013912 45.0037301,44.5865205 M43.6697746,44.5901647 C43.6697746,42.8247129 43.9093955,41.4790073 44.3889648,40.5533791 C44.8682067,39.6280823 45.5654645,39.1652682 46.4797559,39.1652682 C47.3940474,39.1652682 48.089341,39.6270884 48.5669462,40.5494036 C49.0435693,41.4727127 49.2822082,42.8197435 49.2822082,44.5901647 C49.2822082,46.3559478 49.0435693,47.7019848 48.5669462,48.6269503 C48.089341,49.5522472 47.3940474,50.0153925 46.4797559,50.0153925 C45.5654645,50.0153925 44.8682067,49.5512533 44.3889648,48.6233061 C43.9093955,47.6953589 43.6697746,46.3509785 43.6697746,44.5901647" id="Fill-13" fill="#144A8D"></path>
                        <path d="M55.5838139,49.3947513 C55.2970544,49.6054526 55.011277,49.7624847 54.7271363,49.8675041 C54.4426682,49.9725234 54.1519805,50.0248675 53.8554004,50.0248675 C52.7672856,50.0248675 51.9155182,49.5504582 51.3000982,48.6009771 C50.6843509,47.6511647 50.3763136,46.3299746 50.3763136,44.6350878 C50.3763136,42.8812312 50.6670013,41.5292311 51.247722,40.5797499 C51.8290975,39.6299375 52.6514033,39.1555282 53.7146395,39.1555282 C54.0557393,39.1555282 54.3794894,39.2151607 54.6862174,39.3350882 C54.9926179,39.4546844 55.2921441,39.6392137 55.5838139,39.8890074 L55.5838139,41.3854506 C55.2721757,41.0435579 54.9654478,40.7897887 54.6636302,40.624143 C54.3618125,40.4578347 54.0501743,40.3750119 53.7287156,40.3750119 C53.0756503,40.3750119 52.5761126,40.7407575 52.2297752,41.4695986 C51.8834378,42.1997648 51.7102691,43.2592347 51.7102691,44.6493334 C51.7102691,45.9834438 51.8834378,47.0084594 52.2291205,47.7227236 C52.5751305,48.4376504 53.0691032,48.7951138 53.711366,48.7951138 C53.7902576,48.7951138 53.8828979,48.7848438 53.989287,48.7656289 C54.0953487,48.7454201 54.205666,48.7182542 54.3189295,48.6834686 L54.3189295,45.3755241 L53.3804141,45.3755241 L53.3804141,44.1553779 L55.5838139,44.1553779 L55.5838139,49.3947513 Z" id="Fill-15" fill="#144A8D"></path>
                        <polygon id="Fill-17" fill="#144A8D" points="56.1926214 39.3350219 57.5524376 39.3350219 58.600943 43.2045054 59.6343902 39.3350219 60.9945338 39.3350219 59.2258561 44.9739327 59.2258561 49.8253638 57.9609717 49.8253638 57.9609717 44.9739327"></polygon>
                        <path d="M64.9149226,49.8253638 L64.9149226,39.3350219 L66.1205565,39.3350219 L67.2728322,42.3196261 C67.307204,42.4143754 67.3553246,42.5545117 67.4168666,42.739041 C67.4784086,42.9245641 67.5507532,43.1514987 67.6348824,43.4218325 C67.6983885,43.1968857 67.7615673,42.9931415 67.8231093,42.8109312 C67.8843239,42.6280583 67.9475027,42.457112 68.0113361,42.2970982 L69.1636118,39.3350219 L70.3590978,39.3350219 L70.3590978,49.8253638 L69.1636118,49.8253638 L69.1636118,43.6842153 C69.1636118,43.4195135 69.1698314,43.1445416 69.1822708,42.8592997 C69.1947101,42.5743891 69.2130418,42.2818588 69.2379205,41.9820401 L67.6348824,45.9257328 L66.0311897,41.975083 C66.0606513,42.3448042 66.0829111,42.6717888 66.0979693,42.9570307 C66.1127001,43.2419413 66.1205565,43.4841153 66.1205565,43.6842153 L66.1205565,49.8253638 L64.9149226,49.8253638 Z" id="Fill-19" fill="#144A8D"></path>
                        <path d="M73.4014329,46.2953878 L74.8853151,46.2953878 L74.3435492,42.9129027 C74.304267,42.6727164 74.2682584,42.4202724 74.236178,42.154908 C74.2040976,41.8898749 74.1729993,41.612584 74.1435377,41.322704 C74.1088385,41.662609 74.075776,41.9604399 74.0433683,42.2155343 C74.0112879,42.4702974 73.9778981,42.7055143 73.9431989,42.9201911 L73.4014329,46.2953878 Z M71.5175276,49.8252975 L73.4466073,39.3349557 L74.8404681,39.3349557 L76.7842785,49.8252975 L75.4788026,49.8252975 L75.1003848,47.515534 L73.2017487,47.515534 L72.8082728,49.8252975 L71.5175276,49.8252975 Z" id="Fill-21" fill="#144A8D"></path>
                        <path d="M77.9354412,39.3350219 L79.0363228,39.3350219 L80.8174398,44.4637439 C80.9159724,44.7340777 81.0639351,45.1836401 81.2610004,45.8137564 C81.339892,46.058912 81.3988152,46.2434413 81.4384247,46.3683381 C81.4138734,45.9833775 81.394887,45.5888095 81.3824477,45.1836401 C81.370663,44.7791333 81.364116,44.3441477 81.364116,43.8793459 L81.364116,39.3350219 L82.5694225,39.3350219 L82.5694225,49.8253638 L81.4534828,49.8253638 L79.687424,44.7569368 C79.6232632,44.576383 79.5188382,44.2643065 79.3734943,43.8190509 C79.2274958,43.3744578 79.1256896,43.059731 79.0664391,42.8745391 C79.0913177,43.2545304 79.1096494,43.6467794 79.1220887,44.0512862 C79.1345281,44.4567868 79.1407477,44.886803 79.1407477,45.3413348 L79.1407477,49.8253638 L77.9354412,49.8253638 L77.9354412,39.3350219 Z" id="Fill-23" fill="#144A8D"></path>
                        <path d="M85.6221019,46.2953878 L87.1053295,46.2953878 L86.5642182,42.9129027 C86.5246088,42.6727164 86.4886001,42.4202724 86.4565197,42.154908 C86.4244393,41.8898749 86.393341,41.612584 86.3642067,41.322704 C86.3291802,41.662609 86.2957904,41.9604399 86.26371,42.2155343 C86.2313022,42.4702974 86.1982398,42.7055143 86.1635406,42.9201911 L85.6221019,46.2953878 Z M83.7381967,49.8252975 L85.6666217,39.3349557 L87.0611371,39.3349557 L89.0046202,49.8252975 L87.6991443,49.8252975 L87.3207265,47.515534 L85.4217631,47.515534 L85.0289419,49.8252975 L83.7381967,49.8252975 Z" id="Fill-25" fill="#144A8D"></path>
                        <path d="M94.9279719,49.3947513 C94.6412123,49.6054526 94.3557622,49.7624847 94.0712942,49.8675041 C93.7871535,49.9725234 93.4967931,50.0248675 93.1995584,50.0248675 C92.1117709,50.0248675 91.2603308,49.5504582 90.6442561,48.6009771 C90.0288362,47.6511647 89.7211262,46.3299746 89.7211262,44.6350878 C89.7211262,42.8812312 90.0111592,41.5292311 90.5922073,40.5797499 C91.1732554,39.6299375 91.9955612,39.1555282 93.0591248,39.1555282 C93.4002246,39.1555282 93.7239747,39.2151607 94.0307027,39.3350882 C94.3371032,39.4546844 94.6363021,39.6392137 94.9279719,39.8890074 L94.9279719,41.3854506 C94.616661,41.0435579 94.3096057,40.7897887 94.0081154,40.624143 C93.7066251,40.4578347 93.3946596,40.3750119 93.0735282,40.3750119 C92.4201355,40.3750119 91.9202705,40.7407575 91.5742604,41.4695986 C91.227923,42.1997648 91.0547543,43.2592347 91.0547543,44.6493334 C91.0547543,45.9834438 91.227923,47.0084594 91.5736057,47.7227236 C91.9192884,48.4376504 92.4132612,48.7951138 93.0558513,48.7951138 C93.1347429,48.7951138 93.2273832,48.7848438 93.3337723,48.7656289 C93.439834,48.7454201 93.549824,48.7182542 93.6637421,48.6834686 L93.6637421,45.3755241 L92.7248994,45.3755241 L92.7248994,44.1553779 L94.9279719,44.1553779 L94.9279719,49.3947513 Z" id="Fill-27" fill="#144A8D"></path>
                        <polygon id="Fill-29" fill="#144A8D" points="96.6698722 49.8253638 96.6698722 39.3350219 100.365011 39.3350219 100.365011 40.5654381 97.9347566 40.5654381 97.9347566 43.7150254 100.177439 43.7150254 100.177439 44.9454416 97.9347566 44.9454416 97.9347566 48.5750701 100.483184 48.5750701 100.483184 49.8253638"></polygon>
                        <path d="M102.116895,49.8253638 L102.116895,39.3350219 L103.322529,39.3350219 L104.474478,42.3196261 C104.508849,42.4143754 104.556643,42.5545117 104.618839,42.739041 C104.679727,42.9245641 104.753053,43.1514987 104.8362,43.4218325 C104.900034,43.1968857 104.96354,42.9931415 105.024755,42.8109312 C105.085969,42.6280583 105.148821,42.457112 105.212654,42.2970982 L106.365257,39.3350219 L107.560416,39.3350219 L107.560416,49.8253638 L106.365257,49.8253638 L106.365257,43.6842153 C106.365257,43.4195135 106.371804,43.1445416 106.384244,42.8592997 C106.396683,42.5743891 106.415015,42.2818588 106.439893,41.9820401 L104.8362,45.9257328 L103.232835,41.975083 C103.262624,42.3448042 103.285211,42.6717888 103.299615,42.9570307 C103.314673,43.2419413 103.322529,43.4841153 103.322529,43.6842153 L103.322529,49.8253638 L102.116895,49.8253638 Z" id="Fill-31" fill="#144A8D"></path>
                        <polygon id="Fill-33" fill="#144A8D" points="109.519677 49.8253638 109.519677 39.3350219 113.21547 39.3350219 113.21547 40.5654381 110.784562 40.5654381 110.784562 43.7150254 113.027571 43.7150254 113.027571 44.9454416 110.784562 44.9454416 110.784562 48.5750701 113.334299 48.5750701 113.334299 49.8253638"></polygon>
                        <path d="M114.9667,39.3350219 L116.068237,39.3350219 L117.849354,44.4637439 C117.947232,44.7340777 118.095522,45.1836401 118.292587,45.8137564 C118.371151,46.058912 118.430729,46.2434413 118.470011,46.3683381 C118.445133,45.9833775 118.426146,45.5888095 118.413707,45.1836401 C118.401595,44.7791333 118.395703,44.3441477 118.395703,43.8793459 L118.395703,39.3350219 L119.600682,39.3350219 L119.600682,49.8253638 L118.484742,49.8253638 L116.718683,44.7569368 C116.654522,44.576383 116.550097,44.2643065 116.404753,43.8190509 C116.259082,43.3744578 116.156949,43.059731 116.098026,42.8745391 C116.122577,43.2545304 116.140909,43.6467794 116.153348,44.0512862 C116.165787,44.4567868 116.172334,44.886803 116.172334,45.3413348 L116.172334,49.8253638 L114.9667,49.8253638 L114.9667,39.3350219 Z" id="Fill-35" fill="#144A8D"></path>
                        <polygon id="Fill-37" fill="#144A8D" points="122.449421 49.8253638 122.449421 40.584653 120.79859 40.584653 120.79859 39.3350219 125.373976 39.3350219 125.373976 40.584653 123.723472 40.584653 123.723472 49.8253638"></polygon>
                        <g id="Group-41">
                            <mask id="mask-2" fill="white">
                                <use xlink:href="#path-1"></use>
                            </mask>
                            <g id="Clip-40"></g>
                            <path d="M26.3464557,22.0975333 L30.1803911,26.0611035 L30.0569798,26.2701484 L26.3464557,22.9734677 L22.4706194,19.5522216 C22.5534392,19.051309 22.5940307,18.6756245 22.5940307,18.3002714 L26.3464557,22.0975333 Z M26.3464557,19.4690674 L31.0874808,24.3092346 L30.9640695,24.6014336 L26.3464557,20.5116414 L22.6356043,17.2152921 C22.6356043,16.6729681 22.5940307,16.1303128 22.5940307,15.6300628 L26.3464557,19.4690674 Z M26.3464557,16.7564535 L31.7889941,22.3476583 C31.7474205,22.5149605 31.7065017,22.6398573 31.6655828,22.7654168 L26.3464557,18.0501464 L22.5118656,14.6285689 C22.3881269,13.7937146 22.2647156,13.042677 22.0997307,12.3751249 L26.3464557,16.7564535 Z M26.3464557,14.169399 L32.2423753,20.2197737 C32.2423753,20.4284873 32.2011291,20.5954581 32.1602102,20.8038404 L26.3464557,15.6714742 L21.8525806,11.7072414 C21.6872683,11.1649174 21.439791,10.7060788 21.1926409,10.2883204 C20.202404,8.70309109 18.5535368,7.95172222 16.2859762,7.95172222 L15.7088563,7.95172222 C15.5022978,7.99346493 15.3376402,7.99346493 15.1729826,8.03520765 C13.5234607,8.24425252 12.2454823,8.95354738 11.4205576,10.1634235 C10.3900566,11.66583 9.85418291,13.9606855 9.85418291,17.0069098 C9.85418291,18.7173673 10.0191678,20.1783623 10.3078915,21.3882384 C11.00875,20.4284873 12.5342059,18.8429267 15.1729826,18.6342131 L15.6672827,18.6342131 C16.9871621,18.6342131 18.4301255,19.051309 19.7084313,19.7191924 C20.3677163,20.0531341 20.9448362,20.4284873 21.3160523,20.720355 L21.439791,20.8038404 C21.8931721,21.1374509 22.1409769,21.3882384 22.1409769,21.3882384 C23.2123968,22.2641729 24.4088649,23.6413512 26.3464557,25.2272431 C26.5114406,25.3938826 26.6764256,25.5191108 26.8407558,25.6443389 C27.6660078,26.3533025 28.4493588,26.979112 29.3152023,27.4803558 C29.5211061,27.6052527 29.7276646,27.7308121 29.9744873,27.8142975 C30.1397996,27.9391944 31.3768592,28.2734674 32.5310989,28.440107 C33.0260537,28.5232611 33.4794349,28.5650038 33.8503236,28.5650038 L33.8503236,32.8214356 C33.8503236,32.8214356 31.9127328,33.4051711 28.5727701,33.4051711 C27.8306653,33.3640909 27.0473143,33.1971201 26.3464557,32.9884065 C24.9444112,32.5713106 23.8310903,31.9872439 23.8310903,31.9872439 C22.8418355,32.5713106 21.6872683,32.9884065 20.3677163,33.2809368 C19.048819,33.5728045 17.6055282,33.6980326 16.0384988,33.7391128 C15.7501025,33.6980326 15.4617062,33.6980326 15.1729826,33.6980326 C10.6372066,33.4472451 7.0500939,31.9451699 4.37039828,29.1911446 C1.52539038,26.228737 0.0408534099,22.2641729 -6.54702082e-05,17.2152921 C0.0408534099,11.958029 1.48414415,7.82682536 4.32915205,4.86408646 C6.96792879,2.11006113 10.5959604,0.60798596 15.1729826,0.357198377 L15.7088563,0.357198377 L16.2859762,0.315455662 C20.3267974,0.357198377 23.7073516,1.35902354 26.3464557,3.23645185 C27.0063954,3.69562172 27.5835153,4.23827702 28.1606352,4.82234374 C29.6448448,6.32441891 30.7581657,8.16043579 31.4590243,10.3300631 L26.3464557,5.74035219 L22.7180968,2.52715699 L26.3464557,6.24093348 L31.953979,11.958029 C32.0361441,12.4586103 32.1602102,12.9174489 32.2423753,13.4183615 L26.3464557,8.16043579 L20.5327012,2.98632685 L26.3464557,8.91147338 L32.4076876,15.1291502 C32.4489338,15.4627606 32.4898527,15.7546283 32.4898527,16.0889014 L26.3464557,10.6225934 L19.0072454,4.07163745 L26.3464557,11.5402706 L32.4898527,17.8414328 C32.4898527,18.0912265 32.4898527,18.3420141 32.4489338,18.551059 L26.3464557,13.1264937 L18.5535368,6.24093348 L26.3464557,14.169399 Z M15.1729826,26.0200234 C15.5022978,26.0611035 15.9150874,26.1035088 16.3275497,26.1035088 C16.9871621,26.1035088 17.564282,26.0200234 18.1414019,25.8530525 C18.1414019,25.8530525 16.8221772,23.6830939 15.1729826,23.2242553 C14.9667515,23.1821813 14.760193,23.1411012 14.5546165,23.1411012 C13.152572,23.1411012 12.6991908,24.1422638 12.1626625,24.7684045 C12.9460135,25.4352941 13.9362504,25.8530525 15.1729826,26.0200234 Z" id="Fill-39" fill="#144A8D" mask="url(#mask-2)"></path>
                        </g>
                        <path d="M41.6844887,30.6512451 L42.8390559,31.652739 L41.6844887,30.4852681 L33.1910386,21.8892504 L33.1910386,21.5549774 L33.1910386,20.5952262 L41.6844887,28.0645219 L43.9520494,30.0671784 L41.6844887,27.7723229 L33.1910386,19.2183792 L33.1910386,18.1751426 L41.6844887,25.6858498 L44.487923,28.1480074 L41.6844887,25.3108279 L33.1910386,16.6730675 L33.1910386,15.7547277 L41.6844887,23.3075089 L42.6324973,24.1423632 C42.7153172,24.517385 42.8390559,24.809584 43.0037134,25.1021143 C43.457422,25.8531519 44.2823466,26.2288363 45.5184241,26.2288363 C46.9620422,26.2288363 47.9516244,25.6030269 48.4874981,24.3510767 C48.8174679,23.5993766 48.9412066,22.6399567 48.9412066,21.471492 L48.9412066,9.45422806 L58.1355153,9.45422806 L58.1355153,32.8212037 L49.7245576,32.8212037 L49.7245576,29.3999575 C48.6934019,30.7768046 47.4975885,31.7779671 46.1371176,32.4458506 C44.8178929,33.1134027 43.3336833,33.4473445 41.6844887,33.4473445 C40.241198,33.4473445 38.9628922,33.1972195 37.8498986,32.7380496 C36.777824,32.2788797 35.829488,31.5692536 35.0873832,30.6512451 C34.5924284,30.0254357 34.1802935,29.3164721 33.8918972,28.5651032 L37.7264873,31.9452693 L33.6447472,27.7723229 C33.5619274,27.4804552 33.5203538,27.1468448 33.4794349,26.8132344 C33.3969424,26.4372186 33.3560235,26.0201228 33.31445,25.6030269 L40.5299216,31.9452693 L33.2316302,24.6012017 C33.2316302,24.1002892 33.1910386,23.5993766 33.1910386,23.0991266 L41.6844887,30.6512451 Z M41.6844887,20.8039398 L42.3853473,21.3883378 L42.3853473,21.5132347 C42.3853473,22.3891691 42.4269209,23.1412006 42.5503322,23.8084214 L41.6844887,22.8900817 L33.1910386,14.1274244 L33.1910386,13.2932327 L41.6844887,20.8039398 Z M41.6844887,18.3421135 L42.3853473,18.9679229 L42.3853473,20.7621971 L41.6844887,20.0532335 L33.1910386,11.4154731 L33.1910386,10.8314064 L41.6844887,18.3421135 Z M41.6844887,16.0886695 L42.3853473,16.7148102 L42.3853473,18.1333999 L41.6844887,17.424105 L33.8503236,9.45422806 L34.3452784,9.45422806 L41.6844887,16.0886695 Z M41.6844887,13.6682546 L42.3853473,14.2943953 L42.3853473,15.8802872 L41.6844887,15.170661 L36.2831966,9.45422806 L37.024974,9.45422806 L41.6844887,13.6682546 Z M41.6844887,11.1650168 L42.3853473,11.7494148 L42.3853473,13.3763868 L41.6844887,12.6674233 L38.633577,9.45422806 L39.7056517,9.45422806 L41.6844887,11.1650168 Z M41.024549,9.45422806 L41.6844887,9.45422806 L42.3853473,9.45422806 L42.3853473,10.8728178 L41.6844887,10.1635229 L41.024549,9.45422806 Z" id="Fill-42" fill="#144A8D"></path>
                        <path d="M71.8659928,18.5511915 L75.9061594,18.5511915 C75.7411744,15.6716067 74.4219497,14.2112743 71.8659928,14.2112743 C70.5457861,14.2112743 69.5974501,14.5862961 68.8972462,15.337665 C68.2373065,16.0887026 67.8248442,17.1736819 67.7426791,18.5511915 L71.8659928,18.5511915 Z M71.8659928,8.66148089 C75.9470782,8.66148089 79.1629749,9.91343106 81.4724365,12.3335147 C83.7399971,14.795341 84.9354831,18.2172498 84.9773841,22.6399898 L84.9773841,23.2243878 L71.8659928,23.2243878 L67.7426791,23.2243878 C67.8248442,24.7261317 68.1963877,25.8949277 68.9384925,26.6873768 C69.6390237,27.4387456 70.5873597,27.8561728 71.8659928,27.8972529 L72.030323,27.8972529 C72.9370854,27.8972529 73.6801723,27.7309446 74.2572922,27.3973342 C74.8344121,27.0630612 75.2053008,26.5621486 75.4112046,25.9363392 L84.2349519,25.9363392 C83.5753396,28.4819822 82.1736224,30.4011532 80.0291457,31.7365888 C77.9674889,32.9882077 75.2053008,33.6557599 71.8659928,33.6981652 L71.4944494,33.6981652 C67.4536281,33.6557599 64.320224,32.5290378 62.052336,30.3179991 C59.7847753,28.1480405 58.6305355,25.1432276 58.5892893,21.388371 C58.6305355,17.4241382 59.7847753,14.2944284 62.1351558,12.0830584 C64.4436353,9.82961434 67.7011055,8.66148089 71.8659928,8.66148089 Z" id="Fill-44" fill="#144A8D"></path>
                        <path d="M84.3175098,25.5191439 C84.6887259,30.9854519 88.6467274,33.6980658 96.1096764,33.6980658 C100.15017,33.6980658 103.201082,33.029851 105.262084,31.653004 C107.324396,30.276157 108.355224,28.2731693 108.355224,25.6029606 C108.355224,23.933252 107.984008,22.6398904 107.283149,21.6383966 C106.541045,20.6789767 105.427724,19.8861964 103.943187,19.3014671 C102.459632,18.7174004 100.562305,18.1754077 98.2944172,17.6741638 C96.8517812,17.3822961 95.7384603,17.1318398 94.9960281,16.8813835 C94.2539233,16.6312585 93.8830346,16.1303459 93.8830346,15.3378969 C93.8830346,14.8369843 94.0892658,14.4195572 94.5010734,14.1273582 C94.9141904,13.8772332 95.5328838,13.7102623 96.3568264,13.7102623 C97.2226699,13.7102623 97.8822823,13.9189759 98.4181559,14.3360717 C98.9127833,14.7534989 99.2018343,15.2958229 99.2839994,16.0054491 L107.571546,16.0054491 C107.283149,13.5853654 106.169501,11.7496799 104.31473,10.4973984 C102.417404,9.24544823 99.737708,8.66138151 96.2733519,8.66138151 C92.5222363,8.66138151 89.718802,9.32893366 87.7808838,10.6226265 C85.8838846,11.9577308 84.9355486,13.8354904 84.9355486,16.3393908 C84.9355486,17.9663628 85.3067647,19.2600557 86.0491968,20.2194755 C86.7913017,21.1792267 87.9458688,21.9309269 89.4706699,22.5149936 C91.0376994,23.0990603 92.9756175,23.5993103 95.3669169,24.1002229 C96.64555,24.3510105 97.6351322,24.6011355 98.2538257,24.8933345 C98.9127833,25.1852022 99.2434079,25.7275262 99.2434079,26.5209691 C99.2434079,27.1471098 98.9952758,27.6052858 98.4594022,27.9392275 C97.96412,28.2731693 97.2226699,28.4401401 96.2334151,28.4818828 C94.2539233,28.4818828 93.2227676,27.480389 93.2227676,25.5191439 L84.3175098,25.5191439 Z" id="Fill-46" fill="#144A8D"></path>
                        <path d="M110.705048,18.4672091 L110.664457,14.8369181 L107.406986,14.8369181 L107.406986,9.49583826 L110.498817,9.49583826 L110.498817,6.44961392 L119.776273,4.7805679 L119.776273,9.49583826 L124.146082,9.49583826 L124.146082,14.8369181 L119.858765,14.8369181 L119.858765,25.3938495 C119.858765,26.5623143 120.60087,27.6890363 121.672617,28.2313603 C121.919767,28.3983311 123.033088,28.6491187 124.187655,28.7740156 L124.187655,33.0301161 C124.187655,33.0301161 121.424813,33.8649704 118.085505,33.8649704 C110.787868,33.8649704 110.705048,28.6908614 110.705048,28.2734343 L110.705048,18.4672091 Z" id="Fill-48" fill="#144A8D"></path>
                        <path d="M127.371177,6.84322123 L127.636659,6.84554026 C127.813428,6.84686543 127.937822,6.81903695 128.010821,6.76238613 C128.083493,6.70540401 128.120156,6.63152603 128.121138,6.54075219 C128.121793,6.44997834 128.087748,6.37543778 128.019005,6.31746179 C127.950261,6.25948579 127.832415,6.22966957 127.665466,6.2283444 L127.376415,6.22602536 L127.371177,6.84322123 Z M126.767869,5.79103977 L127.868423,5.80031593 C128.179734,5.80296626 128.404297,5.86789937 128.543094,5.99544656 C128.681891,6.12266245 128.750307,6.29195235 128.74867,6.50397884 C128.747033,6.66929325 128.692693,6.81207983 128.585322,6.93200732 C128.477624,7.05226609 128.309038,7.13873315 128.079565,7.19107719 C128.173842,7.22818182 128.242913,7.26727421 128.286778,7.30802305 C128.34832,7.36500517 128.413135,7.44915318 128.48057,7.56079838 C128.484171,7.56874937 128.615111,7.80794175 128.872409,8.27837553 L128.148963,8.27208099 C127.917853,7.79999076 127.762034,7.51806179 127.682815,7.4253002 C127.603269,7.3328699 127.523068,7.28615781 127.442867,7.28549523 C127.424535,7.28549523 127.399657,7.28814556 127.367249,7.29410881 L127.359392,8.26545517 L126.747573,8.2601545 L126.767869,5.79103977 Z M129.657397,7.05027834 C129.661652,6.53578281 129.483573,6.09516526 129.124142,5.72776311 C128.764383,5.36069225 128.328351,5.17483778 127.81572,5.17053099 C127.303415,5.16622421 126.864438,5.34479026 126.498787,5.70556659 C126.132808,6.06667421 125.947855,6.50431013 125.943926,7.01880566 C125.939344,7.53330119 126.117095,7.97391874 126.477181,8.3409896 C126.836613,8.70839175 127.272644,8.89391493 127.785276,8.89855301 C128.29758,8.9028598 128.736558,8.72462503 129.102537,8.36318613 C129.46786,8.0024098 129.653141,7.56477387 129.657397,7.05027834 Z M130.103249,7.05392255 C130.099648,7.46737421 129.993586,7.85200351 129.784736,8.20747917 C129.575886,8.56262354 129.292728,8.84157089 128.93526,9.04465252 C128.578448,9.24707156 128.193483,9.34679026 127.781348,9.34314606 C127.371504,9.33983315 126.989813,9.2338199 126.635619,9.02477503 C126.281425,8.81639275 126.003177,8.53247603 125.799892,8.17368745 C125.596934,7.81456758 125.497092,7.42861311 125.500693,7.01516146 C125.503967,6.60336626 125.610028,6.21939954 125.819206,5.86326129 C126.028056,5.50712305 126.311214,5.22751311 126.668682,5.02476278 C127.026149,4.82201245 127.409804,4.72229374 127.819648,4.72560666 C128.231783,4.72925086 128.614784,4.83526411 128.96865,5.04430897 C129.322517,5.25302255 129.601092,5.53727056 129.80405,5.89705301 C130.00668,6.25683546 130.106195,6.64245864 130.103249,7.05392255 Z" id="Fill-50" fill="#144A8D"></path>
                    </g>
                </g>
            </g>
        </g>
    </g>
</svg>