<?xml version="1.0" encoding="utf-8"?>
<!-- Generator: Adobe Illustrator 16.0.2, SVG Export Plug-In . SVG Version: 6.00 Build 0)  -->
<!DOCTYPE svg PUBLIC "-//W3C//DTD SVG 1.1//EN" "http://www.w3.org/Graphics/SVG/1.1/DTD/svg11.dtd">
<svg version="1.1" id="Layer_1" xmlns="http://www.w3.org/2000/svg" xmlns:xlink="http://www.w3.org/1999/xlink" x="0px" y="0px"
	 width="512px" height="512px" viewBox="0 0 512 512" enable-background="new 0 0 512 512" xml:space="preserve">
<g id="Group-41">
	<defs>
		<filter id="Adobe_OpacityMaskFilter" filterUnits="userSpaceOnUse" x="0" y="6.447" width="512" height="505.553">
			<feColorMatrix  type="matrix" values="1 0 0 0 0  0 1 0 0 0  0 0 1 0 0  0 0 0 1 0"/>
		</filter>
	</defs>
	<mask maskUnits="userSpaceOnUse" x="0" y="6.447" width="512" height="505.553" id="mask-2_1_">
		<g filter="url(#Adobe_OpacityMaskFilter)">
			<polygon id="path-1_1_" fill="#FFFFFF" points="0,6.447 512,6.447 512,512 0,512 			"/>
		</g>
	</mask>
	<path id="Fill-39" mask="url(#mask-2_1_)" fill="#1D4B8D" d="M398.5,335.915l57.991,59.956l-1.861,3.161l-56.13-49.867
		l-58.611-51.757c1.241-7.563,1.861-13.25,1.861-18.937L398.5,335.915z M398.5,296.166l71.728,73.205l-1.876,4.417L398.5,311.927
		l-56.13-49.86c0-8.198-0.621-16.411-0.621-23.973L398.5,296.166z M398.5,255.132l82.333,84.564
		c-0.635,2.525-1.255,4.417-1.861,6.322L398.5,274.689l-57.991-51.743c-1.876-12.629-3.737-23.988-6.233-34.084L398.5,255.132z
		 M398.5,215.996l89.187,91.514c0,3.161-0.62,5.687-1.241,8.833L398.5,238.714l-67.961-59.955
		c-2.497-8.206-6.248-15.148-9.985-21.462c-14.978-23.981-39.926-35.347-74.217-35.347h-8.73c-3.124,0.635-5.613,0.635-8.102,1.271
		c-24.956,3.161-44.284,13.885-56.758,32.186c-15.591,22.725-23.692,57.437-23.692,103.515c0,25.872,2.496,47.969,6.861,66.255
		c10.598-14.505,33.67-38.493,73.589-41.654h7.474c19.963,0,41.787,6.322,61.122,16.425c9.971,5.052,18.7,10.724,24.328,15.14
		l1.861,1.256c6.854,5.052,10.605,8.833,10.605,8.833c16.204,13.264,34.298,34.091,63.604,58.08
		c2.511,2.511,4.992,4.402,7.474,6.307c12.496,10.724,24.342,20.192,37.43,27.77c3.131,1.891,6.248,3.796,9.985,5.052
		c2.497,1.891,21.211,6.957,38.671,9.468c7.474,1.255,14.328,1.891,19.94,1.891v64.372c0,0-29.306,8.833-79.822,8.833
		c-11.226-0.621-23.072-3.146-33.678-6.292c-21.197-6.322-38.05-15.155-38.05-15.155c-14.948,8.833-32.408,15.155-52.378,19.572
		c-19.941,4.417-41.772,6.307-65.48,6.928c-4.357-0.621-8.722-0.621-13.087-0.621c-68.611-3.796-122.865-26.514-163.397-68.168
		C23.073,398.411,0.621,338.44,0,262.067c0.621-79.52,22.452-142.001,65.487-186.816c39.912-41.654,94.786-64.38,164.018-68.168
		h8.102l8.73-0.635C307.451,7.083,358.588,22.238,398.5,50.635c9.985,6.942,18.715,15.148,27.444,23.988
		c22.452,22.718,39.291,50.487,49.896,83.301L398.5,88.508l-54.875-48.604L398.5,96.078l84.815,86.47
		c1.241,7.578,3.131,14.513,4.372,22.09L398.5,125.11l-87.932-78.264l87.932,89.623l91.684,94.047
		c0.635,5.044,1.255,9.461,1.255,14.52L398.5,162.348L287.496,63.264L398.5,176.233l92.939,95.31c0,3.767,0,7.578-0.62,10.739
		L398.5,200.221L280.627,96.078L398.5,215.996z M229.505,395.25c4.978,0.62,11.226,1.255,17.459,1.255
		c9.978,0,18.708-1.255,27.438-3.796c0,0-19.956-32.821-44.896-39.749c-3.124-0.635-6.248-1.255-9.357-1.255
		c-21.204,0-28.065,15.14-36.174,24.608C195.819,386.402,210.797,392.709,229.505,395.25z"/>
</g>
</svg>
