<?xml version="1.0" encoding="utf-8"?>
<!-- Generator: Adobe Illustrator 16.0.2, SVG Export Plug-In . SVG Version: 6.00 Build 0)  -->
<!DOCTYPE svg PUBLIC "-//W3C//DTD SVG 1.1//EN" "http://www.w3.org/Graphics/SVG/1.1/DTD/svg11.dtd">
<svg version="1.1" id="Layer_1" xmlns="http://www.w3.org/2000/svg" xmlns:xlink="http://www.w3.org/1999/xlink" x="0px" y="0px"
	 width="700px" height="700px" viewBox="0 0 700 700" enable-background="new 0 0 700 700" xml:space="preserve">
<g id="Group-41">
	<defs>
		<filter id="Adobe_OpacityMaskFilter" filterUnits="userSpaceOnUse" x="0" y="5.183" width="700" height="691.189">
			<feColorMatrix  type="matrix" values="1 0 0 0 0  0 1 0 0 0  0 0 1 0 0  0 0 0 1 0"/>
		</filter>
	</defs>
	<mask maskUnits="userSpaceOnUse" x="0" y="5.183" width="700" height="691.189" id="mask-2_2_">
		<g filter="url(#Adobe_OpacityMaskFilter)">
			<polygon id="path-1_2_" fill="#FFFFFF" points="0,5.181 700,5.181 700,696.367 0,696.367 			"/>
		</g>
	</mask>
	<path id="Fill-39" mask="url(#mask-2_2_)" d="M544.824,455.626l79.285,81.972l-2.544,4.321l-76.741-68.178l-80.131-70.762
		c1.696-10.339,2.543-18.115,2.543-25.89L544.824,455.626z M544.824,401.281l98.066,100.086l-2.564,6.038l-95.502-84.574
		l-76.74-68.169c0-11.208-0.849-22.437-0.849-32.775L544.824,401.281z M544.824,345.18L657.39,460.796
		c-0.869,3.452-1.718,6.039-2.545,8.644l-110.021-97.521l-79.283-70.742c-2.565-17.266-5.11-32.797-8.522-46.6L544.824,345.18z
		 M544.824,291.674L666.76,416.792c0,4.32-0.848,7.774-1.696,12.076L544.824,322.734l-92.915-81.969
		c-3.413-11.219-8.543-20.71-13.65-29.344c-20.479-32.786-54.588-48.325-101.47-48.325h-11.935
		c-4.271,0.868-7.674,0.868-11.078,1.738c-34.12,4.32-60.543,18.983-77.599,44.003c-21.315,31.069-32.391,78.528-32.391,141.524
		c0,35.373,3.411,65.583,9.379,90.584c14.49-19.832,46.033-52.628,100.61-56.949h10.219c27.292,0,57.13,8.644,83.565,22.456
		c13.632,6.906,25.566,14.661,33.262,20.698l2.543,1.719c9.371,6.906,14.5,12.076,14.5,12.076
		c22.153,18.134,46.892,46.608,86.959,79.405c3.433,3.434,6.824,6.019,10.218,8.623c17.085,14.661,33.28,27.605,51.174,37.967
		c4.28,2.586,8.542,5.19,13.651,6.907c3.414,2.585,28.999,9.512,52.87,12.944c10.218,1.716,19.59,2.585,27.263,2.585v88.009
		c0,0-40.067,12.076-109.132,12.076c-15.349-0.849-31.544-4.3-46.045-8.602c-28.979-8.643-52.021-20.72-52.021-20.72
		c-20.436,12.077-44.309,20.72-71.61,26.758c-27.264,6.039-57.111,8.624-89.524,9.473c-5.956-0.849-11.924-0.849-17.892-0.849
		c-93.803-5.189-167.979-36.251-223.394-93.198C31.545,541.07,0.849,459.079,0,354.662C0.849,245.943,30.696,160.52,89.533,99.249
		C144.1,42.301,219.124,11.23,313.776,6.051h11.078l11.935-0.868c83.555,0.868,153.469,21.588,208.036,60.413
		c13.652,9.49,25.588,20.709,37.521,32.795c30.696,31.059,53.719,69.025,68.218,113.888l-105.739-94.905L469.8,50.924l75.024,76.8
		l115.959,118.22c1.696,10.361,4.28,19.843,5.977,30.202l-121.936-108.73L424.605,60.415l120.219,122.531l125.35,128.58
		c0.868,6.896,1.716,12.935,1.716,19.851L544.824,218.328L393.061,82.862l151.763,154.45l127.065,130.306
		c0,5.151,0,10.361-0.848,14.683L544.824,270.108L383.67,127.724L544.824,291.674z M313.776,536.748
		c6.807,0.848,15.349,1.716,23.87,1.716c13.642,0,25.578-1.716,37.513-5.189c0,0-27.283-44.872-61.382-54.345
		c-4.271-0.868-8.542-1.716-12.792-1.716c-28.99,0-38.371,20.7-49.456,33.645C267.721,524.651,288.198,533.274,313.776,536.748z"/>
</g>
</svg>
