<svg xmlns="http://www.w3.org/2000/svg" xmlns:xlink="http://www.w3.org/1999/xlink" width="70" height="70" viewBox="0 0 70 70">
  <defs>
    <path id="assessments-a" d="M25.9453125,23.5559077 C25.9453125,24.1311931 25.5675528,24.5975541 25.1015625,24.5975541 L18.309375,24.5975541 C17.9834531,24.6424695 17.6654721,24.4530892 17.4910896,24.110207 C17.3167072,23.7673249 17.3167072,23.33147 17.4910896,22.9885878 C17.6654721,22.6457057 17.9834531,22.4563253 18.309375,22.5012408 L25.1015625,22.5012408 C25.3271783,22.501219 25.5434034,22.6127491 25.7019439,22.8109209 C25.8604845,23.0090927 25.9481327,23.2773969 25.9453125,23.5559077 Z M17.4550781,23.5611971 C17.4550781,22.9751141 17.8375598,22.5 18.309375,22.5 L25.1015625,22.5 C25.534016,22.5599656 25.8610841,23.0141215 25.8610841,23.5546465 C25.8610841,24.0951715 25.534016,24.5493274 25.1015625,24.609293 L18.309375,24.609293 C18.0837768,24.6127962 17.8664462,24.5039206 17.7059239,24.3069835 C17.5454016,24.1100464 17.4550605,23.8414543 17.4550781,23.5611971 Z M31.8937501,3.82148426 L21.6210938,3.82148426 C21.2805094,1.78892424 19.5212489,0.299925753 17.4603515,0.299925753 C15.3994542,0.299925753 13.6401937,1.78892424 13.2996093,3.82148426 L3.02695301,3.82148426 C1.61733247,3.82148426 0.474609246,4.96420749 0.474609246,6.37382802 L0.474609246,42.0328126 C0.474603427,42.7087704 0.743846415,43.3568899 1.22280933,43.8338736 C1.70177224,44.3108573 2.35100103,44.5774143 3.02695301,44.5746095 L31.8937501,44.5746095 C32.5678765,44.5746095 33.2143925,44.3068138 33.6910719,43.8301344 C34.1677513,43.3534551 34.435547,42.7069391 34.435547,42.0328126 L34.435547,6.37382802 C34.4383518,5.69787605 34.1717948,5.04864725 33.6948111,4.56968434 C33.2178273,4.09072143 32.5697079,3.82147844 31.8937501,3.82148426 Z M10.6628906,5.51953114 L14.0589843,5.51953114 C14.2839046,5.52313961 14.5007275,5.43564968 14.6601562,5.27695302 C14.8197637,5.11728227 14.9106071,4.9015291 14.9132812,4.67578114 C14.8521761,3.72668285 15.3238396,2.82232862 16.137105,2.32925585 C16.9503704,1.83618308 17.9703327,1.83618308 18.7835981,2.32925585 C19.5968635,2.82232862 20.0685269,3.72668285 20.0074219,4.67578114 C20.0061563,4.90025971 20.0932967,5.11621629 20.25,5.27695302 C20.4119632,5.43176637 20.6271219,5.51858479 20.8511719,5.51953114 L24.2578125,5.51953114 L24.2578125,8.07187491 C24.2578125,8.53786517 23.8800528,8.91562492 23.4140625,8.91562492 L11.5171874,8.91562492 C11.2915892,8.91844511 11.0742587,8.83079685 10.9137364,8.67225632 C10.7532141,8.5137158 10.6628729,8.29749073 10.6628906,8.07187491 L10.6628906,5.51953114 Z M11.5171874,10.6136718 L23.4035156,10.6136718 C24.478919,10.6140601 25.436141,9.93214528 25.7871094,8.91562492 L29.3414063,8.91562492 L29.3414063,39.5015626 L5.5687499,39.5015626 L5.5687499,8.91562492 L9.1230468,8.91562492 C9.4779718,9.93379324 10.4389316,10.615355 11.5171874,10.6136718 Z M32.6953126,42.0328126 C32.6953126,42.4988029 32.3175528,42.8765626 31.8515626,42.8765626 L3.02695301,42.8765626 C2.80135482,42.8793828 2.58402422,42.7917346 2.42350194,42.633194 C2.26297966,42.4746535 2.1726385,42.2584284 2.17265613,42.0328126 L2.17265613,6.37382802 C2.17265613,6.1472544 2.26266215,5.92996065 2.42287389,5.76974891 C2.58308564,5.60953716 2.80037939,5.51953114 3.02695301,5.51953114 L8.96484367,5.51953114 L8.96484367,7.21757803 L4.74609365,7.21757803 C4.51987271,7.21794998 4.30327633,7.30914845 4.14492177,7.47070303 C3.9853143,7.63037378 3.89447086,7.84612695 3.89179677,8.07187491 L3.89179677,40.3347657 C3.89177914,40.5603816 3.9821203,40.7766066 4.14264258,40.9351472 C4.30316486,41.0936877 4.52049545,41.1813359 4.74609365,41.1785157 L30.1957032,41.1785157 C30.4169788,41.1792916 30.629475,41.0920164 30.7863282,40.9359376 C30.9478828,40.7775831 31.0390812,40.5609867 31.0394532,40.3347657 L31.0394532,8.07187491 C31.0441161,7.84466196 30.9521108,7.62614942 30.7863282,7.47070303 C30.6305462,7.3117285 30.4182585,7.22074804 30.1957032,7.21757803 L25.9769532,7.21757803 L25.9769532,5.51953114 L31.9253907,5.51953114 C32.1510065,5.51951352 32.3672316,5.60985468 32.5257721,5.77037696 C32.6843126,5.93089924 32.7719609,6.14822983 32.7691407,6.37382802 L32.6953126,42.0328126 Z M15.5144531,30.7476563 L12.1078124,34.1015626 C11.7761451,34.4244244 11.2476829,34.4244244 10.9160156,34.1015626 L9.21796868,32.4035157 C8.93921136,32.0638673 8.96355746,31.568157 9.27425563,31.2574589 C9.58495379,30.9467607 10.080664,30.9224146 10.4203124,31.2011719 L11.4749999,32.2558594 L14.2699218,29.4609375 C14.4285109,29.2999012 14.6450778,29.2092234 14.8710937,29.2092234 C15.0971096,29.2092234 15.3136766,29.2999012 15.4722656,29.4609375 C15.6634147,29.6169929 15.7777484,29.8480786 15.7858346,30.0947076 C15.7939208,30.3413366 15.6949695,30.5794152 15.5144531,30.7476563 Z M15.5144531,23.9554688 L12.1183593,27.3515625 C11.9563961,27.5063759 11.7412374,27.5931943 11.5171874,27.5941407 C11.2922672,27.5977491 11.0754443,27.5102592 10.9160156,27.3515625 L9.21796868,25.6640625 C8.93921136,25.3244141 8.96355746,24.8287039 9.27425563,24.5180057 C9.58495379,24.2073075 10.080664,24.1829614 10.4203124,24.4617188 L11.4749999,25.5164063 L14.2699218,22.7214844 C14.4285109,22.5604481 14.6450778,22.4697702 14.8710937,22.4697702 C15.0971096,22.4697702 15.3136766,22.5604481 15.4722656,22.7214844 C15.6461652,22.8767977 15.7490283,23.0964401 15.7569949,23.3294634 C15.7649615,23.5624866 15.6773393,23.7886414 15.5144531,23.9554688 Z M15.5144531,17.1632812 L12.1183593,20.559375 C11.9563961,20.7141883 11.7412374,20.8010068 11.5171874,20.8019531 C11.2922672,20.8055616 11.0754443,20.7180716 10.9160156,20.559375 L9.21796868,18.8613281 C8.93921136,18.5216797 8.96355746,18.0259695 9.27425563,17.7152713 C9.58495379,17.4045731 10.080664,17.380227 10.4203124,17.6589843 L11.4749999,18.7136719 L14.2699218,15.91875 C14.4285109,15.7577136 14.6450778,15.6670358 14.8710937,15.6670358 C15.0971096,15.6670358 15.3136766,15.7577136 15.4722656,15.91875 C15.649507,16.0743042 15.7545646,16.2962045 15.762554,16.5318903 C15.7705433,16.7675762 15.6807537,16.9960815 15.5144531,17.1632812 Z M22.5492188,33.744189 C22.5492188,34.3194745 22.171459,34.7858354 21.7054688,34.7858354 L18.309375,34.7858354 C17.9834531,34.8307508 17.6654721,34.6413705 17.4910896,34.2984884 C17.3167072,33.9556062 17.3167072,33.5197513 17.4910896,33.1768691 C17.6654721,32.833987 17.9834531,32.6446067 18.309375,32.6895221 L21.7054688,32.6895221 C21.9310846,32.6895003 22.1473096,32.8010304 22.3058502,32.9992022 C22.4643907,33.197374 22.552039,33.4656782 22.5492188,33.744189 Z M22.5492188,26.9203609 C22.5492188,27.4956463 22.171459,27.9620073 21.7054688,27.9620073 L18.309375,27.9620073 C17.9834531,28.0069227 17.6654721,27.8175424 17.4910896,27.4746602 C17.3167072,27.131778 17.3167072,26.6959231 17.4910896,26.353041 C17.6654721,26.0101588 17.9834531,25.8207785 18.309375,25.8656939 L21.7054688,25.8656939 C21.9310846,25.8656721 22.1473096,25.9772023 22.3058502,26.1753741 C22.4643907,26.3735459 22.552039,26.64185 22.5492188,26.9203609 Z M22.5492188,20.159814 C22.5492188,20.7350994 22.171459,21.2014603 21.7054688,21.2014603 L18.309375,21.2014603 C17.9834531,21.2463758 17.6654721,21.0569954 17.4910896,20.7141133 C17.3167072,20.3712311 17.3167072,19.9353762 17.4910896,19.5924941 C17.6654721,19.2496119 17.9834531,19.0602316 18.309375,19.105147 L21.7054688,19.105147 C21.9310846,19.1051252 22.1473096,19.2166553 22.3058502,19.4148271 C22.4643907,19.6129989 22.552039,19.8813031 22.5492188,20.159814 Z M25.9453125,30.3480953 C25.9453125,30.9233807 25.5675528,31.3897417 25.1015625,31.3897417 L18.309375,31.3897417 C17.9834531,31.4346571 17.6654721,31.2452767 17.4910896,30.9023946 C17.3167072,30.5595124 17.3167072,30.1236575 17.4910896,29.7807754 C17.6654721,29.4378932 17.9834531,29.2485129 18.309375,29.2934283 L25.1015625,29.2934283 C25.3271783,29.2934065 25.5434034,29.4049367 25.7019439,29.6031085 C25.8604845,29.8012802 25.9481327,30.0695844 25.9453125,30.3480953 Z M25.9453125,23.5559077 C25.9453125,24.1311931 25.5675528,24.5975541 25.1015625,24.5975541 L18.309375,24.5975541 C17.9834531,24.6424695 17.6654721,24.4530892 17.4910896,24.110207 C17.3167072,23.7673249 17.3167072,23.33147 17.4910896,22.9885878 C17.6654721,22.6457057 17.9834531,22.4563253 18.309375,22.5012408 L25.1015625,22.5012408 C25.3271783,22.501219 25.5434034,22.6127491 25.7019439,22.8109209 C25.8604845,23.0090927 25.9481327,23.2773969 25.9453125,23.5559077 Z M25.9453125,16.7637202 C25.9453125,17.3390056 25.5675528,17.8053666 25.1015625,17.8053666 L18.309375,17.8053666 C17.9834531,17.850282 17.6654721,17.6609017 17.4910896,17.3180195 C17.3167072,16.9751373 17.3167072,16.5392824 17.4910896,16.1964003 C17.6654721,15.8535181 17.9834531,15.6641378 18.309375,15.7090532 L25.1015625,15.7090532 C25.3271783,15.7090314 25.5434034,15.8205616 25.7019439,16.0187334 C25.8604845,16.2169052 25.9481327,16.4852093 25.9453125,16.7637202 Z M18.7100737,4.87614617 C18.7100737,5.4586112 18.2378925,5.93079241 17.6554275,5.93079241 C17.0729624,5.93079241 16.6007812,5.4586112 16.6007812,4.87614617 C16.6007812,4.29368114 17.0729624,3.82149994 17.6554275,3.82149994 C17.936205,3.81796772 18.2065155,3.92794729 18.4050709,4.12650269 C18.6036263,4.32505808 18.7136059,4.59536866 18.7100737,4.87614617 Z M41.944922,10.6980468 C41.616986,9.63914605 40.6382053,8.91681445 39.5296876,8.91562492 L38.6859376,8.91562492 C37.2763171,8.91562492 36.1335938,10.0583481 36.1335938,11.4679687 L36.1335938,35.2406251 L36.1968751,35.5675782 L38.3062501,40.6617189 C38.4419922,40.977391 38.7536547,41.1810104 39.0972657,41.1785157 C39.4378887,41.1795813 39.7457441,40.9757311 39.8777345,40.6617189 L41.9871095,35.5675782 L42.0609376,35.2406251 L42.0609376,12.5542968 C42.6042407,12.8601356 42.9362441,13.4391171 42.9257814,14.0624999 L42.9257814,20.0109375 C42.9740556,20.4433909 43.3396653,20.7704591 43.7748048,20.7704591 C44.2099443,20.7704591 44.5755541,20.4433909 44.6238283,20.0109375 L44.6238283,14.0624999 C44.6451899,12.4464423 43.5247014,11.0392147 41.944922,10.6980468 Z M40.3839845,35.0718751 L39.1078126,38.119922 L37.8316407,35.0718751 L37.8316407,22.5 L40.3839845,22.5 L40.3839845,35.0718751 Z M40.3839845,20.8019531 L37.8316407,20.8019531 L37.8316407,11.4679687 C37.8316407,10.9961535 38.2141225,10.6136718 38.6859376,10.6136718 L39.5296876,10.6136718 C39.9991254,10.6193626 40.3782937,10.9985309 40.3839845,11.4679687 L40.3839845,20.8019531 Z"/>
    <linearGradient id="assessments-c" x1="50%" x2="50%" y1="97.784%" y2="1.559%">
      <stop offset="0%" stop-color="#1991EB"/>
      <stop offset="100%" stop-color="#2DA1F8"/>
    </linearGradient>
  </defs>
  <g fill="none" fill-rule="evenodd" transform="translate(13 13)">
    <mask id="assessments-b" fill="#fff">
      <use xlink:href="#assessments-a"/>
    </mask>
    <g fill="url(#assessments-c)" mask="url(#assessments-b)">
      <rect width="101.2" height="101.2" transform="translate(-29.531 -28.125)"/>
    </g>
  </g>
</svg>
