<svg xmlns="http://www.w3.org/2000/svg" xmlns:xlink="http://www.w3.org/1999/xlink" width="70" height="70" viewBox="0 0 70 70">
  <defs>
    <path id="blogs-a" d="M8.06486478,14.1521428 L32.6616217,14.1521428 C33.145244,14.1521428 33.5372974,13.76359 33.5372974,13.2842857 C33.5372974,12.8049814 33.145244,12.4164286 32.6616217,12.4164286 L8.06486478,12.4164286 C7.58124246,12.4164286 7.1891891,12.8049814 7.1891891,13.2842857 C7.1891891,13.76359 7.58124246,14.1521428 8.06486478,14.1521428 Z M8.06486478,10.6710714 L32.6616217,10.6710714 C33.145244,10.6710714 33.5372974,10.2825185 33.5372974,9.80321425 C33.5372974,9.32390998 33.145244,8.9353571 32.6616217,8.9353571 L8.06486478,8.9353571 C7.58124246,8.9353571 7.1891891,9.32390998 7.1891891,9.80321425 C7.1891891,10.2825185 7.58124246,10.6710714 8.06486478,10.6710714 Z M26.5513514,16.7653571 C26.5513514,16.2860529 26.159298,15.8975 25.6756757,15.8975 L8.06486478,15.8975 C7.58124246,15.8975 7.1891891,16.2860529 7.1891891,16.7653571 C7.1891891,17.2446614 7.58124246,17.6332143 8.06486478,17.6332143 L25.6367568,17.6332143 C25.8690004,17.6332143 26.091732,17.5417796 26.255953,17.3790248 C26.420174,17.21627 26.5124325,16.9955272 26.5124325,16.7653571 L26.5513514,16.7653571 Z M45.8745947,12.4164286 C45.8764582,12.1855544 45.7854198,11.9634607 45.6216218,11.7992857 L42.0702704,8.31821424 C41.9071054,8.15087565 41.6823694,8.05637773 41.4475677,8.05637773 C41.212766,8.05637773 40.9880299,8.15087565 40.824865,8.31821424 L40.571892,8.56892853 L40.571892,3.74749993 C40.5665289,1.82339849 38.9911729,0.266421133 37.0497298,0.266428475 L3.67675665,0.266428475 C1.73689377,0.266428475 0.164324194,1.82495725 0.164324194,3.74749993 L0.164324194,22.8596429 C0.175029395,24.7746498 1.74446782,26.321458 3.67675665,26.3214286 L7.1891891,26.3214286 L7.1891891,32.4157144 C7.19049327,32.7672439 7.40563867,33.083273 7.73405397,33.2160715 C7.83829109,33.2614288 7.95102657,33.2844318 8.06486478,33.2835715 C8.29781885,33.2854184 8.52191342,33.1951928 8.68756749,33.0328573 L15.4983783,26.2828572 L22.6789189,26.2828572 L20.6648649,28.2789286 C20.5577156,28.3822253 20.4804429,28.5120831 20.4410811,28.6550001 L18.9037838,33.8717858 C18.8088188,34.184531 18.8990583,34.523634 19.1372973,34.7492858 C19.3037488,34.9032009 19.5226224,34.9892801 19.7502703,34.9903573 C19.8438247,35.0039451 19.938878,35.0039451 20.0324324,34.9903573 L25.0821622,33.2450001 C25.2071034,33.2045145 25.3205076,33.1350961 25.412973,33.0425001 L32.2237839,26.2925001 L37.0886487,26.2925001 C39.0300918,26.2925074 40.6054478,24.7355301 40.6108109,22.8114286 L40.6108109,17.99 L45.6216218,13.0239286 C45.7671718,12.8551142 45.8435521,12.6383419 45.8356758,12.4164286 L45.8745947,12.4164286 Z M15.0897297,24.6050001 C14.8597204,24.6035796 14.6388074,24.6939361 14.4767567,24.8557143 L8.95027019,30.3328572 L8.95027019,25.5114286 C8.94848401,25.279381 8.85402705,25.0574821 8.68756749,24.8942858 C8.52191342,24.7319502 8.29781885,24.6417246 8.06486478,24.6435715 L3.67675665,24.6435715 C2.7063495,24.6383015 1.92099298,23.8599571 1.91567556,22.8982143 L1.91567556,3.7089285 C1.92099298,2.7471857 2.7063495,1.96884128 3.67675665,1.96357134 L37.0497298,1.96357134 C38.020137,1.96884128 38.8054935,2.7471857 38.8108109,3.7089285 L38.8108109,10.3142857 L24.3913514,24.6050001 L15.0897297,24.6050001 Z M21.0248649,32.8014287 L21.667027,30.6125001 L23.145946,32.107143 L21.0248649,32.8014287 Z M38.8108109,22.8596429 C38.8054935,23.8213857 38.020137,24.5997301 37.0497298,24.6050001 L33.9070271,24.6050001 L38.771892,19.7835715 L38.8108109,22.8596429 Z M24.7610811,31.2007144 L22.4843243,28.9539287 L38.8108109,12.8214286 L41.077838,15.0682143 L24.7610811,31.2007144 Z M42.2745947,13.8435714 L40.0075677,11.5871428 L41.4864866,10.16 L43.7535137,12.4164286 L42.2745947,13.8435714 Z"/>
    <linearGradient id="blogs-c" x1="50%" x2="50%" y1="97.784%" y2="1.559%">
      <stop offset="0%" stop-color="#1991EB"/>
      <stop offset="100%" stop-color="#2DA1F8"/>
    </linearGradient>
  </defs>
  <g fill="none" fill-rule="evenodd" transform="translate(12 18)">
    <mask id="blogs-b" fill="#fff">
      <use xlink:href="#blogs-a"/>
    </mask>
    <g fill="url(#blogs-c)" mask="url(#blogs-b)">
      <rect width="93.4" height="93.4" transform="translate(-25.649 -30.571)"/>
    </g>
  </g>
</svg>
