<svg xmlns="http://www.w3.org/2000/svg" xmlns:xlink="http://www.w3.org/1999/xlink" width="70" height="70" viewBox="0 0 70 70">
  <defs>
    <path id="newsletter-a" d="M39.0000001,15.8516129 C38.9978988,14.2095654 38.1903061,12.6713967 36.8355001,11.7290322 L34.5052501,10.1032257 L34.5052501,4.68387088 C34.4949878,4.27662341 34.1648019,3.9488955 33.7545001,3.93870958 L25.63275,3.93870958 L22.70775,1.93548376 C20.7419343,0.63367999 18.1800657,0.63367999 16.21425,1.93548376 L13.28925,3.93870958 L5.24549991,3.93870958 C5.04659121,3.93769563 4.85608482,4.0182332 4.71899991,4.16129023 C4.57855158,4.29986024 4.49809949,4.48734164 4.49474991,4.68387088 L4.49474991,10.1032257 L2.15474989,11.7290322 C0.804912425,12.6746299 0.00151147863,14.2117387 -1.21874982e-07,15.8516129 L-1.21874982e-07,36.7064517 C-0.00260130101,37.49519 0.311922695,38.2523683 0.873830818,38.8100935 C1.43573894,39.3678187 2.19859607,39.6800013 2.9932499,39.6774195 L35.9970001,39.6774195 C36.7925473,39.6799916 37.5563994,39.3681156 38.1198532,38.8106721 C38.6833069,38.2532285 39.0000043,37.496081 39.0000001,36.7064517 L39.0000001,15.8516129 Z M34.5052501,11.9225806 L35.9775001,12.9483871 C36.3270283,13.1871391 36.6280416,13.4891949 36.8647501,13.8387096 L34.5052501,15.8903226 L34.5052501,11.9225806 Z M17.11125,3.15483861 C18.5625817,2.22546162 20.4276683,2.22546162 21.879,3.15483861 L23.01,3.93870958 L15.98025,3.93870958 L17.11125,3.15483861 Z M5.99624992,5.42903217 L33.0037501,5.42903217 L33.0037501,17.1967742 L30.0007501,19.8 L30.0007501,18.0870968 C30.0017716,17.8896688 29.92063,17.7005805 29.7765001,17.5645161 C29.6401033,17.4204777 29.4491449,17.339749 29.2500001,17.3419355 L21.75225,17.3419355 C21.5508586,17.3427269 21.3580063,17.4227739 21.216,17.5645161 C21.0782451,17.7040646 21.0012159,17.8917289 21.0015,18.0870968 L21.0015,23.5451613 C20.5165739,23.3881067 20.0100784,23.3064955 19.5,23.3032258 C18.2813507,23.3000501 17.103127,23.7368751 16.185,24.5322581 L15.31725,25.2870968 L11.3099999,21.8129032 L18.74925,21.8129032 C19.1638778,21.8129032 19.5,21.4792832 19.5,21.0677419 C19.5,20.6562007 19.1638778,20.3225807 18.74925,20.3225807 L9.74999994,20.3225807 L9.62324994,20.3225807 L5.99624992,17.1774193 L5.99624992,5.42903217 Z M28.4992501,18.8322581 L28.4992501,21.1064516 L23.68275,25.2870968 L22.80525,24.5322581 C22.70775,24.4451613 22.6005,24.3870968 22.503,24.3096775 L22.503,18.8322581 L28.4992501,18.8322581 Z M3.0224999,12.9483871 L4.49474991,11.9225806 L4.49474991,15.8903226 L2.13524989,13.8387096 C2.3747246,13.4914517 2.67527552,13.1898599 3.0224999,12.9483871 Z M1.50149989,36.7064517 L1.50149989,15.8516129 C1.48697313,15.6680246 1.48697313,15.4835883 1.50149989,15.3 L14.1765,26.2741936 L1.58924989,37.2096775 C1.53026728,37.0484009 1.50055758,36.8780227 1.50149989,36.7064517 Z M35.9970001,38.1870969 L2.9932499,38.1870969 L2.7689999,38.1870969 L17.1795,25.6548387 C18.5106046,24.5076052 20.4893954,24.5076052 21.8205,25.6548387 L36.2310001,38.1677421 L35.9970001,38.1870969 Z M37.4985001,36.7064517 C37.5011282,36.8790566 37.4679398,37.0503515 37.4010001,37.2096775 L24.8235,26.2741936 L37.4497501,15.3096774 C37.4809141,15.4886941 37.4972189,15.669948 37.4985001,15.8516129 L37.4985001,36.7064517 Z M18.74925,9.89999994 L29.2500001,9.89999994 C29.6646278,9.89999992 30.00075,9.56637985 30.00075,9.15483865 C30.00075,8.74329744 29.6646278,8.40967738 29.2500001,8.40967735 L18.74925,8.40967735 C18.4810328,8.40967734 18.23319,8.55170427 18.0990814,8.78225799 C17.9649728,9.0128117 17.9649728,9.29686559 18.0990814,9.52741931 C18.23319,9.75797302 18.4810328,9.89999996 18.74925,9.89999994 Z M18.74925,12.8806451 L29.2500001,12.8806451 C29.6646278,12.8806451 30.0007501,12.547025 30.0007501,12.1354838 C30.0007501,11.7239426 29.6646278,11.3903225 29.2500001,11.3903225 L18.74925,11.3903225 C18.3346222,11.3903225 17.9985,11.7239426 17.9985,12.1354838 C17.9985,12.547025 18.3346222,12.8806451 18.74925,12.8806451 Z M29.2500001,14.3709677 L18.74925,14.3709677 C18.5510407,14.3683789 18.36005,14.4447228 18.2189696,14.5829343 C18.0778892,14.7211459 17.9984828,14.9097008 17.9985,15.1064516 C17.9958518,15.3048748 18.0740978,15.4959405 18.2154689,15.6362592 C18.3568399,15.7765778 18.5493386,15.8542414 18.74925,15.8516129 L29.2500001,15.8516129 C29.4499114,15.8542414 29.6424101,15.7765778 29.7837812,15.6362592 C29.9251523,15.4959405 30.0033982,15.3048748 30.0007501,15.1064516 C30.0007672,14.9097008 29.9213608,14.7211459 29.7802805,14.5829343 C29.6392001,14.4447228 29.4482093,14.3683789 29.2500001,14.3709677 Z M9.74999994,15.8516129 L15.74625,15.8516129 C15.9469761,15.8570005 16.1411023,15.780224 16.283089,15.6392943 C16.4250757,15.4983646 16.502428,15.3056835 16.497,15.1064516 L16.497,9.15483865 C16.4972841,8.95947073 16.4202549,8.77180645 16.2825,8.632258 C16.1417508,8.4886717 15.9480811,8.40828546 15.74625,8.40967735 L9.74999994,8.40967735 C9.54860851,8.41046882 9.35575625,8.49051578 9.21374994,8.632258 C9.07599506,8.77180645 8.99896582,8.95947073 8.99924993,9.15483865 L8.99924993,15.1064516 C8.99949939,15.3045773 9.07626734,15.4950685 9.21374994,15.6387097 C9.35952726,15.7735208 9.55076655,15.8494471 9.74999994,15.8516129 Z M10.5007499,9.89999994 L14.9955,9.89999994 L14.9955,14.3709677 L10.5007499,14.3709677 L10.5007499,9.89999994 Z M18.74925,18.8322581 C19.1638778,18.8322581 19.5,18.498638 19.5,18.0870968 C19.5,17.6755555 19.1638778,17.3419355 18.74925,17.3419355 L9.74999994,17.3419355 C9.33537216,17.3419355 8.99924993,17.6755555 8.99924993,18.0870968 C8.99924993,18.498638 9.33537216,18.8322581 9.74999994,18.8322581 L18.74925,18.8322581 Z"/>
    <linearGradient id="newsletter-c" x1="50%" x2="50%" y1="97.784%" y2="1.559%">
      <stop offset="0%" stop-color="#1991EB"/>
      <stop offset="100%" stop-color="#2DA1F8"/>
    </linearGradient>
  </defs>
  <g fill="none" fill-rule="evenodd" transform="translate(16 15)">
    <mask id="newsletter-b" fill="#fff">
      <use xlink:href="#newsletter-a"/>
    </mask>
    <g fill="url(#newsletter-c)" mask="url(#newsletter-b)">
      <rect width="94.4" height="93.4" transform="translate(-27.3 -27.097)"/>
    </g>
  </g>
</svg>
