<svg xmlns="http://www.w3.org/2000/svg" xmlns:xlink="http://www.w3.org/1999/xlink" width="70" height="70" viewBox="0 0 70 70">
  <defs>
    <path id="solution_brief-a" d="M26.2145,15.4629 C26.2145,15.9629 25.8145,16.3629 25.3145,16.3629 L7.3345,16.3629 C6.8445,16.3629 6.4345,15.9629 6.4345,15.4629 C6.4345,14.9729 6.8445,14.5629 7.3345,14.5629 L25.3145,14.5629 C25.8145,14.5629 26.2145,14.9729 26.2145,15.4629 M26.2145,19.063 C26.2145,19.563 25.8145,19.963 25.3145,19.963 L7.3345,19.963 C6.8445,19.963 6.4345,19.563 6.4345,19.063 C6.4345,18.563 6.8445,18.163 7.3345,18.163 L25.3145,18.163 C25.8145,18.163 26.2145,18.563 26.2145,19.063 M21.7243,22.6631 C21.7243,23.1531 21.3143,23.5631 20.8253,23.5631 L7.3343,23.5631 C6.8443,23.5631 6.4343,23.1531 6.4343,22.6631 C6.4343,22.1631 6.8443,21.7631 7.3343,21.7631 L20.8253,21.7631 C21.3143,21.7631 21.7243,22.1631 21.7243,22.6631 M25.3142,36.1431 C25.3142,36.6431 24.9152,37.0431 24.4242,37.0431 L19.0242,37.0431 C18.5242,37.0431 18.1252,36.6431 18.1252,36.1431 C18.1252,35.6531 18.5242,35.2431 19.0242,35.2431 L24.4242,35.2431 C24.9152,35.2431 25.3142,35.6531 25.3142,36.1431 M17.6745,36.1431 C17.6745,36.6431 17.2745,37.0431 16.7745,37.0431 L14.9745,37.0431 C14.4845,37.0431 14.0745,36.6431 14.0745,36.1431 C14.0745,35.6531 14.4845,35.2431 14.9745,35.2431 L16.7745,35.2431 C17.2745,35.2431 17.6745,35.6531 17.6745,36.1431 M1.989,2 L2,41.536 L30.66,41.526 L30.649,7.75 L24.889,2 L1.989,2 Z M30.66,43.526 L1.989,43.526 C0.892,43.526 0,42.633 0,41.536 L0,1.979 C0,0.888 0.892,0 1.989,0 L25.303,0 C25.568,0 25.822,0.105 26.01,0.292 L32.355,6.627 C32.544,6.814 32.649,7.069 32.649,7.334 L32.649,41.536 C32.649,42.633 31.757,43.526 30.66,43.526 Z M28.9147,9.1729 C28.9147,9.6729 28.5147,10.0729 28.0147,10.0729 L23.5237,10.0729 C23.0237,10.0729 22.6247,9.6729 22.6247,9.1729 L22.6247,4.6729 C22.6247,4.1829 23.0237,3.7829 23.5237,3.7829 C24.0147,3.7829 24.4247,4.1829 24.4247,4.6729 L24.4247,8.2729 L28.0147,8.2729 C28.5147,8.2729 28.9147,8.6729 28.9147,9.1729"/>
    <linearGradient id="solution_brief-c" x1="50%" x2="50%" y1="97.784%" y2="1.559%">
      <stop offset="0%" stop-color="#1991EB"/>
      <stop offset="100%" stop-color="#2DA1F8"/>
    </linearGradient>
  </defs>
  <g fill="none" fill-rule="evenodd" transform="translate(15 13)">
    <mask id="solution_brief-b" fill="#fff">
      <use xlink:href="#solution_brief-a"/>
    </mask>
    <g fill="url(#solution_brief-c)" mask="url(#solution_brief-b)">
      <rect width="57" height="65" transform="translate(-12 -11)"/>
    </g>
  </g>
</svg>
