<svg xmlns="http://www.w3.org/2000/svg" xmlns:xlink="http://www.w3.org/1999/xlink" width="70" height="70" viewBox="0 0 70 70">
  <defs>
    <path id="video-a" d="M40.2664707,29.9343751 L3.7335293,29.9343751 C1.84887745,29.9290538 0.322390125,28.4054575 0.317058688,26.5243751 L0.317058688,3.63281243 C0.322408349,1.75330573 1.85044857,0.23249232 3.7335293,0.232499905 L40.2664707,0.232499905 C42.1495514,0.23249232 43.6775917,1.75330573 43.6829413,3.63281243 L43.6829413,26.5243751 C43.6776099,28.4054575 42.1511225,29.9290538 40.2664707,29.9343751 Z M3.7335293,2.10218742 C2.88500001,2.10217067 2.19563066,2.78590696 2.19029399,3.63281243 L2.19029399,26.5243751 C2.18247537,26.9379033 2.34160757,27.3371957 2.6318721,27.6323768 C2.92213662,27.9275579 3.31914258,28.0938237 3.7335293,28.0937501 L40.2664707,28.0937501 C40.6757622,28.0937501 41.0682901,27.9314676 41.3577029,27.642603 C41.6471156,27.3537384 41.809706,26.9619538 41.809706,26.5534376 L41.809706,3.63281243 C41.8043693,2.78590696 41.115,2.10217067 40.2664707,2.10218742 L3.7335293,2.10218742 Z M26.4938236,15.0834375 L22,17.67 L17.5061764,20.26625 L17.5061764,15.0834375 L17.5061764,9.90062497 L22,12.4871875 L26.4938236,15.0834375 Z"/>
    <linearGradient id="video-c" x1="50%" x2="50%" y1="97.784%" y2="1.559%">
      <stop offset="0%" stop-color="#1991EB"/>
      <stop offset="100%" stop-color="#2DA1F8"/>
    </linearGradient>
  </defs>
  <g fill="none" fill-rule="evenodd" transform="translate(13 20)">
    <mask id="video-b" fill="#fff">
      <use xlink:href="#video-a"/>
    </mask>
    <g fill="url(#video-c)" mask="url(#video-b)">
      <rect width="93.4" height="93.4" transform="translate(-24.588 -31)"/>
    </g>
  </g>
</svg>
