<svg xmlns="http://www.w3.org/2000/svg" xmlns:xlink="http://www.w3.org/1999/xlink" width="70" height="70" viewBox="0 0 70 70">
  <defs>
    <path id="workshop-a" d="M35.1696553,0.913428437 L2.50275852,0.913428437 C1.64519361,0.913428437 0.949999891,1.61071296 0.949999891,2.47085702 L0.949999891,21.2684286 C0.949999891,22.1285726 1.64519361,22.8258571 2.50275852,22.8258571 L11.9372413,22.8258571 L11.9372413,25.1521429 C11.9372127,25.6600493 12.3448521,26.0733111 12.8512069,26.0787143 L11.1805172,32.7125715 C11.1218065,32.9281581 11.169278,33.1589046 11.3082758,33.3335715 C11.443339,33.5129155 11.6541929,33.6186596 11.8782758,33.6194286 L13.3524138,33.6194286 C13.6400447,33.6152013 13.8981606,33.4413184 14.010862,33.1758572 L17.1163793,26.0787143 L20.6641379,26.0787143 L23.7696552,33.1857144 C23.8802819,33.4528887 24.1396763,33.6276328 24.4281035,33.6292858 L25.9022414,33.6292858 C26.1263243,33.6285167 26.3371783,33.5227727 26.4722414,33.3434286 C26.6090924,33.167816 26.6596444,32.9396477 26.6098276,32.7224286 L24.9293104,26.0787143 L25.342069,26.0787143 C25.8522659,26.0787143 26.2658621,25.6638741 26.2658621,25.1521429 L26.2658621,22.8258571 L35.1696553,22.8258571 C36.0272202,22.8258571 36.7224139,22.1285726 36.7224139,21.2684286 L36.7224139,2.47085702 C36.7224139,1.61071296 36.0272202,0.913428437 35.1696553,0.913428437 Z M12.8217241,32.2000001 L12.752931,32.2000001 L14.2762069,26.1674286 L15.4162069,26.2561429 L12.8217241,32.2000001 Z M13.4310345,24.6297143 L13.4310345,22.8258571 L24.8212069,22.8258571 L24.8212069,24.6297143 L13.4310345,24.6297143 Z M24.9686207,32.2000001 L24.8998276,32.2000001 L22.3053449,26.2857143 L23.4453449,26.197 L24.9686207,32.2000001 Z M35.2777587,21.3571429 C35.2778984,21.3850866 35.2662066,21.4117768 35.2455916,21.430574 C35.2249766,21.4493713 35.1973759,21.458509 35.1696553,21.4557143 L2.50275852,21.4557143 C2.47503785,21.458509 2.4474372,21.4493713 2.4268222,21.430574 C2.40620721,21.4117768 2.39451539,21.3850866 2.39465507,21.3571429 L2.39465507,2.47085702 C2.39451539,2.44291322 2.40620721,2.41622312 2.4268222,2.39742585 C2.4474372,2.37862858 2.47503785,2.36949082 2.50275852,2.37228559 L35.1696553,2.37228559 C35.1973759,2.36949082 35.2249766,2.37862858 35.2455916,2.39742585 C35.2662066,2.41622312 35.2778984,2.44291322 35.2777587,2.47085702 L35.2777587,21.3571429 Z M22.1087931,7.35999991 L16.2122414,17.0298571 C16.1034011,17.212735 15.920308,17.338765 15.7110345,17.3748571 C15.4998026,17.4036672 15.2861498,17.3429502 15.1213793,17.2072857 L9.99137926,12.8109999 L6.06034475,18.3408571 C5.92446326,18.5385631 5.70027232,18.6565251 5.46086199,18.6562857 C5.31256581,18.6529917 5.16871081,18.6048958 5.04810337,18.5182857 C4.74241946,18.2859258 4.66549098,17.8572601 4.87120681,17.5325714 L9.22482753,11.3422856 C9.34193111,11.1762324 9.52443704,11.0685531 9.72603443,11.0465714 C9.92831044,11.0161229 10.1336051,11.0775353 10.2862068,11.2141428 L15.3965517,15.5414285 L20.8705173,6.57142847 C20.968238,6.40784917 21.1274789,6.29059574 21.3123535,6.24609239 C21.4972281,6.20158905 21.6921803,6.23358046 21.8532759,6.33485704 C22.0264763,6.43334677 22.1518446,6.59875341 22.2001333,6.79248905 C22.2484219,6.98622469 22.2154079,7.19134597 22.1087931,7.35999991 Z M22.7574138,14.4177142 L24.7229311,14.4177142 L24.7229311,19.6518571 L22.7574138,19.6518571 L22.7574138,14.4177142 Z M25.8531035,10.4255714 L27.8186207,10.4255714 L27.8186207,19.6518571 L25.8531035,19.6518571 L25.8531035,10.4255714 Z M28.8406897,5.86171418 L30.806207,5.86171418 L30.806207,19.8588571 L28.8406897,19.8588571 L28.8406897,5.86171418 Z M31.9855173,12.4561428 L33.9510346,12.4561428 L33.9510346,19.8588571 L31.9855173,19.8588571 L31.9855173,12.4561428 Z M9.26413787,39.4548572 C10.759358,38.2936372 11.3530054,36.3073482 10.741239,34.5126142 C10.1294726,32.7178801 8.4476801,31.5118869 6.55663786,31.5118869 C4.66559561,31.5118869 2.98380313,32.7178801 2.37203672,34.5126142 C1.7602703,36.3073482 2.35391769,38.2936372 3.84913784,39.4548572 C2.50662109,39.6506432 1.51069571,40.8048583 1.51017231,42.1655716 L1.51017231,44.7087144 L11.6031034,44.7087144 L11.6031034,42.1557144 C11.5977133,40.7987449 10.602973,39.6500954 9.26413787,39.4548572 Z M3.36758611,35.9555715 C3.36761053,34.6540722 4.15033346,33.4811116 5.34992371,32.9849112 C6.54951397,32.4887108 7.92905093,32.7672708 8.84376286,33.6903971 C9.75847478,34.6135234 10.0277049,35.9988973 9.52561967,37.199019 C9.02353445,38.3991408 7.84929639,39.1769848 6.55172406,39.1690001 C4.7861571,39.1635679 3.35775022,37.7264568 3.35775853,35.9555715 L3.36758611,35.9555715 Z M10.3943103,43.4864287 L2.72879301,43.4864287 L2.72879301,42.1655716 C2.72877558,41.3255939 3.4047997,40.6431336 4.24224129,40.6377144 L8.87103442,40.6377144 C9.70847601,40.6431336 10.3845001,41.3255939 10.3844827,42.1655716 L10.3943103,43.4864287 Z M22.089138,39.5632858 C23.1814037,38.7338781 23.8218935,37.4380958 23.8187931,36.0640001 C23.8187931,33.6142227 21.838811,31.6282858 19.3963793,31.6282858 C16.9539476,31.6282858 14.9739655,33.6142227 14.9739655,36.0640001 C14.9708652,37.4380958 15.6113549,38.7338781 16.7036207,39.5632858 C15.3532992,39.75017 14.3469155,40.9067861 14.345,42.2740001 L14.345,44.817143 L24.4477587,44.817143 L24.4477587,42.2740001 C24.4458431,40.9067861 23.4394594,39.75017 22.089138,39.5632858 Z M16.1925862,36.0640001 C16.1925862,34.2892725 17.6269732,32.8505715 19.3963793,32.8505715 C21.1657854,32.8505715 22.6001724,34.2892725 22.6001724,36.0640001 C22.6001724,37.8387277 21.1657854,39.2774287 19.3963793,39.2774287 C17.6308124,39.2719965 16.2024055,37.8348854 16.2024138,36.0640001 L16.1925862,36.0640001 Z M23.2586207,43.6047144 L15.5734483,43.6047144 L15.5734483,42.2740001 C15.5734483,41.4356319 16.2510421,40.7560001 17.0868965,40.7560001 L21.7156897,40.7560001 C22.1221648,40.7480564 22.5147341,40.9044744 22.8049695,41.1900202 C23.095205,41.4755659 23.2586979,41.8662251 23.2586207,42.2740001 L23.2586207,43.6047144 Z M33.8134484,39.5632858 C34.9057142,38.7338781 35.5462039,37.4380958 35.5431036,36.0640001 C35.5431036,33.6142227 33.5631214,31.6282858 31.1206897,31.6282858 C28.678258,31.6282858 26.6982759,33.6142227 26.6982759,36.0640001 C26.6951756,37.4380958 27.3356653,38.7338781 28.4279311,39.5632858 C27.0776097,39.75017 26.071226,40.9067861 26.0693104,42.2740001 L26.0693104,44.817143 L36.1720691,44.817143 L36.1720691,42.2740001 C36.1701535,40.9067861 35.1637698,39.75017 33.8134484,39.5632858 Z M27.9168966,36.0640001 C27.9168966,34.2892725 29.3512837,32.8505715 31.1206897,32.8505715 C32.8900958,32.8505715 34.3244829,34.2892725 34.3244829,36.0640001 C34.3244829,37.8387277 32.8900958,39.2774287 31.1206897,39.2774287 C29.3551228,39.2719965 27.9267159,37.8348854 27.9267242,36.0640001 L27.9168966,36.0640001 Z M34.9436208,43.6047144 L27.2977587,43.6047144 L27.2977587,42.2740001 C27.2977587,41.4356319 27.9753526,40.7560001 28.811207,40.7560001 L33.4400001,40.7560001 C34.2758545,40.7560001 34.9534484,41.4356319 34.9534484,42.2740001 L34.9436208,43.6047144 Z"/>
    <linearGradient id="workshop-c" x1="50%" x2="50%" y1="97.784%" y2="1.559%">
      <stop offset="0%" stop-color="#1991EB"/>
      <stop offset="100%" stop-color="#2DA1F8"/>
    </linearGradient>
  </defs>
  <g fill="none" fill-rule="evenodd" transform="translate(17 13)">
    <mask id="workshop-b" fill="#fff">
      <use xlink:href="#workshop-a"/>
    </mask>
    <g fill="url(#workshop-c)" mask="url(#workshop-b)">
      <rect width="94.4" height="95.4" transform="translate(-28.828 -24.971)"/>
    </g>
  </g>
</svg>
