<?xml version="1.0" encoding="utf-8"?>
<!-- Generator: Adobe Illustrator 16.0.2, SVG Export Plug-In . SVG Version: 6.00 Build 0)  -->
<!DOCTYPE svg PUBLIC "-//W3C//DTD SVG 1.1//EN" "http://www.w3.org/Graphics/SVG/1.1/DTD/svg11.dtd">
<svg version="1.1" id="Layer_1" xmlns="http://www.w3.org/2000/svg" xmlns:xlink="http://www.w3.org/1999/xlink" x="0px" y="0px"
	 width="38px" height="38px" viewBox="-289.5 412.5 38 38" enable-background="new -289.5 412.5 38 38" xml:space="preserve">
<path fill="#1B4F91" d="M-251.5,446.5c0-2.232-2.498-4.075-5.719-4.359v-5.117c1.001-0.246,1.941-0.697,2.76-1.327
	c1.563-1.179,1.049-4.465,1.049-4.465s-0.126-0.137-2.477,1.243c-0.621,0.357-1.105,0.914-1.375,1.579v-2.2
	c1.002-0.246,1.941-0.698,2.76-1.328c1.564-1.179,1.05-4.465,1.05-4.465s-0.126-0.137-2.477,1.243
	c-0.621,0.358-1.104,0.914-1.374,1.579v-2.189c0.998-0.256,1.936-0.707,2.76-1.327c1.563-1.19,1.049-4.465,1.049-4.465
	s-0.125-0.137-2.477,1.243c-0.622,0.352-1.107,0.904-1.375,1.568v-1.947c0.448-0.615,0.711-1.346,0.756-2.106
	c0-1.675-1.764-3.159-1.764-3.159c-1.014,0.75-1.66,1.9-1.773,3.159c0.034,0.911,0.409,1.776,1.05,2.422v1.99
	c-0.241-0.795-0.773-1.468-1.489-1.886c-2.361-1.379-2.488-1.242-2.488-1.242s-0.472,3.275,1.103,4.465
	c0.849,0.654,1.831,1.114,2.875,1.348v2.485c-0.241-0.798-0.772-1.475-1.489-1.896c-2.361-1.379-2.488-1.242-2.488-1.242
	s-0.472,3.285,1.103,4.465c0.849,0.656,1.83,1.119,2.875,1.357v2.486c-0.241-0.799-0.772-1.475-1.489-1.896
	c-2.361-1.379-2.488-1.242-2.488-1.242s-0.472,3.285,1.103,4.465c0.896,0.648,1.925,1.087,3.012,1.285v5.043
	c-2.509,0.222-4.575,1.391-5.362,2.949c-0.798-1.559-2.855-2.728-5.373-2.949v-5.043c1.002-0.244,1.943-0.695,2.76-1.327
	c1.574-1.179,1.049-4.465,1.049-4.465s-0.137-0.137-2.486,1.243c-0.613,0.362-1.095,0.912-1.375,1.568v-2.189
	c1.002-0.244,1.943-0.695,2.76-1.328c1.574-1.179,1.049-4.465,1.049-4.465s-0.136-0.137-2.486,1.243
	c-0.615,0.364-1.098,0.919-1.375,1.579v-2.189c0.999-0.254,1.938-0.705,2.76-1.327c1.574-1.19,1.05-4.465,1.05-4.465
	s-0.136-0.137-2.487,1.243c-0.617,0.357-1.1,0.908-1.375,1.568v-1.947c0.451-0.614,0.717-1.346,0.767-2.106
	c0-1.675-1.774-3.159-1.774-3.159c-1.015,0.75-1.661,1.9-1.773,3.159c0.035,0.911,0.409,1.774,1.05,2.422v1.99
	c-0.25-0.794-0.785-1.466-1.501-1.886c-2.351-1.379-2.487-1.242-2.487-1.242s-0.472,3.275,1.05,4.465
	c0.852,0.656,1.837,1.115,2.886,1.348v2.485c-0.251-0.795-0.786-1.47-1.5-1.896c-2.351-1.379-2.487-1.242-2.487-1.242
	s-0.472,3.285,1.049,4.465c0.853,0.656,1.837,1.119,2.886,1.357v2.486c-0.249-0.797-0.784-1.473-1.501-1.896
	c-2.351-1.379-2.487-1.242-2.487-1.242s-0.472,3.285,1.05,4.465c0.967,0.682,2.083,1.121,3.253,1.285v5.043
	c-2.519,0.222-4.586,1.391-5.373,2.949c-0.787-1.559-2.854-2.728-5.373-2.949v-5.043c1.006-0.242,1.951-0.693,2.771-1.327
	c1.564-1.179,1.049-4.465,1.049-4.465s-0.126-0.137-2.487,1.243c-0.613,0.362-1.095,0.912-1.375,1.568v-2.189
	c1.006-0.242,1.951-0.694,2.771-1.328c1.564-1.179,1.049-4.465,1.049-4.465s-0.126-0.137-2.487,1.243
	c-0.616,0.364-1.098,0.919-1.375,1.579v-2.189c1.002-0.252,1.945-0.703,2.771-1.327c1.564-1.19,1.049-4.465,1.049-4.465
	s-0.125-0.137-2.487,1.243c-0.617,0.357-1.1,0.908-1.375,1.568v-1.947c0.451-0.614,0.717-1.346,0.766-2.106
	c0-1.675-1.773-3.159-1.773-3.159c-1.011,0.752-1.653,1.901-1.763,3.159c0.034,0.911,0.409,1.776,1.049,2.422v1.99
	c-0.246-0.796-0.781-1.469-1.5-1.886c-2.351-1.379-2.477-1.242-2.477-1.242s-0.472,3.275,1.049,4.465
	c0.854,0.653,1.838,1.113,2.886,1.348v2.485c-0.249-0.797-0.783-1.473-1.501-1.896c-2.351-1.379-2.477-1.242-2.477-1.242
	s-0.472,3.285,1.049,4.465c0.854,0.654,1.838,1.117,2.886,1.357v2.486c-0.246-0.799-0.781-1.476-1.501-1.896
	c-2.351-1.379-2.477-1.242-2.477-1.242s-0.472,3.285,1.049,4.465c0.947,0.668,2.036,1.107,3.18,1.285v5.043
	c-3.222,0.285-5.719,2.106-5.719,4.359h5.719h1.679h10.746h1.68h10.735h1.689L-251.5,446.5z"/>
</svg>
