<?xml version="1.0" encoding="utf-8"?>
<!-- Generator: Adobe Illustrator 16.0.2, SVG Export Plug-In . SVG Version: 6.00 Build 0)  -->
<!DOCTYPE svg PUBLIC "-//W3C//DTD SVG 1.1//EN" "http://www.w3.org/Graphics/SVG/1.1/DTD/svg11.dtd">
<svg version="1.1" id="Layer_1" xmlns="http://www.w3.org/2000/svg" xmlns:xlink="http://www.w3.org/1999/xlink" x="0px" y="0px"
	 width="40px" height="40px" viewBox="0 0 40 40" enable-background="new 0 0 40 40" xml:space="preserve">
<g>
	<path id="assessments-a" fill="#000000" d="M23.068,21.012c0,0.52-0.342,0.94-0.762,0.94H16.17
		c-0.294,0.041-0.582-0.13-0.739-0.439c-0.158-0.309-0.158-0.703,0-1.014c0.157-0.31,0.444-0.48,0.739-0.439h6.136
		c0.204,0,0.398,0.101,0.543,0.28C22.991,20.518,23.07,20.76,23.068,21.012z M15.398,21.016c0-0.53,0.345-0.958,0.771-0.958h6.137
		c0.391,0.055,0.687,0.464,0.687,0.954c0,0.488-0.296,0.897-0.687,0.952H16.17c-0.204,0.004-0.4-0.094-0.545-0.273
		C15.479,21.512,15.398,21.27,15.398,21.016z M28.443,3.181h-9.281C18.854,1.346,17.265,0,15.402,0
		c-1.862,0-3.451,1.346-3.758,3.181H2.363c-1.273,0-2.306,1.033-2.306,2.307v32.217c0,0.61,0.243,1.196,0.676,1.627
		C1.166,39.763,1.752,40.004,2.363,40h26.081c0.608,0,1.193-0.241,1.623-0.672c0.432-0.431,0.673-1.015,0.673-1.623V5.488
		c0.003-0.611-0.238-1.197-0.669-1.63C29.639,3.425,29.054,3.181,28.443,3.181z M9.262,4.716h3.068
		c0.203,0.002,0.398-0.076,0.543-0.22c0.144-0.144,0.226-0.339,0.229-0.542c-0.055-0.858,0.371-1.676,1.106-2.121
		c0.734-0.446,1.656-0.446,2.391,0c0.734,0.445,1.161,1.262,1.105,2.121c-0.001,0.203,0.078,0.397,0.22,0.542
		c0.146,0.14,0.34,0.219,0.543,0.22h3.077v2.305c0,0.421-0.342,0.763-0.763,0.763H10.033c-0.204,0.003-0.4-0.077-0.545-0.22
		C9.343,7.421,9.262,7.226,9.262,7.021V4.716z M10.033,9.318h10.738c0.972,0,1.837-0.616,2.154-1.534h3.211v27.634H4.659V7.784
		h3.211C8.191,8.704,9.059,9.319,10.033,9.318z M29.167,37.705c0,0.42-0.343,0.762-0.763,0.762H2.363
		c-0.204,0.002-0.4-0.077-0.546-0.221c-0.144-0.143-0.226-0.339-0.226-0.541V5.488c0-0.205,0.082-0.401,0.226-0.546
		c0.145-0.146,0.341-0.226,0.546-0.226h5.365V6.25H3.916c-0.204,0-0.4,0.082-0.543,0.229C3.229,6.624,3.147,6.818,3.145,7.021
		v29.149c0,0.203,0.081,0.399,0.227,0.542c0.146,0.145,0.342,0.223,0.546,0.221h22.991c0.201,0,0.393-0.079,0.535-0.221
		c0.145-0.143,0.229-0.339,0.229-0.542V7.021c0.004-0.205-0.079-0.403-0.229-0.542c-0.141-0.144-0.333-0.226-0.535-0.229h-3.812
		V4.716h5.375c0.203,0,0.398,0.081,0.542,0.227c0.145,0.146,0.222,0.342,0.221,0.546L29.167,37.705z M13.646,27.509l-3.079,3.03
		c-0.3,0.291-0.777,0.291-1.077,0l-1.534-1.533c-0.251-0.308-0.229-0.756,0.052-1.036c0.281-0.28,0.728-0.304,1.035-0.051
		l0.953,0.952l2.525-2.524c0.144-0.146,0.339-0.228,0.543-0.228s0.399,0.082,0.543,0.228c0.172,0.141,0.276,0.349,0.283,0.573
		C13.897,27.143,13.808,27.357,13.646,27.509z M13.646,21.372l-3.068,3.068c-0.146,0.139-0.34,0.219-0.543,0.219
		c-0.203,0.004-0.398-0.076-0.543-0.219l-1.534-1.525c-0.251-0.308-0.23-0.755,0.051-1.035c0.281-0.281,0.729-0.302,1.036-0.051
		l0.953,0.953l2.525-2.526c0.144-0.145,0.338-0.228,0.543-0.228c0.204,0,0.399,0.083,0.543,0.228c0.157,0.141,0.25,0.339,0.257,0.55
		C13.871,21.018,13.792,21.222,13.646,21.372z M13.646,15.235l-3.068,3.068c-0.146,0.14-0.34,0.219-0.543,0.219
		c-0.203,0.003-0.398-0.074-0.543-0.219l-1.534-1.534c-0.251-0.307-0.23-0.754,0.051-1.035c0.281-0.281,0.729-0.303,1.036-0.05
		l0.953,0.953l2.525-2.525c0.144-0.146,0.338-0.228,0.543-0.228c0.204,0,0.399,0.082,0.543,0.228c0.16,0.14,0.254,0.34,0.263,0.554
		C13.876,14.878,13.795,15.084,13.646,15.235z M20,30.216c0,0.519-0.341,0.94-0.762,0.94H16.17c-0.294,0.041-0.582-0.13-0.739-0.439
		c-0.158-0.311-0.158-0.704,0-1.013c0.157-0.311,0.444-0.481,0.739-0.441h3.068c0.204,0,0.4,0.101,0.543,0.281
		C19.923,29.722,20.004,29.965,20,30.216z M20,24.051c0,0.521-0.341,0.941-0.762,0.941H16.17c-0.294,0.04-0.582-0.132-0.739-0.44
		c-0.158-0.309-0.158-0.704,0-1.013c0.157-0.311,0.444-0.481,0.739-0.44h3.068c0.204,0,0.4,0.1,0.543,0.281
		C19.923,23.557,20.004,23.8,20,24.051z M20,17.943c0,0.519-0.341,0.941-0.762,0.941H16.17c-0.294,0.041-0.582-0.132-0.739-0.44
		c-0.158-0.31-0.158-0.703,0-1.013c0.157-0.31,0.444-0.48,0.739-0.44h3.068c0.204,0,0.4,0.101,0.543,0.28
		C19.923,17.448,20.004,17.69,20,17.943z M23.068,27.147c0,0.521-0.342,0.942-0.762,0.942H16.17
		c-0.294,0.04-0.582-0.132-0.739-0.441c-0.158-0.309-0.158-0.703,0-1.013c0.157-0.311,0.444-0.48,0.739-0.44h6.136
		c0.204,0,0.398,0.1,0.543,0.281C22.991,26.653,23.07,26.896,23.068,27.147z M23.068,21.012c0,0.52-0.342,0.94-0.762,0.94H16.17
		c-0.294,0.041-0.582-0.13-0.739-0.439c-0.158-0.309-0.158-0.703,0-1.014c0.157-0.31,0.444-0.48,0.739-0.439h6.136
		c0.204,0,0.398,0.101,0.543,0.28C22.991,20.518,23.07,20.76,23.068,21.012z M23.068,14.875c0,0.519-0.342,0.941-0.762,0.941H16.17
		c-0.294,0.041-0.582-0.131-0.739-0.44c-0.158-0.309-0.158-0.703,0-1.014c0.157-0.31,0.444-0.48,0.739-0.44h6.136
		c0.204,0,0.398,0.101,0.543,0.28C22.991,14.38,23.07,14.623,23.068,14.875z M16.532,4.134c0,0.527-0.427,0.954-0.953,0.954
		c-0.527,0-0.953-0.427-0.953-0.954c0-0.526,0.426-0.953,0.953-0.953c0.254-0.003,0.498,0.096,0.677,0.276
		C16.436,3.637,16.534,3.881,16.532,4.134z M37.523,9.394c-0.296-0.957-1.18-1.609-2.183-1.61h-0.762
		c-1.274,0-2.307,1.033-2.307,2.305v21.479l0.057,0.295l1.905,4.604c0.122,0.284,0.404,0.47,0.715,0.468
		c0.308,0,0.586-0.184,0.705-0.468l1.905-4.604l0.066-0.295V11.071c0.491,0.276,0.791,0.799,0.781,1.362v5.374
		c0.045,0.391,0.374,0.686,0.769,0.686c0.393,0,0.724-0.295,0.767-0.686v-5.374C39.963,10.973,38.951,9.703,37.523,9.394z
		 M36.113,31.416L34.96,34.17l-1.151-2.754V20.057h2.306L36.113,31.416L36.113,31.416z M36.113,18.524h-2.306V10.09
		c0-0.427,0.346-0.772,0.771-0.772h0.762c0.426,0.005,0.769,0.348,0.772,0.772V18.524z"/>
</g>
</svg>
