<?xml version="1.0" encoding="utf-8"?>
<!-- Generator: Adobe Illustrator 16.0.2, SVG Export Plug-In . SVG Version: 6.00 Build 0)  -->
<!DOCTYPE svg PUBLIC "-//W3C//DTD SVG 1.1//EN" "http://www.w3.org/Graphics/SVG/1.1/DTD/svg11.dtd">
<svg version="1.1" id="Layer_1" xmlns="http://www.w3.org/2000/svg" xmlns:xlink="http://www.w3.org/1999/xlink" x="0px" y="0px"
	 width="70px" height="70px" viewBox="0 0 70 70" enable-background="new 0 0 70 70" xml:space="preserve">
<g>
	<path fill="#1B4F91" d="M51.736,66.63c0,0.615-0.512,1.123-1.123,1.123c-0.63,0-1.123-0.508-1.123-1.123v-4.473
		c0-0.632,0.493-1.124,1.123-1.124c0.611,0,1.123,0.492,1.123,1.124V66.63z M47.243,66.63c0,0.615-0.491,1.123-1.123,1.123
		c-0.611,0-1.123-0.508-1.123-1.123v-4.473c0-0.632,0.512-1.124,1.123-1.124c0.632,0,1.123,0.492,1.123,1.124V66.63z M42.767,66.63
		c0,0.615-0.508,1.123-1.12,1.123c-0.631,0-1.123-0.508-1.123-1.123v-4.473c0-0.632,0.492-1.124,1.123-1.124
		c0.612,0,1.12,0.492,1.12,1.124V66.63z M38.277,66.63c0,0.615-0.494,1.123-1.124,1.123c-0.611,0-1.123-0.508-1.123-1.123v-4.473
		c0-0.632,0.512-1.124,1.123-1.124c0.63,0,1.124,0.492,1.124,1.124V66.63z M33.802,66.63c0,0.615-0.511,1.123-1.124,1.123
		c-0.614,0-1.123-0.508-1.123-1.123v-4.473c0-0.632,0.509-1.124,1.123-1.124c0.612,0,1.124,0.492,1.124,1.124V66.63z M25.958,65.509
		H14.744c-0.614,0-1.123-0.494-1.123-1.124c0-0.612,0.509-1.123,1.123-1.123h11.213c0.613,0,1.123,0.511,1.123,1.123
		C27.081,65.015,26.57,65.509,25.958,65.509z M8.023,67.753c-1.854,0-3.369-1.514-3.369-3.368s1.515-3.352,3.369-3.352
		c1.854,0,3.367,1.497,3.367,3.352S9.876,67.753,8.023,67.753z M2.425,70h51.54V58.787H2.425V70z M53.863,56.54H2.527L6.815,7.229
		h29.54c-0.698,1.735-1.072,3.641-1.072,5.632c0,8.389,6.807,15.195,15.194,15.195c0.511,0,1.004-0.018,1.498-0.084L53.863,56.54z"
		/>
	<path fill="#1B4F91" d="M51.584,21.965c-0.409,0.034-0.801,0.034-1.21,0.018c-5.138-0.238-9.119-4.645-8.884-9.784
		c0.104-1.854,0.715-3.556,1.738-4.969c1.786-2.501,4.779-4.083,8.066-3.914c5.154,0.256,9.136,4.646,8.881,9.801
		C59.938,17.847,56.193,21.608,51.584,21.965 M67.17,29.367l-5.463-6.279l-1.599-1.838c2.023-2.178,3.213-4.985,3.366-7.98
		c0.343-6.959-5.052-12.898-12.011-13.255c-5.258-0.255-9.92,2.739-12.047,7.215c-0.698,1.463-1.123,3.08-1.208,4.798
		c-0.341,6.959,5.036,12.915,12.012,13.255c0.529,0.034,1.054,0.017,1.582-0.017c2.044-0.153,3.998-0.8,5.753-1.906l1.665,1.906
		l5.464,6.261c0.289,0.341,0.714,0.545,1.156,0.562c0.426,0.017,0.851-0.119,1.173-0.409C67.697,31.086,67.765,30.047,67.17,29.367"
		/>
</g>
</svg>
