<?xml version="1.0" encoding="utf-8"?>
<!-- Generator: Adobe Illustrator 16.0.2, SVG Export Plug-In . SVG Version: 6.00 Build 0)  -->
<!DOCTYPE svg PUBLIC "-//W3C//DTD SVG 1.1//EN" "http://www.w3.org/Graphics/SVG/1.1/DTD/svg11.dtd">
<svg version="1.1" id="Layer_1" xmlns="http://www.w3.org/2000/svg" xmlns:xlink="http://www.w3.org/1999/xlink" x="0px" y="0px"
	 width="40px" height="40px" viewBox="15 15 40 40" enable-background="new 15 15 40 40" xml:space="preserve">
<g>
	<path id="blogs-a" fill="#144A8D" d="M21.913,31.954h21.524c0.423,0,0.767-0.341,0.767-0.76c0-0.42-0.344-0.76-0.767-0.76H21.913
		c-0.423,0-0.767,0.34-0.767,0.76C21.146,31.613,21.49,31.954,21.913,31.954z M21.913,28.907h21.524c0.423,0,0.767-0.34,0.767-0.76
		c0-0.419-0.344-0.759-0.767-0.759H21.913c-0.423,0-0.767,0.34-0.767,0.759C21.146,28.567,21.49,28.907,21.913,28.907z M38.09,34.24
		c0-0.419-0.344-0.76-0.766-0.76H21.913c-0.423,0-0.767,0.341-0.767,0.76c0,0.42,0.343,0.76,0.767,0.76H37.29
		c0.203,0,0.398-0.08,0.542-0.223s0.224-0.336,0.224-0.537H38.09z M55,30.435c0.002-0.202-0.078-0.396-0.222-0.54l-3.107-3.046
		c-0.144-0.146-0.34-0.229-0.545-0.229s-0.402,0.083-0.546,0.229l-0.22,0.219v-4.219c-0.006-1.684-1.385-3.046-3.084-3.046H18.073
		c-1.698,0-3.073,1.363-3.073,3.046v16.724c0.009,1.677,1.382,3.03,3.073,3.03h3.073v5.333c0.001,0.308,0.19,0.584,0.477,0.701
		c0.091,0.039,0.19,0.06,0.29,0.058c0.204,0.002,0.4-0.077,0.545-0.219l5.96-5.907h6.283l-1.762,1.747
		c-0.094,0.091-0.161,0.203-0.196,0.328l-1.345,4.565c-0.083,0.274-0.004,0.57,0.204,0.769c0.146,0.135,0.337,0.21,0.537,0.211
		c0.082,0.012,0.165,0.012,0.247,0l4.419-1.527c0.109-0.035,0.209-0.097,0.289-0.177l5.96-5.907h4.257
		c1.699,0,3.078-1.363,3.084-3.046v-4.22l4.384-4.346c0.128-0.147,0.194-0.337,0.188-0.531H55z M28.061,41.101
		c-0.201-0.002-0.395,0.077-0.537,0.219l-4.836,4.793v-4.219c-0.002-0.203-0.084-0.397-0.23-0.54
		c-0.145-0.142-0.341-0.222-0.545-0.22h-3.84c-0.849-0.004-1.537-0.686-1.541-1.527V22.815c0.004-0.842,0.692-1.523,1.541-1.528
		h29.203c0.85,0.005,1.537,0.687,1.542,1.528v5.78L36.2,41.101H28.061z M33.254,48.272l0.562-1.915l1.294,1.308L33.254,48.272z
		 M48.818,39.572c-0.005,0.842-0.692,1.523-1.542,1.528h-2.75l4.258-4.219L48.818,39.572z M36.523,46.872l-1.992-1.966
		l14.287-14.117l1.984,1.966L36.523,46.872z M51.849,31.684l-1.982-1.975l1.294-1.249l1.984,1.975L51.849,31.684z"/>
</g>
</svg>
