<?xml version="1.0" encoding="utf-8"?>
<!-- Generator: Adobe Illustrator 16.0.2, SVG Export Plug-In . SVG Version: 6.00 Build 0)  -->
<!DOCTYPE svg PUBLIC "-//W3C//DTD SVG 1.1//EN" "http://www.w3.org/Graphics/SVG/1.1/DTD/svg11.dtd">
<svg version="1.1" id="Layer_1" xmlns="http://www.w3.org/2000/svg" xmlns:xlink="http://www.w3.org/1999/xlink" x="0px" y="0px"
	 width="34px" height="34px" viewBox="-287.5 414.5 34 34" enable-background="new -287.5 414.5 34 34" xml:space="preserve">
<path fill="#1B4F91" d="M-276.954,440.66c0.669,0.01,1.308,0.288,1.772,0.771c0.505,0.48,0.782,1.152,0.761,1.849
	c-0.085,1.381-1.231,2.458-2.614,2.458c-1.384,0-2.529-1.077-2.615-2.458c0.005-1.443,1.175-2.614,2.62-2.62h-1.31
	c-0.717-0.016-1.294-0.593-1.31-1.31c0.027-0.282,0.103-0.557,0.224-0.813c0.152-0.345,0.334-0.742,0.599-1.208
	c0.264-0.468,0.426-0.731,0.426-0.782l-3.615-16.826h-4.174c-0.348,0.002-0.682-0.137-0.924-0.387
	c-0.248-0.244-0.387-0.577-0.386-0.925c0-0.344,0.139-0.674,0.386-0.914c0.239-0.255,0.574-0.398,0.924-0.395h5.23
	c0.204-0.002,0.405,0.044,0.589,0.131c0.154,0.083,0.291,0.194,0.406,0.325c0.119,0.148,0.208,0.317,0.264,0.498
	c0.065,0.174,0.116,0.354,0.152,0.537c0.021,0.163,0.061,0.367,0.112,0.61c0.051,0.244,0.102,0.426,0.102,0.519h24.544
	c0.35-0.004,0.686,0.14,0.924,0.395c0.241,0.242,0.374,0.573,0.366,0.914v10.471c0.002,0.319-0.117,0.629-0.335,0.863
	c-0.21,0.249-0.509,0.409-0.833,0.445l-21.326,2.489l0.091,0.446c0.051,0.192,0.122,0.376,0.122,0.538
	c0.039,0.15,0.06,0.304,0.061,0.458c-0.091,0.456-0.256,0.896-0.487,1.299h18.796c0.348-0.004,0.683,0.137,0.924,0.387
	c0.248,0.243,0.387,0.576,0.386,0.924c-0.001,0.347-0.14,0.679-0.386,0.924c-0.242,0.25-0.576,0.39-0.924,0.386H-276.954z
	 M-256.09,443.28c0.006,0.698-0.272,1.37-0.771,1.858c-1.028,1.014-2.679,1.014-3.707,0c-0.504-0.485-0.786-1.158-0.782-1.858
	c-0.016-0.695,0.26-1.365,0.762-1.849c0.751-0.741,1.875-0.963,2.852-0.559c0.976,0.402,1.617,1.351,1.626,2.407H-256.09z
	 M-260.975,429.937c0.454-0.048,0.798-0.431,0.798-0.889c0-0.456-0.344-0.839-0.798-0.889h-11.343
	c-0.454,0.05-0.799,0.433-0.799,0.889c0,0.458,0.345,0.841,0.799,0.889H-260.975z M-260.285,425.326
	c0.237,0,0.463-0.095,0.629-0.263c0.166-0.167,0.258-0.396,0.255-0.632c0-0.231-0.093-0.456-0.26-0.62
	c-0.166-0.164-0.391-0.254-0.624-0.252h-12.724c-0.234-0.002-0.458,0.088-0.625,0.252c-0.166,0.164-0.259,0.389-0.259,0.62
	c-0.002,0.236,0.089,0.465,0.255,0.632c0.166,0.168,0.392,0.263,0.628,0.263H-260.285z"/>
</svg>
