<?xml version="1.0" encoding="utf-8"?>
<!-- Generator: Adobe Illustrator 16.0.2, SVG Export Plug-In . SVG Version: 6.00 Build 0)  -->
<!DOCTYPE svg PUBLIC "-//W3C//DTD SVG 1.1//EN" "http://www.w3.org/Graphics/SVG/1.1/DTD/svg11.dtd">
<svg version="1.1" id="Layer_1" xmlns="http://www.w3.org/2000/svg" xmlns:xlink="http://www.w3.org/1999/xlink" x="0px" y="0px"
	 width="400px" height="400px" viewBox="106 196 400 400" enable-background="new 106 196 400 400" xml:space="preserve">
<title>contact</title>
<path d="M497.233,511.778l-61.773-61.773c-12.758-12.249-33.023-11.857-45.301,0.874l-31.073,31.074l-6.115-3.37
	c-27.56-14.154-52.807-32.417-74.876-54.16c-21.746-22.098-40.046-47.337-54.285-74.877l-3.245-5.99l20.841-20.839l10.232-10.234
	c12.747-12.319,13.137-32.625,0.873-45.425l-61.772-61.647c-12.757-12.25-33.023-11.859-45.3,0.873l-17.471,17.472l0,0
	c-5.986,7.568-10.823,15.978-14.351,24.958c-3.187,8.27-5.326,16.907-6.364,25.708C99.14,341.933,129.964,403.582,213.7,487.443
	C330.134,603.877,423.479,595.39,427.473,595.39c8.808-1.069,17.446-3.25,25.707-6.49c8.939-3.561,17.341-8.349,24.959-14.227l0,0
	l17.597-17.347c12.987-12.043,13.752-32.336,1.707-45.324C497.375,511.927,497.303,511.852,497.233,511.778z"/>
</svg>
