<?xml version="1.0" encoding="utf-8"?>
<!-- Generator: Adobe Illustrator 16.0.2, SVG Export Plug-In . SVG Version: 6.00 Build 0)  -->
<!DOCTYPE svg PUBLIC "-//W3C//DTD SVG 1.1//EN" "http://www.w3.org/Graphics/SVG/1.1/DTD/svg11.dtd">
<svg version="1.1" id="Layer_1" xmlns="http://www.w3.org/2000/svg" xmlns:xlink="http://www.w3.org/1999/xlink" x="0px" y="0px"
	 width="40px" height="40px" viewBox="15 15 40 40" enable-background="new 15 15 40 40" xml:space="preserve">
<path fill="#144A8D" d="M42.624,29.96v-7.426c0-2.828-3.796-4.309-7.55-4.309c-3.757,0-7.658,1.433-7.658,4.578v7.08h-3.25v-7.089
	c0-5.358,5.653-7.792,10.896-7.792c2.483-0.049,4.938,0.537,7.123,1.702c2.202,1.111,3.612,3.328,3.667,5.771l0.059,7.417
	L42.624,29.96z M37.292,46.428c0,0.886-1.022,1.588-2.297,1.588s-2.296-0.702-2.296-1.588v-5.386c0-0.875,1.031-1.578,2.296-1.578
	s2.297,0.703,2.297,1.578V46.428z M48.889,34.712c-0.028-0.542-0.273-1.051-0.684-1.412c-0.409-0.361-0.948-0.546-1.495-0.512
	H23.281c-0.547-0.034-1.084,0.15-1.493,0.512c-0.408,0.362-0.652,0.87-0.677,1.412v13.64c0,1.039,0.506,6.733,8.104,6.646h11.978
	c7.276-0.067,7.695-5.607,7.695-6.646V34.712z"/>
</svg>
