<?xml version="1.0" encoding="utf-8"?>
<!-- Generator: Adobe Illustrator 16.0.2, SVG Export Plug-In . SVG Version: 6.00 Build 0)  -->
<!DOCTYPE svg PUBLIC "-//W3C//DTD SVG 1.1//EN" "http://www.w3.org/Graphics/SVG/1.1/DTD/svg11.dtd">
<svg version="1.1" id="Layer_1" xmlns="http://www.w3.org/2000/svg" xmlns:xlink="http://www.w3.org/1999/xlink" x="0px" y="0px"
	 width="400px" height="400px" viewBox="106 196 400 400" enable-background="new 106 196 400 400" xml:space="preserve">
<title>date</title>
<path d="M483.203,261.658c-5.23-5.468-12.497-8.521-20.064-8.429h-28.614V231.74c0-19.672-15.946-35.619-35.618-35.619h-14.248
	c-9.525-0.115-18.677,3.708-25.29,10.566c-6.818,6.581-10.603,15.696-10.446,25.17v21.491h-85.842V231.74
	c0.156-9.476-3.628-18.592-10.448-25.171c-6.612-6.859-15.763-10.682-25.29-10.567h-14.247c-19.672,0-35.619,15.947-35.619,35.619
	v21.489h-28.496c-7.608-0.125-14.925,2.931-20.183,8.43c-5.422,5.265-8.466,12.509-8.431,20.065v285.9
	c0.129,15.729,12.884,28.43,28.614,28.494h314.04c15.729-0.064,28.482-12.766,28.612-28.494V281.724
	C491.669,274.168,488.626,266.923,483.203,261.658z M213.095,567.506h-64.233v-64.352h64.233V567.506z M213.095,488.906h-64.233
	v-71.237h64.233V488.906z M213.095,403.184h-64.233v-64.233h64.233V403.184z M208.108,301.077c-1.364-1.3-2.136-3.102-2.136-4.987
	v-64.35c0.122-3.883,3.241-7.001,7.124-7.125h14.247c1.926-0.033,3.778,0.742,5.106,2.138c1.288,1.341,2.01,3.127,2.018,4.987v64.35
	c-0.007,1.86-0.73,3.646-2.018,4.987c-1.328,1.394-3.18,2.17-5.106,2.136h-14.247C211.211,303.214,209.407,302.441,208.108,301.077z
	 M298.817,567.506h-71.237v-64.352h71.237V567.506z M298.817,488.906h-71.237v-71.237h71.237V488.906z M298.817,403.184h-71.237
	v-64.233h71.237V403.184z M384.54,567.506h-71.237v-64.352h71.237V567.506z M384.54,488.907h-71.237v-71.238h71.237V488.907z
	 M384.54,403.184h-71.237v-64.233h71.237V403.184z M379.434,301.077c-1.288-1.341-2.011-3.127-2.019-4.987v-64.35
	c0.008-1.86,0.73-3.646,2.019-4.987c1.327-1.396,3.179-2.17,5.105-2.138h14.247c3.883,0.124,7,3.242,7.124,7.125v64.35
	c-0.124,3.882-3.241,7.001-7.124,7.124H384.54C382.613,303.248,380.761,302.471,379.434,301.077L379.434,301.077z M462.545,567.506
	h-63.758v-64.352h64.233L462.545,567.506z M462.545,488.907h-63.758v-71.238h64.233L462.545,488.907z M462.545,403.184h-63.758
	v-64.233h64.233L462.545,403.184z"/>
</svg>
