<?xml version="1.0" encoding="utf-8"?>
<!-- Generator: Adobe Illustrator 16.0.2, SVG Export Plug-In . SVG Version: 6.00 Build 0)  -->
<!DOCTYPE svg PUBLIC "-//W3C//DTD SVG 1.1//EN" "http://www.w3.org/Graphics/SVG/1.1/DTD/svg11.dtd">
<svg version="1.1" id="Layer_1" xmlns="http://www.w3.org/2000/svg" xmlns:xlink="http://www.w3.org/1999/xlink" x="0px" y="0px"
	 width="70px" height="70px" viewBox="0 0 70 70" enable-background="new 0 0 70 70" xml:space="preserve">
<g>
	<path fill="#1B4F91" d="M38.616,65.526c-0.601-1.531-0.586-3.212-0.256-4.805c0.301-1.426,0.945-2.72,1.591-4.01h-0.66v-6.609
		h2.869v3.004c0.391,1.111,0.467,2.09,0.54,3.364c0.827-1.006,1.652-2.114,2.403-3.303v-35.34H33.312v-4.206h-3.784v-1.697h-2.373
		V9.896h-3.454V0h-0.599v9.896h-3.456v2.029h-2.374v1.695h-4.145v55.541H41.38C40.178,68.155,39.2,66.94,38.616,65.526z
		 M39.291,23.146h2.869v6.608h-2.869V23.146z M39.291,32.141h2.869v6.594h-2.869V32.141z M39.291,41.122h2.869v6.607h-2.869V41.122z
		 M19.901,61.247h-2.852V54.64h2.852V61.247z M19.901,52.177h-2.852v-6.595h2.852V52.177z M19.901,43.105h-2.852v-6.594h2.852
		V43.105z M19.901,34.048h-2.852V27.44h2.852V34.048z M19.901,24.977h-2.852v-6.608h2.852V24.977z M24.842,61.247h-2.867V54.64
		h2.867V61.247z M24.842,52.177h-2.867v-6.595h2.867V52.177z M24.842,43.105h-2.867v-6.594h2.867V43.105z M24.842,34.048h-2.867
		V27.44h2.867V34.048z M24.842,24.977h-2.867v-6.608h2.867V24.977z M29.769,61.247H26.9V54.64h2.869V61.247z M29.769,52.177H26.9
		v-6.595h2.869V52.177z M29.769,43.105H26.9v-6.594h2.869V43.105z M29.769,34.048H26.9V27.44h2.869V34.048z M29.769,24.977H26.9
		v-6.608h2.869V24.977z M37.549,56.712H34.68v-6.609h2.869V56.712z M37.549,47.729H34.68v-6.607h2.869V47.729z M37.549,38.734H34.68
		v-6.594h2.869V38.734z M37.549,29.754H34.68v-6.608h2.869V29.754z"/>
	<path fill="#1B4F91" d="M52.51,53.133c0.495,1.067,0.586,2.869-0.391,3.755c-1.487-5.673-4.922-7.312-5.614-7.583
		c-0.076-0.032-0.12-0.045-0.12-0.045c0.015,0.074,0.015,0.15,0.027,0.24c0.012-0.022,0.022-0.046,0.031-0.069
		c-0.011,0.023-0.021,0.047-0.031,0.067c0.225,1.998-0.556,4.116-1.683,6.055c-0.674,1.156-1.457,2.235-2.237,3.197
		c-0.074-1.199-0.15-2.056-0.704-3.168c-0.032-0.091-0.092-0.179-0.137-0.27c-0.017,0.27-0.061,0.54-0.104,0.795
		c-0.434,2.013-1.894,3.755-2.312,5.856c-0.527,2.568,0.117,4.599,2.658,6.593c0.616,0.481,1.336,0.962,2.191,1.443
		c-0.256-0.526-0.418-0.991-0.539-1.443c-0.554-2.028,0.09-3.361,0.948-4.641c0.089-0.12,0.162-0.255,0.237-0.375
		c0.964-1.561,1.202-3.004,1.202-3.004s0.916,1.188,0.54,3.049c1.606-1.803,1.908-4.671,1.668-5.767
		c3.603,2.55,5.151,8.078,3.077,12.178C62.271,63.664,53.967,54.2,52.51,53.133z"/>
</g>
</svg>
