<?xml version="1.0" encoding="utf-8"?>
<!-- Generator: Adobe Illustrator 16.0.2, SVG Export Plug-In . SVG Version: 6.00 Build 0)  -->
<!DOCTYPE svg PUBLIC "-//W3C//DTD SVG 1.1//EN" "http://www.w3.org/Graphics/SVG/1.1/DTD/svg11.dtd">
<svg version="1.1" id="Layer_1" xmlns="http://www.w3.org/2000/svg" xmlns:xlink="http://www.w3.org/1999/xlink" x="0px" y="0px"
	 width="40px" height="40px" viewBox="0 0 40 40" enable-background="new 0 0 40 40" xml:space="preserve">
<g>
	<g>
		<path fill="#144A8D" d="M34.282,18.813c-0.652,0.201-1.347,0.312-2.067,0.312c-3.847,0-6.966-3.106-6.966-6.938
			c0-1.642,0.577-3.147,1.533-4.336H7.564c-1.953,0-3.536,1.555-3.536,3.463v17.23h30.254L34.282,18.813L34.282,18.813z
			 M19.152,8.932c0.255,0,0.457,0.197,0.457,0.44c0,0.248-0.202,0.446-0.457,0.446c-0.248,0-0.452-0.197-0.452-0.446
			C18.7,9.128,18.904,8.932,19.152,8.932z"/>
		<path fill="#144A8D" d="M0,32.98C0,34.428,1.197,35.6,2.677,35.6h32.955c1.481,0,2.681-1.172,2.681-2.619v-3.269H0V32.98z
			 M13.975,31.479h10.362c0.521,0,0.938,0.414,0.938,0.924c0,0.509-0.42,0.925-0.938,0.925H13.975c-0.521,0-0.943-0.416-0.943-0.925
			C13.029,31.893,13.453,31.479,13.975,31.479z"/>
	</g>
	<ellipse display="none" fill="none" stroke="#144A8D" stroke-width="1.616" cx="32.215" cy="12.185" rx="6.967" ry="6.938"/>
	<path fill="#144A8D" d="M32.215,4.4c-4.301,0-7.781,3.486-7.781,7.785s3.482,7.783,7.781,7.783c4.301,0,7.785-3.484,7.785-7.783
		S36.516,4.4,32.215,4.4z M32.215,18.238c-3.343,0-6.054-2.709-6.054-6.053c0-3.345,2.711-6.055,6.054-6.055
		c3.346,0,6.055,2.71,6.055,6.055C38.27,15.529,35.561,18.238,32.215,18.238z"/>
	<g>
		<path id="disaster_recovery-a" fill="#144A8D" d="M36.32,10.219l-5,5.256c-0.322,0.338-0.844,0.338-1.164,0l-2.09-2.195
			c-0.321-0.338-0.321-0.887,0-1.225c0.322-0.338,0.845-0.338,1.164,0l1.506,1.584l4.418-4.645c0.32-0.34,0.843-0.34,1.166,0
			C36.641,9.332,36.641,9.88,36.32,10.219"/>
	</g>
</g>
</svg>
