<?xml version="1.0" encoding="utf-8"?>
<!-- Generator: Adobe Illustrator 16.0.2, SVG Export Plug-In . SVG Version: 6.00 Build 0)  -->
<!DOCTYPE svg PUBLIC "-//W3C//DTD SVG 1.1//EN" "http://www.w3.org/Graphics/SVG/1.1/DTD/svg11.dtd">
<svg version="1.1" id="Layer_1" xmlns="http://www.w3.org/2000/svg" xmlns:xlink="http://www.w3.org/1999/xlink" x="0px" y="0px"
	 width="40px" height="40px" viewBox="15 15 40 40" enable-background="new 15 15 40 40" xml:space="preserve">
<g>
	<g>
		<path fill="#144A8D" d="M49.302,33.811c-0.652,0.202-1.348,0.312-2.068,0.312c-3.849,0-6.97-3.109-6.97-6.942
			c0-1.643,0.577-3.15,1.534-4.339H22.57c-1.954,0-3.538,1.554-3.538,3.465v17.239h30.271L49.302,33.811L49.302,33.811z
			 M34.165,23.925c0.253,0,0.457,0.197,0.457,0.441c0,0.248-0.203,0.447-0.457,0.447c-0.25,0-0.453-0.198-0.453-0.447
			C33.711,24.122,33.915,23.925,34.165,23.925z"/>
		<path fill="#144A8D" d="M15,47.988c0,1.447,1.198,2.619,2.678,2.619h32.974c1.481,0,2.681-1.172,2.681-2.619v-3.27H15V47.988z
			 M28.982,46.484h10.37c0.52,0,0.939,0.414,0.939,0.924s-0.42,0.924-0.939,0.924h-10.37c-0.521,0-0.944-0.414-0.944-0.924
			S28.46,46.484,28.982,46.484z"/>
	</g>
	<g>
		<path id="disaster_recovery-a" fill="#1B4F91" d="M51.341,25.213l-5.003,5.259c-0.322,0.339-0.843,0.339-1.164,0l-2.092-2.195
			c-0.321-0.339-0.321-0.887,0-1.226c0.323-0.337,0.846-0.337,1.166,0l1.507,1.585l4.42-4.646c0.321-0.339,0.843-0.339,1.166,0
			C51.662,24.326,51.662,24.875,51.341,25.213"/>
	</g>
</g>
<path fill="#0F407E" d="M47.21,19.392c-4.302,0-7.787,3.487-7.787,7.788c0,4.302,3.486,7.789,7.787,7.789
	c4.303,0,7.79-3.487,7.79-7.789C55,22.879,51.514,19.392,47.21,19.392z M47.21,33.238c-3.344,0-6.057-2.711-6.057-6.058
	c0-3.345,2.713-6.058,6.057-6.058c3.347,0,6.059,2.712,6.059,6.058C53.269,30.526,50.557,33.238,47.21,33.238z"/>
</svg>
