<?xml version="1.0" encoding="utf-8"?>
<!-- Generator: Adobe Illustrator 16.0.2, SVG Export Plug-In . SVG Version: 6.00 Build 0)  -->
<!DOCTYPE svg PUBLIC "-//W3C//DTD SVG 1.1//EN" "http://www.w3.org/Graphics/SVG/1.1/DTD/svg11.dtd">
<svg version="1.1" id="Layer_1" xmlns="http://www.w3.org/2000/svg" xmlns:xlink="http://www.w3.org/1999/xlink" x="0px" y="0px"
	 width="400px" height="400px" viewBox="106 196 400 400" enable-background="new 106 196 400 400" xml:space="preserve">
<title>document</title>
<path d="M461.718,196H150.283c-6.843,0-12.389,5.547-12.389,12.388l0,0v375.224c0,6.842,5.546,12.389,12.389,12.389h311.434
	c6.674-0.39,11.999-5.716,12.388-12.389V208.387C473.717,201.715,468.391,196.388,461.718,196z M346.924,478.438h-153.28
	c-4.482-0.352-7.872-4.207-7.644-8.699c-0.15-4.416,3.234-8.152,7.644-8.435h153.28c4.431,0.275,7.8,4.092,7.525,8.522
	c-0.004,0.06-0.009,0.117-0.014,0.177C354.59,474.371,351.28,478.089,346.924,478.438z M408.077,430.465H193.644
	c-4.768-0.591-8.154-4.935-7.563-9.702c0.49-3.957,3.607-7.074,7.563-7.563h214.433c4.768,0.591,8.153,4.934,7.563,9.701
	C415.15,426.857,412.033,429.974,408.077,430.465z M408.077,383.017H193.644c-4.768-0.59-8.154-4.934-7.563-9.7
	c0.49-3.957,3.607-7.074,7.563-7.564h214.433c4.768,0.59,8.153,4.933,7.563,9.701C415.15,379.41,412.033,382.527,408.077,383.017z
	 M408.077,335.439H193.644c-4.768-0.59-8.154-4.934-7.563-9.702c0.49-3.955,3.607-7.072,7.563-7.563h214.433
	c4.768,0.59,8.153,4.933,7.563,9.7C415.15,331.832,412.033,334.949,408.077,335.439z M408.077,292.21H193.644
	c-4.731-0.004-8.562-3.844-8.558-8.575c0.005-4.725,3.834-8.552,8.558-8.558h214.433c4.731,0.006,8.562,3.844,8.558,8.575
	C416.629,288.377,412.802,292.206,408.077,292.21z"/>
</svg>
