<?xml version="1.0" encoding="utf-8"?>
<!-- Generator: Adobe Illustrator 16.0.2, SVG Export Plug-In . SVG Version: 6.00 Build 0)  -->
<!DOCTYPE svg PUBLIC "-//W3C//DTD SVG 1.1//EN" "http://www.w3.org/Graphics/SVG/1.1/DTD/svg11.dtd">
<svg version="1.1" id="Layer_1" xmlns="http://www.w3.org/2000/svg" xmlns:xlink="http://www.w3.org/1999/xlink" x="0px" y="0px"
	 width="40px" height="40px" viewBox="15 15 40 40" enable-background="new 15 15 40 40" xml:space="preserve">
<path fill="#1B4F91" d="M37.096,23.712c11.461,4.727,28.212,33.6-5.242,31.139c-24.172-1.763-10.262-26.094-0.465-30.93
	c-3.294-2.143-5.413-7.066-4.188-8.413c1.518-1.666,4.237,1.322,6.686,1.016c1.738-0.257,5.364-1.727,7.017-1.384
	C42.164,15.398,40.119,21.166,37.096,23.712z M39.961,42.889c0.071-0.746-0.092-1.495-0.466-2.143V40.66
	c-0.49-0.685-1.178-1.201-1.971-1.48c-0.549-0.201-1.11-0.37-1.678-0.503v-3.673c0.479,0.069,0.937,0.25,1.334,0.525
	c0.184,0.135,0.34,0.301,0.466,0.49c0.069,0.095,0.127,0.196,0.172,0.307c0.036,0.11,0.098,0.22,0.098,0.342
	c0.153,0.355,0.495,0.593,0.881,0.612c0.396,0.017,0.763-0.204,0.932-0.563c0.082-0.171,0.112-0.362,0.085-0.551
	c-0.024-0.12-0.058-0.239-0.099-0.354c-0.036-0.126-0.081-0.248-0.134-0.368c-0.198-0.416-0.463-0.796-0.784-1.126
	c-0.723-0.652-1.62-1.078-2.583-1.224l-0.393-0.159v-1.065c0-0.392-0.229-0.747-0.587-0.906c-0.357-0.153-0.769-0.091-1.065,0.159
	c-0.207,0.193-0.322,0.464-0.319,0.747v1.065c-0.991,0.123-1.919,0.551-2.657,1.225c-0.336,0.315-0.615,0.688-0.82,1.102
	c-0.19,0.454-0.286,0.942-0.282,1.433c0.009,0.49,0.126,0.971,0.343,1.408c0.208,0.411,0.509,0.769,0.882,1.04
	c0.767,0.548,1.638,0.931,2.559,1.127v3.92c-0.46-0.113-0.882-0.347-1.225-0.675c-0.176-0.162-0.325-0.352-0.44-0.563
	c-0.049-0.098-0.098-0.184-0.147-0.307c-0.049-0.122-0.11-0.245-0.11-0.355c-0.131-0.365-0.465-0.621-0.853-0.652
	c-0.388-0.031-0.758,0.166-0.948,0.507c-0.096,0.166-0.134,0.358-0.11,0.55c0.018,0.116,0.042,0.229,0.074,0.344
	c0.036,0.109,0.123,0.233,0.123,0.354c0.179,0.444,0.427,0.856,0.735,1.225c0.647,0.729,1.501,1.246,2.449,1.482
	c0.165,0.044,0.333,0.082,0.502,0.109v1.151c0,0.381,0.219,0.729,0.563,0.894c0.354,0.159,0.768,0.102,1.066-0.147
	c0.209-0.193,0.333-0.461,0.343-0.746v-1.041c0.995-0.062,1.954-0.4,2.768-0.979C39.399,44.724,39.864,43.843,39.961,42.889z
	 M34.024,34.979v3.232c-0.267-0.073-0.494-0.134-0.694-0.208c-0.245-0.09-0.478-0.205-0.694-0.343
	c-0.211-0.108-0.38-0.275-0.48-0.478c-0.08-0.221-0.107-0.455-0.08-0.687c0.02-0.225,0.107-0.44,0.253-0.624
	C32.75,35.389,33.356,35.068,34.024,34.979z M38.015,42.484c-0.004,0.255-0.063,0.505-0.172,0.734
	c-0.479,0.607-1.198,0.979-1.971,1.017v-3.514c0.46,0.109,0.907,0.27,1.334,0.478c0.201,0.097,0.383,0.23,0.538,0.391
	c0.137,0.148,0.229,0.33,0.271,0.527C38.026,42.239,38.026,42.362,38.015,42.484z"/>
</svg>
