<?xml version="1.0" encoding="utf-8"?>
<!-- Generator: Adobe Illustrator 16.0.0, SVG Export Plug-In . SVG Version: 6.00 Build 0)  -->
<!DOCTYPE svg PUBLIC "-//W3C//DTD SVG 1.1//EN" "http://www.w3.org/Graphics/SVG/1.1/DTD/svg11.dtd">
<svg version="1.1" id="Layer_1" xmlns="http://www.w3.org/2000/svg" xmlns:xlink="http://www.w3.org/1999/xlink" x="0px" y="0px"
	 width="70.851px" height="70.85px" viewBox="64.578 -5.425 70.851 70.85" enable-background="new 64.578 -5.425 70.851 70.85"
	 xml:space="preserve">
<title>Asset 1</title>
<g>
	<path fill="none" d="M77.128,10.082c1.164,0.164,52.409,0.276,55.352,0.13c0.239-0.027,0.478-0.069,0.712-0.125
		c0.082-0.18,0.141-0.37,0.175-0.564c0-1.13,0-2.22,0-3.327c-0.021-0.289-0.079-0.574-0.175-0.847
		c-0.351-1.426-1.627-2.43-3.096-2.434c-0.384,0-0.773,0-1.129,0H81.37c-0.435,0-0.87,0-1.299,0
		c-1.398,0.059-2.595,1.02-2.954,2.372c-0.106,0.322-0.169,0.656-0.187,0.994c0,1.129,0,2.214,0,3.327
		c0.044,0.167,0.113,0.327,0.204,0.475H77.128z"/>
	<path fill="none" d="M79.958,37.729c0-0.769,0-1.542,0-2.31c0.08-0.797,0.036-1.602-0.13-2.385
		c-1.87-0.265-3.764-0.329-5.648-0.191c-0.265,0.037-0.525,0.098-0.779,0.181c-0.284,2.384-0.278,4.792,0.017,7.173l-0.011,0.006
		c2.122,0.238,4.265,0.219,6.382-0.057C79.959,39.354,80.016,38.539,79.958,37.729z"/>
	<path fill="none" d="M131.44,12.663H78.789c-0.288,0-0.565,0-0.87,0c-0.305,0-0.564,0.09-0.791,0.136
		c-0.312,1.632-0.297,3.31,0.045,4.937c0.672,0,1.293,0,1.915,0h39.791c0.481-0.03,0.965-0.03,1.445,0
		c0.525,0.053,1.042,0.173,1.537,0.355c1.457,0.618,2.563,1.854,3.016,3.372c0.256,0.781,0.368,1.602,0.334,2.423
		c0,4.775,0,9.55,0,14.323c-0.08,0.504-0.029,1.02,0.146,1.497c0.146,0.079,0.231,0.164,0.316,0.164c1.638,0,3.275,0.102,4.908,0
		c1.202-0.079,2.216-0.927,2.508-2.096c0.189-0.646,0.281-1.315,0.271-1.987c0-3.954,0-7.908,0-11.862c0-3.186,0-6.365,0-9.551
		c0.093-0.529,0.014-1.073-0.227-1.553C132.59,12.634,132.01,12.58,131.44,12.663z"/>
	<path fill="none" d="M119.969,20.147c-0.435,0-0.869,0-1.305,0l-23.722,0.034H72.084c-0.723,0-1.451,0.04-2.169,0
		c-1.507-0.034-2.813,1.035-3.078,2.519c-0.098,0.521-0.136,1.052-0.113,1.582c0,9.553,0,19.107,0,28.664
		c-0.01,0.377,0.001,0.754,0.034,1.13c0.125,1.663,1.496,2.958,3.163,2.987c0.288,0,0.565,0,0.87,0h48.336
		c0.377,0.012,0.754,0,1.13-0.033c1.393-0.149,2.511-1.215,2.728-2.598c0.078-0.525,0.114-1.057,0.107-1.588c0-1.35,0-2.699,0-4.055
		c0-8.01,0-16.021,0-24.033c0.012-0.626-0.018-1.253-0.09-1.875C122.853,21.321,121.535,20.134,119.969,20.147z M71.175,40.576
		c-0.034-1.282,0-2.699,0-4.05l-0.028,0.011c0-1.129,0-2.314,0-3.467c-0.015-0.337,0.004-0.674,0.057-1.006
		c0.177-0.874,0.922-1.518,1.813-1.564c2.361,0,4.722,0,7.083,0c0.958-0.011,1.772,0.694,1.898,1.644
		c0.038,0.237,0.053,0.478,0.045,0.718c0,2.458,0,4.917,0,7.376c0.011,0.188,0.011,0.376,0,0.565
		c-0.013,1.021-0.842,1.846-1.864,1.852c-2.361,0.064-4.722,0.064-7.083,0C71.858,42.621,71.208,41.858,71.175,40.576z
		 M81.138,50.348c-0.864,0.033-1.729,0-2.593,0h-0.7v0.011c-0.96,0-1.92,0-2.886,0c-0.506,0.026-0.968-0.288-1.129-0.769
		c-0.237-0.604,0.06-1.285,0.664-1.521c0.065-0.026,0.132-0.046,0.2-0.06c0.186-0.042,0.375-0.063,0.565-0.062h5.479
		c0.189-0.002,0.378,0.015,0.564,0.051c0.592,0.11,1.008,0.646,0.966,1.248C82.238,49.853,81.745,50.333,81.138,50.348z
		 M92.536,50.358c-0.096,0.007-0.192,0.007-0.288,0h-3.033c-1.005,0-2.016,0-3.021,0c-0.605,0.021-1.112-0.451-1.134-1.056
		c-0.002-0.047,0-0.095,0.004-0.142c-0.033-0.553,0.357-1.04,0.904-1.13c0.283-0.051,0.571-0.074,0.858-0.067
		c1.632,0,3.259,0,4.891,0c0.334-0.005,0.668,0.032,0.994,0.107c0.525,0.155,0.863,0.665,0.802,1.208
		C93.493,49.829,93.081,50.285,92.536,50.358z M104.38,50.342c-1.101,0.039-2.202,0-3.304,0l-0.006,0.017c-1.005,0-2.017,0-3.021,0
		c-0.605,0.022-1.113-0.45-1.135-1.056c-0.001-0.051,0-0.102,0.005-0.152c-0.033-0.555,0.361-1.044,0.909-1.13
		c0.284-0.05,0.571-0.07,0.859-0.063c1.632,0,3.258,0,4.891,0c0.334-0.005,0.668,0.031,0.994,0.107
		c0.525,0.158,0.861,0.67,0.797,1.214C105.356,49.834,104.932,50.29,104.38,50.342z M115.513,50.342c-0.333,0.033-0.673,0-1.011,0
		c-1.695,0-3.389,0-5.084,0c-0.616,0.096-1.193-0.326-1.29-0.942c-0.03-0.192-0.009-0.39,0.06-0.571
		c0.06-0.395,0.359-0.711,0.75-0.791c0.33-0.065,0.664-0.098,1-0.096c0.842,0,1.661,0.006,2.48,0.006h2.314
		c0.289-0.009,0.578,0.006,0.865,0.045c0.646,0.11,1.079,0.723,0.969,1.369C116.477,49.889,116.045,50.289,115.513,50.342z"/>
	<path d="M135.354,5.411c-0.245-2.714-2.5-4.805-5.225-4.846c-0.435,0-0.87,0-1.305,0H81.482c-0.435,0-0.87,0-1.305,0
		c-2.789,0.032-5.084,2.204-5.27,4.987c-0.045,0.576-0.045,1.169-0.045,1.734c0,2.897,0,5.789,0,8.687
		c0.073,0.578-0.015,1.164-0.254,1.695c-0.356,0.034-0.689,0.079-1.034,0.09c-1.254,0-2.508,0-3.762,0
		c-0.676-0.011-1.347,0.132-1.96,0.418c-1.566,0.714-2.696,2.136-3.039,3.824c-0.161,0.706-0.24,1.428-0.237,2.152
		c0,9.651,0,19.298,0,28.94c0.006,0.723,0.087,1.441,0.243,2.146c0.464,2.414,2.574,4.162,5.032,4.168c0.384,0,0.774,0,1.158,0
		h47.924c0.531,0,1.062-0.033,1.593-0.033c1.021-0.047,1.991-0.46,2.733-1.164c0.729-0.642,1.279-1.461,1.599-2.377
		c0.265-0.777,0.388-1.597,0.361-2.418c0-3.137,0-6.273,0-9.41c-0.076-0.555,0.004-1.119,0.231-1.632
		c0.412-0.034,0.83-0.102,1.254-0.102c1.158,0,2.344,0.028,3.474,0c0.479-0.001,0.956-0.067,1.418-0.198
		c2.157-0.672,3.292-2.248,3.722-4.389c0.09-0.57,0.124-1.149,0.102-1.728c0-9.7,0-19.399,0-29.099
		C135.426,6.374,135.403,5.891,135.354,5.411z M76.93,6.281c0.018-0.338,0.081-0.672,0.187-0.994
		c0.359-1.352,1.556-2.313,2.954-2.372c0.429,0,0.864,0,1.299,0h47.597c0.355,0,0.745,0,1.129,0
		c1.469,0.004,2.745,1.008,3.096,2.434c0.096,0.273,0.154,0.559,0.175,0.847c0,1.107,0,2.197,0,3.327
		c-0.034,0.195-0.093,0.384-0.175,0.564c-0.234,0.056-0.473,0.097-0.712,0.125c-2.942,0.146-54.188,0.034-55.352-0.13h0.006
		c-0.09-0.147-0.159-0.308-0.204-0.475C76.93,8.495,76.93,7.41,76.93,6.281z M123.092,48.789c0,1.355,0,2.705,0,4.055
		c0.007,0.531-0.029,1.063-0.107,1.588c-0.217,1.383-1.335,2.448-2.728,2.598c-0.376,0.033-0.753,0.045-1.13,0.033H70.791
		c-0.305,0-0.582,0-0.87,0c-1.667-0.029-3.038-1.324-3.163-2.987c-0.033-0.376-0.044-0.753-0.034-1.13c0-9.557,0-19.111,0-28.664
		c-0.023-0.53,0.015-1.061,0.113-1.582c0.265-1.484,1.571-2.553,3.078-2.519c0.718,0.04,1.446,0,2.169,0h22.858l23.722-0.034
		c0.436,0,0.87,0,1.305,0c1.566-0.013,2.884,1.174,3.033,2.733c0.072,0.623,0.102,1.249,0.09,1.875
		C123.092,32.769,123.092,40.779,123.092,48.789z M133.361,14.375c0,3.186,0,6.365,0,9.551c0,3.954,0,7.908,0,11.862
		c0.01,0.672-0.082,1.342-0.271,1.987c-0.292,1.169-1.306,2.017-2.508,2.096c-1.633,0.102-3.271,0-4.908,0
		c-0.085,0-0.17-0.085-0.316-0.164c-0.176-0.478-0.227-0.993-0.146-1.497c0-4.773,0-9.548,0-14.323
		c0.034-0.821-0.078-1.642-0.334-2.423c-0.452-1.518-1.559-2.754-3.016-3.372c-0.495-0.183-1.012-0.302-1.537-0.355
		c-0.48-0.03-0.964-0.03-1.445,0H79.088c-0.622,0-1.243,0-1.915,0c-0.342-1.626-0.357-3.305-0.045-4.937
		c0.226-0.045,0.486-0.136,0.791-0.136c0.305,0,0.582,0,0.87,0h52.652c0.569-0.083,1.149-0.029,1.694,0.158
		C133.375,13.301,133.454,13.846,133.361,14.375z"/>
	<path d="M80.178,42.654c1.022-0.006,1.852-0.83,1.864-1.852c0.011-0.189,0.011-0.377,0-0.565c0-2.459,0-4.918,0-7.376
		c0.007-0.24-0.008-0.48-0.045-0.718c-0.125-0.949-0.94-1.655-1.898-1.644c-2.361,0-4.722,0-7.083,0
		c-0.891,0.047-1.636,0.69-1.813,1.564c-0.052,0.332-0.071,0.669-0.057,1.006c0,1.152,0,2.338,0,3.467l0.028-0.011
		c0,1.351-0.034,2.768,0,4.05s0.684,2.045,1.92,2.078C75.456,42.719,77.817,42.719,80.178,42.654z M73.406,40.203l0.011-0.006
		c-0.294-2.381-0.3-4.789-0.017-7.173c0.254-0.083,0.515-0.144,0.779-0.181c1.884-0.138,3.778-0.073,5.648,0.191
		c0.166,0.783,0.209,1.588,0.13,2.385c0,0.768,0,1.541,0,2.31c0.059,0.81,0.001,1.624-0.169,2.417
		C77.671,40.422,75.528,40.441,73.406,40.203z"/>
	<path d="M81.302,47.998c-0.186-0.036-0.375-0.053-0.564-0.051h-5.479c-0.19-0.002-0.379,0.02-0.565,0.062
		c-0.068,0.014-0.135,0.033-0.2,0.06c-0.604,0.236-0.901,0.918-0.664,1.521c0.162,0.48,0.623,0.795,1.129,0.769
		c0.966,0,1.926,0,2.886,0v-0.011h0.7c0.864,0,1.729,0.033,2.593,0c0.607-0.015,1.1-0.495,1.129-1.102
		C82.31,48.645,81.894,48.108,81.302,47.998z"/>
	<path d="M104.572,48.065c-0.326-0.076-0.66-0.112-0.994-0.107c-1.633,0-3.259,0-4.891,0c-0.288-0.008-0.575,0.013-0.859,0.063
		c-0.548,0.086-0.942,0.575-0.909,1.13c-0.005,0.051-0.007,0.102-0.005,0.152c0.022,0.605,0.53,1.078,1.135,1.056
		c1.005,0,2.016,0,3.021,0l0.006-0.017c1.102,0,2.203,0.039,3.304,0c0.552-0.052,0.977-0.508,0.989-1.063
		C105.434,48.735,105.098,48.224,104.572,48.065z"/>
	<path d="M92.711,48.071c-0.326-0.075-0.66-0.112-0.994-0.107c-1.632,0-3.259,0-4.891,0c-0.288-0.007-0.575,0.017-0.858,0.067
		c-0.546,0.09-0.937,0.577-0.904,1.13c-0.004,0.047-0.006,0.095-0.004,0.142c0.021,0.604,0.529,1.077,1.134,1.056
		c1.005,0,2.016,0,3.021,0h3.033c0.096,0.007,0.192,0.007,0.288,0c0.545-0.073,0.957-0.529,0.977-1.079
		C93.574,48.736,93.236,48.227,92.711,48.071z"/>
	<path d="M115.598,47.992c-0.287-0.039-0.576-0.054-0.865-0.045h-2.314c-0.819,0-1.639-0.006-2.48-0.006
		c-0.336-0.002-0.67,0.03-1,0.096c-0.391,0.08-0.69,0.396-0.75,0.791c-0.068,0.182-0.09,0.379-0.06,0.571
		c0.097,0.616,0.674,1.038,1.29,0.942c1.695,0,3.389,0,5.084,0c0.338,0,0.678,0.033,1.011,0c0.532-0.053,0.964-0.453,1.054-0.98
		C116.677,48.715,116.243,48.103,115.598,47.992z"/>
</g>
</svg>
