<?xml version="1.0" encoding="utf-8"?>
<!-- Generator: Adobe Illustrator 16.0.2, SVG Export Plug-In . SVG Version: 6.00 Build 0)  -->
<!DOCTYPE svg PUBLIC "-//W3C//DTD SVG 1.1//EN" "http://www.w3.org/Graphics/SVG/1.1/DTD/svg11.dtd">
<svg version="1.1" id="Layer_1" xmlns="http://www.w3.org/2000/svg" xmlns:xlink="http://www.w3.org/1999/xlink" x="0px" y="0px"
	 width="40px" height="40px" viewBox="15 15 40 40" enable-background="new 15 15 40 40" xml:space="preserve">
<path fill="#1B4F91" d="M18.586,27.053c-0.304-0.003-0.57-0.217-0.66-0.53c-0.09-0.312,0.018-0.651,0.266-0.839l16.414-10.57
	c0.244-0.152,0.545-0.152,0.789,0l16.414,10.57c0.248,0.188,0.355,0.527,0.266,0.839c-0.09,0.313-0.357,0.527-0.659,0.53H18.586z
	 M45.863,28.34h2.278c0.508,0,0.92,0.412,0.92,0.92v19.902c0,0.508-0.412,0.922-0.92,0.922h-2.278c-0.508,0-0.92-0.414-0.92-0.922
	V29.261C44.943,28.752,45.355,28.34,45.863,28.34z M19.573,51.481h30.436c0.628,0,1.139,0.509,1.139,1.14v1.239
	c0,0.63-0.511,1.14-1.139,1.14H19.573c-0.629,0-1.14-0.51-1.14-1.14v-1.239C18.433,51.99,18.943,51.481,19.573,51.481z
	 M38.158,28.34h2.278c0.509,0,0.92,0.412,0.92,0.92v19.902c0,0.508-0.411,0.922-0.92,0.922h-2.278c-0.508,0-0.92-0.414-0.92-0.922
	V29.261C37.238,28.752,37.65,28.34,38.158,28.34z M29.906,28.34h2.279c0.508,0,0.92,0.412,0.92,0.92v19.902
	c0,0.508-0.412,0.922-0.92,0.922h-2.279c-0.508,0-0.92-0.414-0.92-0.922V29.261C28.986,28.752,29.398,28.34,29.906,28.34z
	 M22.049,28.34h2.279c0.508,0,0.92,0.412,0.92,0.92v19.902c0,0.508-0.412,0.922-0.92,0.922h-2.279c-0.509,0-0.92-0.414-0.92-0.922
	V29.261C21.128,28.752,21.54,28.34,22.049,28.34z"/>
</svg>
