<?xml version="1.0" encoding="utf-8"?>
<!-- Generator: Adobe Illustrator 16.0.2, SVG Export Plug-In . SVG Version: 6.00 Build 0)  -->
<!DOCTYPE svg PUBLIC "-//W3C//DTD SVG 1.1//EN" "http://www.w3.org/Graphics/SVG/1.1/DTD/svg11.dtd">
<svg version="1.1" id="Layer_1" xmlns="http://www.w3.org/2000/svg" xmlns:xlink="http://www.w3.org/1999/xlink" x="0px" y="0px"
	 width="40px" height="40px" viewBox="15 15 40 40" enable-background="new 15 15 40 40" xml:space="preserve">
<path fill="#1B4F91" d="M53.776,33.593c-2.542,5.54-7.943,12.809-18.768,20.74c-9.939-7.229-15.273-13.984-18.039-19.307h5.969
	c0.416-0.006,0.789-0.267,0.939-0.663l2.846-7.27l3.349,15.429c0.11,0.46,0.504,0.789,0.966,0.813
	c0.455-0.001,0.855-0.31,0.979-0.758L35.18,31.27l0.992,3.04c0.138,0.427,0.527,0.715,0.966,0.717h8.154
	c0.271-0.004,0.528-0.118,0.716-0.315c0.19-0.198,0.293-0.463,0.289-0.739c0-0.568-0.45-1.027-1.005-1.027h-7.386l-1.8-5.526
	c-0.123-0.44-0.531-0.733-0.979-0.702c-0.446,0.009-0.835,0.309-0.966,0.743l-2.965,10.62l-3.203-14.714
	c-0.097-0.445-0.468-0.774-0.913-0.811c-0.44-0.029-0.85,0.232-1.02,0.648l-3.825,9.742H15.99
	c-2.646-6.351,0.195-13.695,6.379-16.484c7.623-3.135,12.652,4.135,12.652,4.135S40.077,13.3,47.7,16.461
	C54.172,19.15,56.739,27.176,53.776,33.593z"/>
</svg>
