<?xml version="1.0" encoding="utf-8"?>
<!-- Generator: Adobe Illustrator 16.0.2, SVG Export Plug-In . SVG Version: 6.00 Build 0)  -->
<!DOCTYPE svg PUBLIC "-//W3C//DTD SVG 1.1//EN" "http://www.w3.org/Graphics/SVG/1.1/DTD/svg11.dtd">
<svg version="1.1" id="Capa_1" xmlns="http://www.w3.org/2000/svg" xmlns:xlink="http://www.w3.org/1999/xlink" x="0px" y="0px"
	 width="40px" height="40px" viewBox="286 376 40 40" enable-background="new 286 376 40 40" xml:space="preserve">
<g>
	<g>
		<path d="M325.771,383.337l-7.109-7.108c-0.146-0.146-0.346-0.229-0.553-0.229h-23.203c-1.292,0-2.344,1.051-2.344,2.344v1.489
			c-3.838,1.505-6.563,5.246-6.563,9.612c0,0.431,0.35,0.781,0.781,0.781h9.539c0.431,0,0.781-0.35,0.781-0.781v-9.539
			c0-0.432-0.35-0.781-0.781-0.781c-0.753,0-1.487,0.082-2.195,0.236v-1.017c0-0.431,0.351-0.781,0.781-0.781h22.422v4.766
			c0,1.292,1.052,2.344,2.344,2.344h4.766v28.984c0,0.431-0.351,0.781-0.781,0.781h-28.75c-0.431,0-0.781-0.351-0.781-0.781v-6.692
			c0-0.432-0.35-0.781-0.781-0.781s-0.781,0.35-0.781,0.781v6.692c0,1.292,1.051,2.344,2.344,2.344h28.75
			c1.292,0,2.344-1.052,2.344-2.344v-29.767C326,383.682,325.918,383.484,325.771,383.337z M295.538,380.722v7.941h-7.941
			C287.97,384.456,291.331,381.095,295.538,380.722z M319.672,383.109c-0.431,0-0.781-0.351-0.781-0.781v-3.661l4.442,4.442H319.672
			z"/>
	</g>
</g>
<g>
	<g>
		<path d="M293.896,403.572c-0.145-0.145-0.347-0.229-0.552-0.229s-0.407,0.084-0.552,0.229c-0.146,0.146-0.229,0.348-0.229,0.553
			s0.083,0.407,0.229,0.553c0.145,0.145,0.347,0.229,0.552,0.229s0.407-0.084,0.552-0.229c0.146-0.146,0.229-0.348,0.229-0.553
			S294.041,403.718,293.896,403.572z"/>
	</g>
</g>
<g>
	<g>
		<path d="M299.117,381.923c-0.431,0-0.781,0.35-0.781,0.781v8.757h-8.757c-0.431,0-0.781,0.35-0.781,0.781
			c0,5.691,4.629,10.32,10.319,10.32c5.69,0,10.32-4.629,10.32-10.32C309.437,386.552,304.808,381.923,299.117,381.923z
			 M299.899,383.52c1.829,0.162,3.498,0.89,4.831,2.005l-4.831,4.831V383.52z M299.117,401c-4.565,0-8.326-3.512-8.722-7.976h8.722
			c0.216,0,0.411-0.087,0.552-0.229h0l6.165-6.165c1.273,1.521,2.04,3.479,2.04,5.612C307.875,397.071,303.947,401,299.117,401z"/>
	</g>
</g>
<g>
	<g>
		<path d="M320.224,400.656c-1.293,0-2.344,1.052-2.344,2.344c0,0.324,0.066,0.633,0.186,0.914l-4.501,4.501
			c-0.31-0.151-0.657-0.235-1.023-0.235c-0.357,0-0.697,0.081-1.001,0.225l-2.988-2.989c0.104-0.264,0.161-0.552,0.161-0.853
			c0-1.292-1.052-2.344-2.344-2.344s-2.344,1.052-2.344,2.344c0,0.351,0.078,0.683,0.216,0.981l-2.867,2.866
			c-0.305-0.146-0.647-0.228-1.007-0.228c-1.292,0-2.344,1.052-2.344,2.344s1.051,2.344,2.344,2.344s2.344-1.052,2.344-2.344
			c0-0.362-0.083-0.706-0.23-1.012l2.851-2.852c0.313,0.155,0.666,0.243,1.038,0.243c0.421,0,0.815-0.111,1.157-0.307l2.904,2.904
			c-0.149,0.309-0.233,0.654-0.233,1.02c0,1.292,1.052,2.344,2.344,2.344s2.344-1.052,2.344-2.344c0-0.356-0.08-0.694-0.223-0.996
			l4.459-4.459c0.329,0.176,0.704,0.275,1.103,0.275c1.292,0,2.344-1.051,2.344-2.344
			C322.568,401.708,321.516,400.656,320.224,400.656z M300.367,411.307c-0.431,0-0.781-0.351-0.781-0.781s0.35-0.781,0.781-0.781
			c0.209,0,0.4,0.084,0.541,0.219c0.003,0.003,0.006,0.007,0.009,0.01c0.004,0.004,0.008,0.007,0.012,0.011
			c0.136,0.141,0.22,0.331,0.22,0.542C301.149,410.957,300.798,411.307,300.367,411.307z M306.369,405.344
			c-0.431,0-0.781-0.351-0.781-0.781s0.351-0.781,0.781-0.781c0.431,0,0.782,0.351,0.782,0.781S306.801,405.344,306.369,405.344z
			 M312.542,411.304c-0.431,0-0.781-0.351-0.781-0.781s0.351-0.781,0.781-0.781s0.781,0.351,0.781,0.781
			S312.972,411.304,312.542,411.304z M320.224,403.781c-0.431,0-0.781-0.351-0.781-0.781s0.351-0.781,0.781-0.781
			s0.781,0.351,0.781,0.781S320.655,403.781,320.224,403.781z"/>
	</g>
</g>
<g>
	<g>
		<path d="M316.319,394.359h-4.123c-0.432,0-0.781,0.35-0.781,0.781s0.35,0.781,0.781,0.781h4.123c0.432,0,0.781-0.35,0.781-0.781
			S316.751,394.359,316.319,394.359z"/>
	</g>
</g>
<g>
	<g>
		<path d="M320.428,394.588c-0.146-0.146-0.347-0.229-0.552-0.229c-0.206,0-0.407,0.083-0.553,0.229
			c-0.146,0.145-0.229,0.347-0.229,0.552s0.083,0.407,0.229,0.552c0.146,0.146,0.346,0.229,0.553,0.229
			c0.205,0,0.406-0.083,0.552-0.229c0.146-0.145,0.229-0.347,0.229-0.552S320.574,394.733,320.428,394.588z"/>
	</g>
</g>
<g>
	<g>
		<path d="M321.739,386.859h-9.543c-0.432,0-0.781,0.35-0.781,0.781s0.35,0.781,0.781,0.781h9.543c0.432,0,0.781-0.35,0.781-0.781
			S322.171,386.859,321.739,386.859z"/>
	</g>
</g>
<g>
	<g>
		<path d="M321.739,390.609h-9.543c-0.432,0-0.781,0.35-0.781,0.781s0.35,0.781,0.781,0.781h9.543c0.432,0,0.781-0.35,0.781-0.781
			S322.171,390.609,321.739,390.609z"/>
	</g>
</g>
</svg>
