<?xml version="1.0" encoding="utf-8"?>
<!-- Generator: Adobe Illustrator 16.0.2, SVG Export Plug-In . SVG Version: 6.00 Build 0)  -->
<!DOCTYPE svg PUBLIC "-//W3C//DTD SVG 1.1//EN" "http://www.w3.org/Graphics/SVG/1.1/DTD/svg11.dtd">
<svg version="1.1" id="Layer_1" xmlns="http://www.w3.org/2000/svg" xmlns:xlink="http://www.w3.org/1999/xlink" x="0px" y="0px"
	 width="40px" height="40px" viewBox="0 0 40 40" enable-background="new 0 0 40 40" xml:space="preserve">
<g>
	<g>
		<path display="none" fill="#144A8D" d="M36.755,28.194c-0.216-2.278-1.805-4.186-3.99-4.787c-2.191-0.604-4.525,0.229-5.857,2.09
			l-0.16,0.229l-0.281-0.019c-0.168-0.013-0.337-0.013-0.527,0c-1.511,0.041-2.834,1.036-3.308,2.487l-0.06,0.179l-0.162,0.098
			c-1.322,0.793-2.131,2.239-2.118,3.806c-0.013,1.141,0.425,2.238,1.213,3.053c0.789,0.813,1.864,1.277,2.983,1.289L35.76,36.62
			c1.938-0.045,3.572-1.471,3.896-3.403c0.326-1.933-0.758-3.823-2.574-4.509l-0.326-0.122V28.194z"/>
	</g>
	<path fill="#144A8D" d="M39.947,33.763c0.297-1.764-0.694-3.5-2.355-4.128l-0.579-0.215v-0.664c-0.199-2.093-1.706-3.9-3.745-4.461
		c-2.025-0.561-4.27,0.247-5.498,1.962l-0.284,0.405l-0.501-0.033c-0.078-0.006-0.154-0.009-0.231-0.009
		c-0.08,0-0.162,0.003-0.25,0.009c-1.373,0.038-2.571,0.94-2.998,2.247l-0.105,0.317l-0.286,0.173
		c-1.215,0.729-1.963,2.072-1.95,3.508c-0.013,1.063,0.384,2.061,1.114,2.817c0.721,0.74,1.718,1.173,2.739,1.183l11.373,0.002
		C38.156,36.834,39.652,35.524,39.947,33.763z"/>
	<g>
		<path display="none" fill="#144A8D" d="M27.77,26.257l-0.284,0.405l-0.501-0.033c-0.078-0.006-0.154-0.009-0.231-0.009
			c-0.08,0-0.162,0.003-0.25,0.009c-1.373,0.038-2.571,0.94-2.998,2.247l-0.105,0.317l-0.286,0.173
			c-0.956,0.573-1.616,1.529-1.852,2.61h9.369c0.561,0,1.016-0.453,1.016-1.016V24.75c0-0.225-0.088-0.422-0.211-0.59
			C29.998,24.31,28.632,25.053,27.77,26.257z"/>
		<path fill="#144A8D" d="M22.717,28.703l0.055-0.07c0.526-1.612,2.013-2.729,3.695-2.774c0.183-0.014,0.384-0.014,0.572,0.001
			l0.064,0.005l0.035-0.054c0.691-0.964,1.662-1.673,2.743-2.077H1.016C0.455,23.733,0,24.188,0,24.75v6.211
			c0,0.563,0.455,1.016,1.016,1.016h19.461C20.722,30.626,21.526,29.417,22.717,28.703z M5.104,29.917
			c-1.128,0-2.042-0.923-2.042-2.062c0-1.14,0.914-2.063,2.042-2.063c1.126,0,2.041,0.923,2.041,2.063
			C7.146,28.994,6.231,29.917,5.104,29.917z"/>
		<path fill="#144A8D" d="M1.016,21.671h29.615c0.561,0,1.016-0.452,1.016-1.013v-6.213c0-0.563-0.455-1.017-1.016-1.017H1.016
			C0.455,13.429,0,13.883,0,14.445v6.213C0,21.219,0.455,21.671,1.016,21.671z M5.104,15.489c1.126,0,2.041,0.922,2.041,2.061
			s-0.914,2.063-2.041,2.063c-1.128,0-2.042-0.924-2.042-2.063C3.063,16.412,3.977,15.489,5.104,15.489z"/>
		<path fill="#144A8D" d="M1.016,11.368h29.615c0.561,0,1.016-0.455,1.016-1.016V4.14c0-0.562-0.455-1.016-1.016-1.016H1.016
			C0.455,3.124,0,3.578,0,4.14v6.213C0,10.913,0.455,11.368,1.016,11.368z M5.104,5.184c1.126,0,2.041,0.924,2.041,2.063
			c0,1.138-0.914,2.063-2.041,2.063c-1.128,0-2.042-0.925-2.042-2.063C3.063,6.106,3.977,5.184,5.104,5.184z"/>
	</g>
</g>
</svg>
