<?xml version="1.0" encoding="utf-8"?>
<!-- Generator: Adobe Illustrator 16.0.2, SVG Export Plug-In . SVG Version: 6.00 Build 0)  -->
<!DOCTYPE svg PUBLIC "-//W3C//DTD SVG 1.1//EN" "http://www.w3.org/Graphics/SVG/1.1/DTD/svg11.dtd">
<svg version="1.1" id="Layer_1" xmlns="http://www.w3.org/2000/svg" xmlns:xlink="http://www.w3.org/1999/xlink" x="0px" y="0px"
	 width="600px" height="600px" viewBox="6 96 600 600" enable-background="new 6 96 600 600" xml:space="preserve">
<title>Icon - IT Infrastructure</title>
<g id="Layer_2">
	<g id="Layer_1-2">
		<g>
			<path d="M392.904,180.231H219.095c-22.719-0.014-41.148,18.393-41.163,41.113c0,0.488,0.008,0.977,0.025,1.465v346.382
				c-0.232,23.052,18.092,42.017,41.138,42.578h173.604c23.046-0.562,41.37-19.526,41.137-42.578V222.809
				c0.796-22.706-16.966-41.757-39.672-42.552c-0.488-0.018-0.977-0.026-1.465-0.026 M305.897,562.815
				c-20.22-0.114-36.521-16.598-36.406-36.818c0.113-20.221,16.598-36.521,36.818-36.406c20.139,0.113,36.407,16.471,36.407,36.611
				c0.001,20.221-16.391,36.613-36.612,36.613C306.035,562.815,305.966,562.815,305.897,562.815 M362.257,425.209H249.744
				c-9.713-1.053-16.735-9.779-15.683-19.492c0.895-8.262,7.42-14.786,15.683-15.682h112.512
				c9.713,1.052,16.733,9.778,15.682,19.491C377.044,417.789,370.518,424.313,362.257,425.209 M362.257,351.365H249.744
				c-9.713,1.052-18.44-5.97-19.492-15.682c-1.051-9.713,5.97-18.44,15.683-19.492c1.266-0.137,2.543-0.137,3.81,0h112.512
				c9.713,1.052,16.733,9.779,15.682,19.492C377.044,343.946,370.518,350.47,362.257,351.365 M362.257,277.522H249.744
				c-9.713,1.052-18.44-5.969-19.492-15.682c-1.051-9.713,5.97-18.438,15.683-19.491c1.266-0.137,2.543-0.137,3.81,0h112.512
				c9.713-1.052,18.439,5.968,19.49,15.681c1.053,9.713-5.968,18.44-15.681,19.491C364.801,277.66,363.523,277.66,362.257,277.522
				 M576.585,239.264H460.987v302.159h115.598c16.358-0.113,29.527-13.465,29.415-29.823c0,0,0-0.001,0-0.002V269.089
				c0.113-16.358-13.055-29.711-29.413-29.825C576.586,239.264,576.586,239.264,576.585,239.264 M533.596,506.661
				c-14.2,0-25.711-11.511-25.711-25.711c0-14.199,11.511-25.711,25.711-25.711c14.199,0,25.711,11.512,25.711,25.711
				C559.307,495.15,547.796,506.661,533.596,506.661 M573.089,410.398h-78.779c-6.816,0.005-12.345-5.518-12.349-12.333
				c-0.005-6.816,5.518-12.345,12.333-12.35c0.006,0,0.011,0,0.016,0h78.779c6.815,0.005,12.338,5.534,12.333,12.35
				C585.418,404.875,579.898,410.394,573.089,410.398 M573.089,358.77h-78.779c-6.816,0.005-12.345-5.518-12.349-12.333
				c-0.005-6.816,5.518-12.345,12.333-12.35c0.006,0,0.011,0,0.016,0h78.779c6.815,0.005,12.338,5.534,12.333,12.35
				C585.418,353.247,579.898,358.766,573.089,358.77 M573.089,307.141h-78.779c-6.816,0.005-12.345-5.518-12.349-12.333
				c-0.005-6.816,5.518-12.345,12.333-12.349c0.006,0,0.011,0,0.016,0h78.779c6.815,0.003,12.338,5.533,12.333,12.349
				C585.418,301.618,579.898,307.138,573.089,307.141 M6.001,269.089v242.509c-0.114,16.357,13.055,29.71,29.413,29.824h0h115.598
				V239.264H35.62c-16.358,0-29.62,13.26-29.62,29.619C6.001,268.951,6.001,269.02,6.001,269.089 M78.404,507.073
				c-14.2,0-25.711-11.511-25.711-25.712c0-14.2,11.511-25.711,25.711-25.711c14.2,0,25.711,11.511,25.711,25.711
				C104.115,495.562,92.604,507.073,78.404,507.073 M117.691,410.81H39.117c-6.816,0.004-12.345-5.518-12.349-12.335
				c-0.005-6.815,5.518-12.345,12.333-12.349c0.006,0,0.011,0,0.016,0h78.574c6.816-0.004,12.345,5.518,12.35,12.334
				c0.004,6.815-5.518,12.345-12.333,12.35C117.701,410.81,117.697,410.81,117.691,410.81 M117.691,359.181H39.117
				c-6.816,0.004-12.345-5.518-12.349-12.333c-0.005-6.817,5.518-12.345,12.333-12.35c0.006,0,0.011,0,0.016,0h78.574
				c6.816-0.004,12.345,5.518,12.35,12.333c0.004,6.817-5.518,12.345-12.333,12.35C117.701,359.181,117.697,359.181,117.691,359.181
				 M117.691,283.076c6.816,0.005,12.338,5.534,12.334,12.35c-0.004,6.81-5.524,12.329-12.334,12.333H39.117
				c-6.816,0.004-12.345-5.518-12.349-12.333c-0.005-6.815,5.518-12.345,12.333-12.35c0.006,0,0.011,0,0.016,0H117.691z"/>
		</g>
	</g>
</g>
</svg>
