<?xml version="1.0" encoding="utf-8"?>
<!-- Generator: Adobe Illustrator 16.0.2, SVG Export Plug-In . SVG Version: 6.00 Build 0)  -->
<!DOCTYPE svg PUBLIC "-//W3C//DTD SVG 1.1//EN" "http://www.w3.org/Graphics/SVG/1.1/DTD/svg11.dtd">
<svg version="1.1" id="Layer_1" xmlns="http://www.w3.org/2000/svg" xmlns:xlink="http://www.w3.org/1999/xlink" x="0px" y="0px"
	 width="32px" height="32px" viewBox="19 19 32 32" enable-background="new 19 19 32 32" xml:space="preserve">
<path fill="#1B4F91" d="M43.135,47C44.717,47,46,48.344,46,50.002C46,50.553,45.574,51,45.049,51H25.952
	C25.426,51,25,50.553,25,50.002C25,48.344,26.283,47,27.866,47H43.135z M50.93,34.963c0.042,0.135,0.065,0.274,0.07,0.415
	c-0.115,2.542-2.179,4.542-4.685,4.542c-2.507,0-4.569-2-4.685-4.542c-0.015-0.131-0.015-0.263,0-0.394l3.176-9.675
	c-1.055,0.269-2.139,0.408-3.227,0.415c-1.391-0.006-2.772-0.221-4.102-0.637c-0.203,0.395-0.488,0.74-0.836,1.011L38.365,42h-6.821
	l1.723-15.923c-0.355-0.267-0.645-0.612-0.846-1.011c-1.329,0.417-2.711,0.632-4.103,0.637c-1.088-0.007-2.171-0.146-3.226-0.414
	l3.296,9.665c0.018,0.134,0.018,0.27,0,0.404C28.272,37.9,26.209,39.9,23.703,39.9c-2.506,0-4.569-2-4.685-4.542
	c-0.024-0.13-0.024-0.264,0-0.395l3.764-11.495c0.091-0.235,0.271-0.423,0.499-0.521c0.229-0.099,0.486-0.101,0.716-0.004
	c2.634,1.041,5.547,1.091,8.214,0.142c0.24-0.904,0.903-1.63,1.772-1.941V19.95c0-0.339,0.178-0.653,0.468-0.823
	c0.29-0.17,0.646-0.17,0.936,0c0.29,0.169,0.468,0.483,0.468,0.823v1.193c0.869,0.311,1.533,1.037,1.772,1.941
	c2.685,0.965,5.622,0.915,8.274-0.142c0.52-0.181,1.085,0.1,1.264,0.627L50.93,34.963z M26,34l-2.485-7L21,34H26z M44,34h5l-2.5-7
	L44,34z M39.311,44c1.208,0.002,2.284,0.803,2.689,2H29c0.405-1.197,1.481-1.998,2.689-2H39.311z"/>
</svg>
