<?xml version="1.0" encoding="utf-8"?>
<!-- Generator: Adobe Illustrator 16.0.2, SVG Export Plug-In . SVG Version: 6.00 Build 0)  -->
<!DOCTYPE svg PUBLIC "-//W3C//DTD SVG 1.1//EN" "http://www.w3.org/Graphics/SVG/1.1/DTD/svg11.dtd">
<svg version="1.1" id="Layer_1" xmlns="http://www.w3.org/2000/svg" xmlns:xlink="http://www.w3.org/1999/xlink" x="0px" y="0px"
	 width="400px" height="400px" viewBox="106 196 400 400" enable-background="new 106 196 400 400" xml:space="preserve">
<title>location</title>
<path d="M437.696,295.273c-10.638-33.899-33.437-62.667-64.009-80.768C352.404,202.4,328.345,196.024,303.86,196
	c-40.619-0.095-79.208,17.751-105.439,48.764c-33.063,40.738-39.68,96.887-16.993,144.195
	C194.579,417.239,279.77,554.101,305.722,596c15.828-27.351,132.208-201.688,137.793-252.662
	C444.844,327.087,442.863,310.737,437.696,295.273z M354.369,345.317c-8.421,27.334-37.405,42.667-64.739,34.248
	c-27.336-8.42-42.669-37.405-34.249-64.74c6.694-21.734,26.785-36.558,49.527-36.543c5.628-0.04,11.221,0.906,16.524,2.793
	l4.772,1.862l3.375,1.628c12.055,6.215,21.02,17.116,24.789,30.143c0,1.629,0.931,3.258,1.28,5.004
	C357.395,328.219,356.954,337.028,354.369,345.317z"/>
</svg>
