<?xml version="1.0" encoding="utf-8"?>
<!-- Generator: Adobe Illustrator 16.0.2, SVG Export Plug-In . SVG Version: 6.00 Build 0)  -->
<!DOCTYPE svg PUBLIC "-//W3C//DTD SVG 1.1//EN" "http://www.w3.org/Graphics/SVG/1.1/DTD/svg11.dtd">
<svg version="1.1" id="Layer_1" xmlns="http://www.w3.org/2000/svg" xmlns:xlink="http://www.w3.org/1999/xlink" x="0px" y="0px"
	 width="400px" height="400px" viewBox="106 196 400 400" enable-background="new 106 196 400 400" xml:space="preserve">
<title>mail</title>
<path d="M506,495.972c-0.036,8.449-2.264,16.744-6.466,24.072L373.26,378.725l124.714-108.888c5.073,7.918,7.78,17.121,7.802,26.525
	v200.612L506,495.972z M305.943,404.357l173.865-152.131c-7.295-4.063-15.501-6.211-23.851-6.241H155.929
	c-8.313,0.044-16.479,2.191-23.739,6.241L305.943,404.357z M354.426,395.219l-40.235,35.22c-4.731,3.99-11.65,3.99-16.383,0
	l-40.346-35.22L130.183,538.324c7.87,4.988,16.986,7.654,26.303,7.689h299.472c9.354-0.016,18.513-2.682,26.414-7.689
	L354.426,395.219z M113.801,269.837c-5.074,7.918-7.78,17.121-7.801,26.525v200.612c0.055,8.432,2.239,16.713,6.352,24.074
	l126.387-142.324L113.801,269.837z"/>
</svg>
