<?xml version="1.0" encoding="utf-8"?>
<!-- Generator: Adobe Illustrator 16.0.2, SVG Export Plug-In . SVG Version: 6.00 Build 0)  -->
<!DOCTYPE svg PUBLIC "-//W3C//DTD SVG 1.1//EN" "http://www.w3.org/Graphics/SVG/1.1/DTD/svg11.dtd">
<svg version="1.1" id="Layer_1" xmlns="http://www.w3.org/2000/svg" xmlns:xlink="http://www.w3.org/1999/xlink" x="0px" y="0px"
	 width="40px" height="40px" viewBox="15 15 40 40" enable-background="new 15 15 40 40" xml:space="preserve">
<path fill="#144A8D" d="M52.422,48.687L39.705,35.795c-0.119-0.121-0.246-0.229-0.376-0.329l2.251-2.403
	c0.116-0.118,0.224-0.241,0.325-0.369c2.99,1.144,6.499,0.501,8.901-1.935c1.754-1.778,2.638-4.236,2.424-6.745
	c-0.022-0.283-0.209-0.529-0.473-0.626c-0.266-0.097-0.562-0.031-0.761,0.17l-4.075,4.131l-4.127-1.054l-1.17-4.315l4.074-4.13
	c0.201-0.203,0.267-0.503,0.17-0.77c-0.096-0.269-0.338-0.456-0.619-0.48c-2.475-0.216-4.898,0.68-6.652,2.458
	c-2.401,2.434-3.038,5.988-1.911,9.018c-0.123,0.105-0.244,0.216-0.363,0.336l-3.315,3.228l-6.087-6.17
	c-0.076-0.078-0.157-0.146-0.241-0.209c0.072-0.127,0.142-0.258,0.206-0.394c1.286,0.251,3.637-2.287,5.633-4.31L27.702,15
	c-2.6,2.636-4.499,4.406-4.252,5.709c-0.595,0.294-1.125,0.654-1.501,1.037l-0.819,0.83c-0.532,0.54-0.853,1.211-0.967,1.911
	c-0.079,0.092-0.161,0.188-0.24,0.292l-0.306,0.389c-0.008,0.009-0.035,0.047-0.042,0.057l-0.276,0.393
	c-0.173,0.234-0.325,0.488-0.47,0.733c-0.054,0.091-0.109,0.183-0.166,0.273c-0.009,0.016-0.018,0.031-0.025,0.047l-0.123,0.235
	c-0.148,0.282-0.303,0.575-0.435,0.896l-0.021,0.051c-0.156,0.375-0.317,0.763-0.429,1.174l-0.054,0.178
	c-0.045,0.146-0.09,0.292-0.132,0.467l-0.113,0.567c-0.084,0.355-0.112,0.705-0.137,1.016l-0.017,0.204
	c-0.041,0.321-0.029,0.625-0.018,0.892c0.003,0.09,0.007,0.178,0.01,0.295c0.003,0.05,0.003,0.098,0.005,0.145
	c0.003,0.12,0.006,0.255,0.028,0.398l0.071,0.46c0.015,0.089,0.028,0.175,0.041,0.258c0.027,0.188,0.054,0.38,0.109,0.564
	l0.298,1.047c0.092,0.316,0.39,0.527,0.715,0.504c0.173-0.011,0.328-0.087,0.443-0.205c0.104-0.104,0.175-0.242,0.197-0.396
	l0.154-1.063c0.011-0.084,0.046-0.208,0.084-0.339c0.026-0.09,0.052-0.183,0.071-0.262l0.11-0.396
	c0.013-0.054,0.04-0.106,0.062-0.16c0.022-0.05,0.044-0.101,0.063-0.152c0.037-0.084,0.071-0.168,0.105-0.255
	c0.068-0.169,0.131-0.33,0.229-0.486c0.042-0.072,0.082-0.145,0.123-0.218c0.102-0.184,0.198-0.358,0.313-0.503
	c0.007-0.008,0.014-0.019,0.021-0.028l0.259-0.361c0.053-0.068,0.112-0.133,0.17-0.197c0.041-0.046,0.082-0.092,0.134-0.152
	c0.152-0.186,0.332-0.349,0.505-0.508l0.092-0.084c0.129-0.121,0.277-0.234,0.433-0.355c0.064-0.048,0.126-0.096,0.188-0.144
	c0.079-0.051,0.155-0.104,0.23-0.155c0.141-0.096,0.263-0.18,0.404-0.254l0.307-0.177l0.311-0.154
	c0.108-0.057,0.214-0.1,0.313-0.141c0.059-0.025,0.116-0.048,0.17-0.071c0.054-0.02,0.106-0.041,0.156-0.059
	c0.066-0.025,0.125-0.048,0.202-0.069l0.083-0.019c0.091,0.149,0.199,0.292,0.327,0.422l6.021,6.104L17.862,47.699
	c-0.005,0.005-0.01,0.01-0.015,0.015c-1.6,1.62-1.86,3.996-0.26,5.618s3.793,1.206,5.393-0.414c0.007-0.009,0.013-0.015,0.019-0.022
	l11.34-12.104c0.067,0.08,0.132,0.159,0.206,0.235l12.715,12.889c1.425,1.445,3.736,1.445,5.161,0
	C53.847,52.474,53.847,50.131,52.422,48.687z M21.781,51.865c-0.61,0.626-1.599,0.626-2.21,0c-0.61-0.625-0.61-1.638,0-2.263
	c0.61-0.625,1.6-0.625,2.21,0S22.391,51.24,21.781,51.865z"/>
</svg>
