<?xml version="1.0" encoding="utf-8"?>
<!-- Generator: Adobe Illustrator 16.0.2, SVG Export Plug-In . SVG Version: 6.00 Build 0)  -->
<!DOCTYPE svg PUBLIC "-//W3C//DTD SVG 1.1//EN" "http://www.w3.org/Graphics/SVG/1.1/DTD/svg11.dtd">
<svg version="1.1" id="Layer_1" xmlns="http://www.w3.org/2000/svg" xmlns:xlink="http://www.w3.org/1999/xlink" x="0px" y="0px"
	 width="612px" height="612px" viewBox="-305.5 486.5 612 612" enable-background="new -305.5 486.5 612 612" xml:space="preserve">
<title>Icon - Managed IT Cloud</title>
<g id="Layer_2">
	<g id="Layer_1-2">
		<g>
			<path d="M8.195,595.07c72.108,0.262,138.422,39.55,173.291,102.668c1.271,2.446,3.609,4.161,6.324,4.638
				c78.708,14.893,130.441,90.771,115.549,169.479c-12.916,68.264-72.426,117.782-141.9,118.075H80.295
				c-3.261,0-5.903-2.643-5.903-5.902l0,0V878.619c0-3.261,2.643-5.903,5.903-5.903l0,0h67.25c3.56,0.047,6.766-2.146,8.011-5.481
				c1.362-3.253,0.611-7.007-1.897-9.486L6.087,710.177c-3.374-3.377-8.847-3.379-12.224-0.004
				c-0.001,0.001-0.002,0.002-0.004,0.004l-147.571,147.571c-3.377,3.375-3.378,8.848-0.004,12.224
				c1.622,1.623,3.823,2.534,6.117,2.533h67.251c3.26,0,5.902,2.644,5.902,5.903v105.408c0,3.26-2.643,5.902-5.902,5.902l0,0
				h-96.344c-71.021-0.486-128.2-58.455-127.713-129.476c0.456-66.663,51.779-121.924,118.227-127.299
				c3.344-0.539,6.108-2.896,7.168-6.113C-150.696,647.784-75.771,595.05,8.195,595.07"/>
		</g>
	</g>
</g>
</svg>
