<?xml version="1.0" encoding="utf-8"?>
<!-- Generator: Adobe Illustrator 16.0.0, SVG Export Plug-In . SVG Version: 6.00 Build 0)  -->
<!DOCTYPE svg PUBLIC "-//W3C//DTD SVG 1.1//EN" "http://www.w3.org/Graphics/SVG/1.1/DTD/svg11.dtd">
<svg version="1.1" id="Layer_1" xmlns="http://www.w3.org/2000/svg" xmlns:xlink="http://www.w3.org/1999/xlink" x="0px" y="0px"
	 width="160px" height="160px" viewBox="140.5 239.5 160 160" enable-background="new 140.5 239.5 160 160" xml:space="preserve">
<path d="M241.807,381.403h-0.848l-2.32-12.401l-5.799-13.383h3.256l-2.32-12.268h-80.787l-4.461,22.661l3.836,8.922h-5.308
	l-1.294,6.647h-0.803c-2.464,0-4.461,1.997-4.461,4.461c0,2.463,1.997,4.46,4.461,4.46h96.846c2.464,0,4.461-1.997,4.461-4.46
	c0-2.464-1.997-4.461-4.461-4.461V381.403z M162.269,374.801l-8.252-19.227h10.126l8.074,19.227H162.269z M181.986,374.801
	l-8.297-19.227h9.948l8.297,19.227H181.986z M201.704,374.801l-8.297-19.227h9.948l8.297,19.227H201.704z M221.421,374.801
	l-8.208-19.271h9.948l8.208,19.271H221.421z M300.201,329.121l-3.926-8.342l3.391-9.323c1.233-3.692-0.76-7.685-4.452-8.919
	c-0.003,0-0.006-0.002-0.01-0.003l-9.368-3.569c2.779-6.528-0.259-14.074-6.788-16.854c-0.406-0.173-0.82-0.324-1.242-0.455
	c-4.238-10.572-14.319-7.896-22.305-5.754l-3.658,0.937c-1.04,0.265-2.099,0.444-3.167,0.535c-0.974-1.235-2.271-2.177-3.747-2.721
	l-7.137-2.453c-1.531-2.264-2.747-4.725-3.614-7.316c-2.587-7.271-10.438-7.271-21.189-7.271c-6.633,0.133-13.267-0.21-19.851-1.026
	l-18.602-6.691c-2.643-1.021-5.466-1.492-8.297-1.383c-9.277,0.811-16.141,8.988-15.331,18.265
	c0.594,6.792,5.217,12.558,11.718,14.612l8.476,44.609c-5.325,2.914-9.402,7.673-11.464,13.383h64.594
	c-2.635-7.056-8.328-12.536-15.479-14.899l-14.007-32.565l-10.795-1.874c-1.18-0.225-1.958-1.361-1.74-2.542
	c0.226-1.18,1.361-1.957,2.542-1.74l54.245,10.26c3.695,0.587,7.365-1.194,9.189-4.461l13.071,3.524
	c0.451,5.038,3.824,9.337,8.609,10.974l-3.658,10.037c-0.734,1.74-0.734,3.703,0,5.442c0.794,1.717,2.239,3.05,4.015,3.703
	l9.323,3.39l3.881,8.342c0.395,0.903,1.291,1.483,2.275,1.473c0.358-0.011,0.709-0.102,1.026-0.268
	c1.309-0.435,2.018-1.85,1.582-3.158c-0.042-0.126-0.093-0.249-0.154-0.366l-7.004-14.989l-6.245-2.275l4.46-11.777l11.777,4.461
	l-2.275,6.245l7.004,14.989c0.403,0.895,1.293,1.471,2.275,1.472c0.357-0.011,0.708-0.102,1.025-0.268
	c1.219-0.648,1.681-2.16,1.032-3.378C300.205,329.129,300.203,329.125,300.201,329.121z M167.711,271.799
	c-3.498,0-6.334-2.836-6.334-6.335c0-3.498,2.836-6.334,6.334-6.334c3.499,0,6.334,2.836,6.334,6.334
	C174.022,268.953,171.2,271.774,167.711,271.799z M206.611,261.226h6.602c10.706,0,15.925,0.223,17.576,4.818
	c0.536,1.517,1.115,2.899,1.695,4.193L206.611,261.226z M263.487,286.52l-13.026-3.479c0.001-0.751-0.088-1.5-0.268-2.23
	c0.77-0.084,1.531-0.233,2.275-0.446c1.249-0.268,2.498-0.625,3.747-0.937c8.342-2.186,14.007-3.346,17.175,1.606
	C269.422,281.244,265.77,283.267,263.487,286.52L263.487,286.52z M274.015,297.047c-1.774,0-3.212-1.438-3.212-3.212l0,0
	c-0.024-1.798,1.414-3.276,3.212-3.3c1.798-0.024,3.276,1.414,3.3,3.211c0.024,1.798-1.414,3.276-3.212,3.301
	C274.074,297.048,274.044,297.048,274.015,297.047z"/>
</svg>
