<?xml version="1.0" encoding="utf-8"?>
<!-- Generator: Adobe Illustrator 16.0.2, SVG Export Plug-In . SVG Version: 6.00 Build 0)  -->
<!DOCTYPE svg PUBLIC "-//W3C//DTD SVG 1.1//EN" "http://www.w3.org/Graphics/SVG/1.1/DTD/svg11.dtd">
<svg version="1.1" id="Layer_1" xmlns="http://www.w3.org/2000/svg" xmlns:xlink="http://www.w3.org/1999/xlink" x="0px" y="0px"
	 width="40px" height="40px" viewBox="-290.5 411.5 40 40" enable-background="new -290.5 411.5 40 40" xml:space="preserve">
<path fill="#1B4F91" d="M-256.016,427.693v6.952c0,0.688-0.4,1.272-0.985,1.549c-0.215-0.031-0.431-0.043-0.656-0.043
	c-0.501,0-0.993,0.072-1.466,0.207h-29.662c-0.954,0-1.712-0.77-1.712-1.713v-6.952c0-0.943,0.759-1.712,1.712-1.712h31.056
	C-256.785,425.981-256.016,426.75-256.016,427.693z M-268.228,444.889c0,1.107,0.379,2.133,1.025,2.941h-21.583
	c-0.953,0-1.712-0.769-1.712-1.712v-6.94c0-0.953,0.76-1.712,1.712-1.712h27.508c-0.297,0.235-0.563,0.502-0.81,0.799h-0.246
	c-1.661,0-3.199,1.077-3.804,2.665C-267.428,441.792-268.228,443.289-268.228,444.889z M-250.5,445.114
	c0,1.855-1.467,3.373-3.28,3.373h-9.792c-0.749,0-1.446-0.236-2.01-0.657c-0.913-0.645-1.508-1.731-1.508-2.941
	c0-1.271,0.658-2.461,1.724-3.106l0.174-0.104l0.071-0.204c0.401-1.221,1.549-2.082,2.79-2.082c0.143,0,0.285,0.011,0.431,0.031
	l0.327,0.04l0.205-0.267c0.625-0.851,1.497-1.455,2.472-1.731c0.399-0.123,0.82-0.185,1.239-0.185c2.35,0,4.327,1.805,4.614,4.203
	l0.042,0.339l0.328,0.122C-251.372,442.418-250.5,443.689-250.5,445.114z M-257.73,424.879h-31.058
	c-0.946,0-1.712-0.766-1.712-1.712v-6.942c0-0.945,0.766-1.712,1.712-1.712h31.058c0.946,0,1.714,0.767,1.714,1.712v6.942
	C-256.017,424.113-256.784,424.879-257.73,424.879z M-282.846,419.316c0-0.961-0.78-1.742-1.74-1.742
	c-0.962,0-1.742,0.781-1.742,1.742c0,0.96,0.78,1.739,1.742,1.739C-283.626,421.056-282.846,420.276-282.846,419.316z
	 M-282.846,431.17c0-0.961-0.78-1.74-1.74-1.74c-0.962,0-1.742,0.779-1.742,1.74s0.78,1.74,1.742,1.74
	C-283.626,432.91-282.846,432.131-282.846,431.17z M-282.846,442.706c0-0.961-0.78-1.741-1.74-1.741
	c-0.962,0-1.742,0.78-1.742,1.741s0.78,1.74,1.742,1.74C-283.626,444.446-282.846,443.667-282.846,442.706z"/>
</svg>
