<?xml version="1.0" encoding="utf-8"?>
<!-- Generator: Adobe Illustrator 16.0.2, SVG Export Plug-In . SVG Version: 6.00 Build 0)  -->
<!DOCTYPE svg PUBLIC "-//W3C//DTD SVG 1.1//EN" "http://www.w3.org/Graphics/SVG/1.1/DTD/svg11.dtd">
<svg version="1.1" id="Layer_1" xmlns="http://www.w3.org/2000/svg" xmlns:xlink="http://www.w3.org/1999/xlink" x="0px" y="0px"
	 width="70px" height="70px" viewBox="0 0 70 70" enable-background="new 0 0 70 70" xml:space="preserve">
<g>
	<path id="newsletter-a" d="M70,26.982c-0.004-2.947-1.453-5.708-3.884-7.399l-4.184-2.918V6.938
		c-0.019-0.731-0.61-1.32-1.348-1.337H46.008l-5.25-3.596c-3.529-2.336-8.127-2.336-11.655,0l-5.25,3.596H9.415
		C9.058,5.598,8.716,5.743,8.47,6C8.218,6.249,8.073,6.585,8.067,6.938v9.726l-4.2,2.918C1.444,21.281,0.002,24.04,0,26.982v37.433
		c-0.004,1.415,0.56,2.773,1.569,3.776c1.008,0.999,2.377,1.56,3.804,1.556H64.61c1.429,0.004,2.799-0.556,3.809-1.556
		C69.432,67.192,70,65.832,70,64.415V26.982z M61.933,19.93l2.643,1.841c0.627,0.429,1.167,0.971,1.593,1.599l-4.235,3.682V19.93z
		 M30.713,4.193c2.604-1.667,5.952-1.667,8.558,0L41.3,5.601H28.683L30.713,4.193z M10.762,8.276h48.475v21.121l-5.39,4.672v-3.075
		c0.002-0.354-0.145-0.693-0.403-0.938c-0.244-0.259-0.587-0.403-0.944-0.4H39.043c-0.362,0.002-0.708,0.146-0.963,0.4
		c-0.247,0.25-0.386,0.587-0.385,0.938v9.797c-0.87-0.282-1.779-0.429-2.695-0.435c-2.188-0.005-4.302,0.778-5.95,2.206
		l-1.558,1.354L20.3,37.683h13.352c0.745,0,1.348-0.599,1.348-1.337c0-0.739-0.603-1.338-1.348-1.338H17.5h-0.228l-6.51-5.646V8.276
		z M51.152,32.333v4.082l-8.645,7.503l-1.575-1.354c-0.175-0.156-0.367-0.261-0.543-0.399v-9.831H51.152z M5.425,21.771l2.643-1.841
		v7.122L3.833,23.37C4.262,22.747,4.802,22.205,5.425,21.771z M2.695,64.415V26.982c-0.026-0.33-0.026-0.661,0-0.99l22.75,19.697
		L2.853,65.316C2.747,65.029,2.693,64.723,2.695,64.415z M64.61,67.072H5.373H4.97l25.865-22.494c2.389-2.059,5.94-2.059,8.33,0
		l25.864,22.46L64.61,67.072z M67.304,64.415c0.006,0.309-0.054,0.617-0.175,0.901L44.556,45.689l22.661-19.68
		c0.056,0.322,0.086,0.647,0.087,0.973V64.415z M33.652,16.3H52.5c0.744,0,1.348-0.599,1.348-1.337s-0.604-1.337-1.348-1.337H33.652
		c-0.481,0-0.926,0.255-1.167,0.668c-0.241,0.414-0.241,0.924,0,1.337C32.727,16.045,33.171,16.3,33.652,16.3z M33.652,21.65H52.5
		c0.744,0,1.348-0.599,1.348-1.337c0-0.738-0.604-1.337-1.348-1.337H33.652c-0.744,0-1.347,0.599-1.347,1.337
		C32.305,21.051,32.908,21.65,33.652,21.65z M52.5,24.325H33.652c-0.355-0.004-0.699,0.132-0.952,0.38
		c-0.252,0.248-0.395,0.586-0.395,0.939c-0.004,0.356,0.136,0.7,0.389,0.951c0.254,0.251,0.599,0.391,0.958,0.386H52.5
		c0.358,0.004,0.705-0.135,0.958-0.386c0.254-0.251,0.395-0.595,0.39-0.951c0-0.353-0.143-0.691-0.396-0.939
		C53.198,24.458,52.855,24.321,52.5,24.325z M17.5,26.982h10.762c0.36,0.01,0.709-0.128,0.964-0.381
		c0.255-0.252,0.394-0.599,0.384-0.957V14.963c0-0.351-0.138-0.688-0.385-0.938c-0.253-0.258-0.601-0.402-0.963-0.399H17.5
		c-0.361,0.001-0.707,0.146-0.962,0.399c-0.247,0.25-0.385,0.587-0.385,0.938v10.682c0,0.356,0.138,0.698,0.385,0.956
		C16.799,26.842,17.143,26.979,17.5,26.982z M18.848,16.3h8.067v8.025h-8.067V16.3z M33.652,32.333c0.745,0,1.348-0.6,1.348-1.338
		s-0.603-1.337-1.348-1.337H17.5c-0.744,0-1.348,0.599-1.348,1.337s0.604,1.338,1.348,1.338H33.652z"/>
</g>
</svg>
