<?xml version="1.0" encoding="utf-8"?>
<!-- Generator: Adobe Illustrator 16.0.2, SVG Export Plug-In . SVG Version: 6.00 Build 0)  -->
<!DOCTYPE svg PUBLIC "-//W3C//DTD SVG 1.1//EN" "http://www.w3.org/Graphics/SVG/1.1/DTD/svg11.dtd">
<svg version="1.1" id="Layer_1" xmlns="http://www.w3.org/2000/svg" xmlns:xlink="http://www.w3.org/1999/xlink" x="0px" y="0px"
	 width="70px" height="70px" viewBox="0 0 70 70" enable-background="new 0 0 70 70" xml:space="preserve">
<g>
	<path fill="#1B4F91" d="M67.236,34.676H33.759V29.3c0.769-0.066,1.511-0.421,2.045-1.045l7.394-8.606
		c1.095-1.274,0.946-3.193-0.327-4.287c-1.272-1.094-3.192-0.946-4.286,0.328l-4.826,5.618V9.9h33.477V34.676z M30.998,7.138v13.98
		l-4.104-2.568c-0.536-0.337-1.136-0.485-1.721-0.463l-2.895-0.993l-3.345,10.284L15.61,17.16l-4.024,1.309
		c-0.466,0.151-0.884,0.499-1.181,0.926c-0.366,0.307-0.666,0.7-0.858,1.17l-3.618,8.757C5.641,30.019,5.622,30.8,5.878,31.51
		l2.292,6.376c0.659-0.159,1.369-0.242,2.132-0.242c2.863,0,5.096,1.169,6.286,3.293c0.272,0.492,0.49,1.03,0.647,1.609
		c0.184,0.136,0.356,0.293,0.517,0.465c0.821,0.884,1.22,2.164,1.086,3.504c-0.161,1.637-1.083,2.977-2.328,3.57
		c-0.109,0.24-0.221,0.479-0.344,0.712l2.758,0.945c1.007,0.347,1.896,1.078,2.504,2.066c0.438,0.709,0.688,1.479,0.727,2.242
		c0.032,0.164,0.054,0.313,0.081,0.47h0.356c0.025-0.164,0.05-0.317,0.083-0.488c0.048-0.829,0.343-1.674,0.848-2.405
		c0.461-0.68,1.073-1.227,1.76-1.586l0.774-12.007l1.767,0.032v-13.76l3.173,1.985v9.147H70V7.138H30.998z"/>
	<polygon fill="#1B4F91" points="17.782,19.209 20.01,19.209 20.01,17.667 17.782,17.667 	"/>
	<polygon fill="#1B4F91" points="17.837,21.79 18.931,24.587 19.957,21.966 19.559,19.64 18.197,19.64 	"/>
	<path fill="#1B4F91" d="M14.593,12.347c0.05-0.004,0.1-0.016,0.15-0.03c0.741,2.377,2.345,4.217,4.208,4.217
		c1.856,0,3.458-1.831,4.202-4.196c0.026,0.004,0.05,0.01,0.076,0.012c0.755,0.077,1.453-0.711,1.556-1.759
		c0.103-1.048-0.426-1.958-1.18-2.032c-0.021-0.003-0.04,0-0.059-0.003c-0.33-2.873-2.262-3.9-4.595-3.9
		c-2.337,0-4.267,1.027-4.596,3.905c-0.066-0.007-0.133-0.009-0.2,0c-0.755,0.087-1.268,1.006-1.148,2.052
		C13.129,11.658,13.837,12.435,14.593,12.347 M44.329,56.273c0-0.449-0.157-0.909-0.408-1.32c-0.321-0.521-0.805-0.956-1.352-1.144
		l-4.292-1.472l-0.818-0.23v-0.715c0.189-0.205,0.374-0.431,0.549-0.671c0.511-0.717,0.93-1.576,1.227-2.52
		c0.029,0.007,0.055,0.012,0.086,0.018c0.82,0.082,1.581-0.778,1.693-1.921c0.073-0.731-0.14-1.401-0.52-1.809
		c-0.208-0.229-0.472-0.378-0.766-0.408c-0.022,0-0.044,0-0.064,0c-0.033-0.267-0.077-0.518-0.137-0.757
		c-0.116-0.499-0.282-0.94-0.496-1.321c-0.381-0.682-0.905-1.181-1.531-1.529c-0.81-0.45-1.79-0.648-2.846-0.648
		c-1.146,0-2.2,0.232-3.05,0.766c-0.538,0.339-0.992,0.804-1.332,1.41c-0.213,0.38-0.379,0.82-0.497,1.321
		c-0.055,0.241-0.103,0.492-0.133,0.764c-0.073-0.005-0.147-0.009-0.222,0c-0.267,0.031-0.502,0.166-0.699,0.364
		c-0.409,0.405-0.637,1.104-0.549,1.873c0.131,1.14,0.907,1.985,1.729,1.89c0.056-0.005,0.107-0.015,0.162-0.03
		c0.285,0.911,0.687,1.743,1.175,2.45c0.155,0.218,0.314,0.43,0.485,0.621v0.941l-0.715,0.212l-4.386,1.429
		c-0.514,0.167-0.974,0.552-1.298,1.027c-0.1,0.148-0.181,0.304-0.253,0.468c-0.135,0.303-0.219,0.622-0.219,0.941
		c0,0-0.005,0.022-0.011,0.061c-0.008,0.039-0.021,0.107-0.035,0.188c-0.181,1.032-0.821,5.033,0.046,6.109
		c0.452,0.56,1.125,1.027,1.946,1.412c3.854,1.789,11.076,1.677,15.226,0c0.959-0.39,1.757-0.859,2.306-1.412
		c1.025-1.023,0.187-5.441,0.025-6.228C44.343,56.327,44.329,56.273,44.329,56.273 M67.366,53.81l-4.291-1.472l-0.82-0.23v-0.715
		c0.766-0.814,1.379-1.931,1.775-3.19c0.029,0.011,0.057,0.016,0.086,0.016c0.823,0.084,1.584-0.776,1.695-1.919
		c0.111-1.142-0.463-2.133-1.287-2.215c-0.021-0.002-0.041-0.002-0.064-0.002c-0.359-3.133-2.467-4.256-5.01-4.256
		c-1.922,0-3.596,0.643-4.451,2.304c-0.198,0.389-0.355,0.831-0.46,1.332c-0.039,0.201-0.077,0.406-0.103,0.623
		c-0.072-0.005-0.146-0.007-0.217,0c-0.32,0.04-0.595,0.218-0.813,0.48c-0.34,0.419-0.518,1.06-0.438,1.759
		c0.134,1.138,0.906,1.987,1.729,1.89c0.055-0.005,0.107-0.015,0.16-0.03c0.191,0.617,0.441,1.198,0.731,1.728
		c0.277,0.499,0.585,0.955,0.93,1.345v0.94l-0.713,0.212l-4.389,1.429c-0.492,0.16-0.935,0.515-1.254,0.96
		c-0.316,0.438-0.515,0.966-0.515,1.477l-0.003,0.011c-0.02,0.104-0.986,5.125,0.003,6.347c0.451,0.561,1.125,1.027,1.946,1.412
		c3.853,1.789,11.074,1.677,15.224,0c0.961-0.39,1.757-0.859,2.306-1.412c1.123-1.122,0-6.357,0-6.357
		C69.125,55.247,68.339,54.143,67.366,53.81 M20.001,56.405c-0.015-0.078-0.024-0.132-0.024-0.132c0-0.449-0.155-0.91-0.407-1.319
		c-0.326-0.522-0.808-0.958-1.354-1.145l-4.288-1.474l-0.821-0.229v-0.715c0.19-0.205,0.376-0.431,0.546-0.671
		c0.514-0.718,0.934-1.576,1.23-2.52c0.028,0.009,0.056,0.016,0.083,0.019c0.823,0.081,1.584-0.777,1.695-1.922
		c0.074-0.733-0.139-1.401-0.519-1.809c-0.211-0.229-0.472-0.378-0.765-0.406c-0.024-0.002-0.045-0.002-0.067-0.002
		c-0.032-0.271-0.08-0.518-0.136-0.757c-0.114-0.503-0.284-0.94-0.498-1.321c-0.875-1.565-2.506-2.178-4.376-2.178
		c-0.363,0-0.714,0.027-1.053,0.075c-2.056,0.289-3.653,1.492-3.961,4.184c-0.071-0.007-0.143-0.007-0.219,0.002
		c-0.822,0.098-1.381,1.099-1.248,2.237c0.131,1.14,0.904,1.987,1.725,1.89c0.057-0.005,0.112-0.015,0.164-0.03
		c0.374,1.196,0.949,2.265,1.66,3.072v0.94l-0.714,0.212L2.27,53.837c-0.976,0.317-1.77,1.408-1.77,2.437c0,0-1.125,5.233,0,6.357
		c0.55,0.553,1.346,1.021,2.306,1.412c4.149,1.677,11.371,1.789,15.225,0c0.821-0.385,1.494-0.852,1.946-1.412
		c0.872-1.08,0.224-5.106,0.044-6.109C20.016,56.482,20.005,56.438,20.001,56.405"/>
</g>
</svg>
