<?xml version="1.0" encoding="utf-8"?>
<!-- Generator: Adobe Illustrator 16.0.2, SVG Export Plug-In . SVG Version: 6.00 Build 0)  -->
<!DOCTYPE svg PUBLIC "-//W3C//DTD SVG 1.1//EN" "http://www.w3.org/Graphics/SVG/1.1/DTD/svg11.dtd">
<svg version="1.1" id="Layer_1" xmlns="http://www.w3.org/2000/svg" xmlns:xlink="http://www.w3.org/1999/xlink" x="0px" y="0px"
	 width="40px" height="40px" viewBox="15 15 40 40" enable-background="new 15 15 40 40" xml:space="preserve">
<g>
	<path id="solution_brief-a" d="M44.089,29.21c0,0.459-0.367,0.827-0.827,0.827H26.738c-0.45,0-0.827-0.368-0.827-0.827
		c0-0.45,0.377-0.827,0.827-0.827h16.523C43.722,28.383,44.089,28.76,44.089,29.21 M44.089,32.519c0,0.459-0.367,0.827-0.827,0.827
		H26.738c-0.45,0-0.827-0.368-0.827-0.827s0.377-0.827,0.827-0.827h16.523C43.722,31.692,44.089,32.06,44.089,32.519 M39.962,35.828
		c0,0.449-0.376,0.826-0.826,0.826H26.738c-0.45,0-0.827-0.377-0.827-0.826c0-0.46,0.377-0.828,0.827-0.828h12.397
		C39.586,35,39.962,35.368,39.962,35.828 M43.262,48.215c0,0.46-0.367,0.828-0.818,0.828h-4.962c-0.46,0-0.827-0.368-0.827-0.828
		c0-0.45,0.367-0.826,0.827-0.826h4.962C42.895,47.389,43.262,47.765,43.262,48.215 M36.24,48.215c0,0.46-0.367,0.828-0.827,0.828
		H33.76c-0.451,0-0.827-0.368-0.827-0.828c0-0.45,0.376-0.826,0.827-0.826h1.653C35.873,47.389,36.24,47.765,36.24,48.215
		 M21.825,16.838l0.011,36.334l26.339-0.01l-0.011-31.04l-5.293-5.284H21.825z M48.175,55h-26.35c-1.008,0-1.827-0.82-1.827-1.828
		V16.819c0-1.002,0.819-1.819,1.827-1.819h21.427c0.243,0,0.477,0.097,0.648,0.269l5.832,5.822c0.174,0.172,0.27,0.406,0.27,0.649
		v31.432C50.002,54.18,49.183,55,48.175,55z M46.57,23.43c0,0.459-0.367,0.827-0.827,0.827h-4.127c-0.459,0-0.826-0.368-0.826-0.827
		v-4.135c0-0.45,0.367-0.818,0.826-0.818c0.451,0,0.828,0.368,0.828,0.818v3.309h3.299C46.203,22.603,46.57,22.97,46.57,23.43"/>
</g>
</svg>
