<?xml version="1.0" encoding="utf-8"?>
<!-- Generator: Adobe Illustrator 16.0.2, SVG Export Plug-In . SVG Version: 6.00 Build 0)  -->
<!DOCTYPE svg PUBLIC "-//W3C//DTD SVG 1.1//EN" "http://www.w3.org/Graphics/SVG/1.1/DTD/svg11.dtd">
<svg version="1.1" id="Layer_1" xmlns="http://www.w3.org/2000/svg" xmlns:xlink="http://www.w3.org/1999/xlink" x="0px" y="0px"
	 width="40px" height="40px" viewBox="15 15 40 40" enable-background="new 15 15 40 40" xml:space="preserve">
<path fill="#1B4F91" d="M35,15c-11.046,0-20,8.954-20,20s8.954,20,20,20s20-8.954,20-20C54.987,23.959,46.04,15.014,35,15z
	 M31.221,52.673c-0.408-0.084-0.804-0.181-1.2-0.3V37.976c0-1.756-1.423-3.18-3.179-3.18h-1.44c-0.478-1.555-2.021-2.526-3.63-2.285
	c-1.609,0.242-2.799,1.624-2.799,3.251s1.189,3.009,2.799,3.251c1.609,0.243,3.152-0.729,3.63-2.286h1.44c0.663,0,1.2,0.538,1.2,1.2
	v13.678c-6.749-2.805-11.15-9.392-11.158-16.701c-0.001-1.05,0.095-2.098,0.289-3.131h12.813c0.663,0,1.2,0.538,1.2,1.2
	L31.221,52.673z M23.566,35.792c0.005,0.546-0.321,1.04-0.824,1.251c-0.503,0.211-1.083,0.097-1.47-0.289s-0.5-0.967-0.289-1.47
	c0.211-0.503,0.706-0.829,1.251-0.824C22.967,34.467,23.56,35.059,23.566,35.792z M40.23,52.301V39.896
	c-0.017-0.328,0.103-0.649,0.33-0.889c0.228-0.236,0.541-0.372,0.869-0.371h3.36c0.479,1.541,2.011,2.501,3.606,2.26
	c1.595-0.241,2.774-1.612,2.774-3.227c0-1.613-1.18-2.985-2.774-3.226c-1.596-0.241-3.128,0.719-3.606,2.26h-3.36
	c-0.842,0.004-1.649,0.343-2.243,0.94c-0.595,0.599-0.927,1.408-0.922,2.252V52.77c-0.596,0.114-1.196,0.195-1.8,0.238V28.401
	c0-1.756-1.424-3.179-3.18-3.179h-3.312c-0.478-1.556-2.022-2.527-3.63-2.286c-1.609,0.242-2.799,1.624-2.799,3.251
	c0,1.627,1.19,3.009,2.799,3.251c1.608,0.241,3.152-0.73,3.63-2.286h3.347c0.663,0,1.2,0.538,1.2,1.2v24.705
	c-0.473,0-0.946-0.028-1.416-0.085V33.117c0.003-0.843-0.329-1.651-0.923-2.248c-0.595-0.596-1.402-0.931-2.244-0.931H17.664
	C19.913,22.232,26.974,16.935,35,16.932c1.106,0.002,2.211,0.103,3.3,0.3v9.394c0.007,1.747,1.42,3.161,3.168,3.167h3.357
	c0.479,1.556,2.022,2.527,3.633,2.286c1.607-0.242,2.798-1.624,2.798-3.251c0-1.627-1.19-3.009-2.798-3.25
	c-1.61-0.242-3.154,0.729-3.633,2.285h-3.357c-0.331,0-0.645-0.135-0.872-0.373c-0.226-0.238-0.345-0.559-0.328-0.888v-8.89
	c7.623,2.305,12.837,9.33,12.837,17.294s-5.214,14.989-12.837,17.295H40.23z M46.613,37.676c0.065-0.691,0.645-1.217,1.338-1.217
	s1.272,0.525,1.338,1.217c0.049,0.509-0.195,1-0.63,1.268c-0.434,0.27-0.982,0.27-1.415,0
	C46.811,38.676,46.566,38.185,46.613,37.676z M28.186,26.194c0,0.544-0.329,1.035-0.833,1.243s-1.083,0.09-1.465-0.297
	c-0.384-0.387-0.496-0.967-0.284-1.468c0.211-0.502,0.705-0.826,1.25-0.821C27.588,24.863,28.179,25.458,28.186,26.194z
	 M46.613,28.845c-0.005-0.545,0.321-1.04,0.825-1.251c0.502-0.211,1.083-0.097,1.469,0.289c0.387,0.386,0.501,0.967,0.29,1.47
	c-0.213,0.503-0.707,0.829-1.252,0.824C47.211,30.177,46.613,29.581,46.613,28.845z"/>
</svg>
