<?xml version="1.0" encoding="utf-8"?>
<!-- Generator: Adobe Illustrator 16.0.2, SVG Export Plug-In . SVG Version: 6.00 Build 0)  -->
<!DOCTYPE svg PUBLIC "-//W3C//DTD SVG 1.1//EN" "http://www.w3.org/Graphics/SVG/1.1/DTD/svg11.dtd">
<svg version="1.1" id="Layer_1" xmlns="http://www.w3.org/2000/svg" xmlns:xlink="http://www.w3.org/1999/xlink" x="0px" y="0px"
	 width="400px" height="400px" viewBox="106 196 400 400" enable-background="new 106 196 400 400" xml:space="preserve">
<title>time</title>
<path d="M479.037,295.525c-17.442-30.212-42.554-55.285-72.794-72.683c-62.038-35.791-138.453-35.791-200.492,0
	c-61.705,35.732-99.646,101.681-99.52,172.985c-0.36,35.361,8.918,70.154,26.837,100.638c17.396,30.24,42.469,55.352,72.683,72.794
	c62.075,35.654,138.417,35.654,200.492,0c30.219-17.474,55.32-42.574,72.794-72.794c35.654-62.075,35.654-138.418,0-200.493V295.525
	z M428.495,466.834c-12.317,21.374-30.062,39.118-51.437,51.437c-43.944,25.345-98.066,25.345-142.011,0
	c-21.407-12.315-39.187-30.058-51.548-51.437c-25.345-43.945-25.345-98.067,0-142.012c12.354-21.414,30.135-39.194,51.548-51.549
	c43.944-25.345,98.066-25.345,142.011,0c21.38,12.362,39.121,30.143,51.437,51.549C453.84,368.766,453.84,422.888,428.495,466.834z"
	/>
<path d="M330.988,295.861h-16.772c-2.218-0.078-4.366,0.772-5.927,2.348c-1.582,1.603-2.431,3.788-2.348,6.039v91.58h-58.146
	c-2.251-0.084-4.435,0.766-6.039,2.349c-1.576,1.561-2.428,3.71-2.348,5.927v16.661c-0.085,2.25,0.767,4.435,2.348,6.038
	c1.648,1.498,3.812,2.3,6.039,2.235h83.193c4.316,0.255,8.021-3.037,8.275-7.353c0.017-0.308,0.017-0.614,0-0.921V304.247
	c0.083-2.25-0.767-4.436-2.349-6.039C335.371,296.609,333.21,295.754,330.988,295.861z"/>
</svg>
