<?xml version="1.0" encoding="utf-8"?>
<!-- Generator: Adobe Illustrator 16.0.2, SVG Export Plug-In . SVG Version: 6.00 Build 0)  -->
<!DOCTYPE svg PUBLIC "-//W3C//DTD SVG 1.1//EN" "http://www.w3.org/Graphics/SVG/1.1/DTD/svg11.dtd">
<svg version="1.1" id="Layer_1" xmlns="http://www.w3.org/2000/svg" xmlns:xlink="http://www.w3.org/1999/xlink" x="0px" y="0px"
	 width="70px" height="70px" viewBox="0 0 70 70" enable-background="new 0 0 70 70" xml:space="preserve">
<g>
	<path id="video-a" d="M64.484,58.972H5.515C2.474,58.963,0.009,56.503,0,53.467v-36.95c0.009-3.033,2.476-5.488,5.515-5.488h58.969
		c3.039,0,5.507,2.455,5.516,5.488v36.95C69.991,56.503,67.525,58.963,64.484,58.972z M5.515,14.046
		c-1.37,0-2.482,1.104-2.491,2.471v36.95c-0.013,0.668,0.244,1.313,0.712,1.788C4.206,55.731,4.847,56,5.515,56h58.969
		c0.661,0,1.295-0.262,1.761-0.729c0.467-0.466,0.73-1.099,0.73-1.758V16.517c-0.008-1.367-1.121-2.471-2.491-2.471H5.515z
		 M42.254,35L35,39.175l-7.253,4.19V35v-8.366L35,30.81L42.254,35z"/>
</g>
</svg>
