<?xml version="1.0" encoding="utf-8"?>
<!-- Generator: Adobe Illustrator 16.0.2, SVG Export Plug-In . SVG Version: 6.00 Build 0)  -->
<!DOCTYPE svg PUBLIC "-//W3C//DTD SVG 1.1//EN" "http://www.w3.org/Graphics/SVG/1.1/DTD/svg11.dtd">
<svg version="1.1" id="Layer_1" xmlns="http://www.w3.org/2000/svg" xmlns:xlink="http://www.w3.org/1999/xlink" x="0px" y="0px"
	 width="70px" height="70px" viewBox="0 0 70 70" enable-background="new 0 0 70 70" xml:space="preserve">
<g>
	<path id="workshop-a" d="M61.042,0H8.958C7.59,0,6.481,1.111,6.481,2.482v29.972c0,1.371,1.108,2.482,2.477,2.482H24v3.709
		c0,0.811,0.649,1.469,1.457,1.477l-2.663,10.578c-0.095,0.344-0.019,0.711,0.203,0.99c0.216,0.286,0.552,0.454,0.909,0.456h2.351
		c0.458-0.007,0.869-0.284,1.049-0.708l4.952-11.316h5.656l4.952,11.332c0.176,0.426,0.59,0.705,1.05,0.708h2.351
		c0.357-0.002,0.693-0.17,0.908-0.456c0.218-0.28,0.299-0.645,0.22-0.99l-2.68-10.594h0.658c0.813,0,1.473-0.66,1.473-1.477v-3.709
		h14.196c1.368,0,2.477-1.112,2.477-2.482V2.482C63.519,1.111,62.41,0,61.042,0z M25.41,49.884h-0.109l2.429-9.618l1.817,0.142
		L25.41,49.884z M26.382,37.814v-2.877h18.161v2.877H26.382z M44.777,49.884h-0.109l-4.137-9.431l1.817-0.141L44.777,49.884z
		 M61.215,32.595c0,0.045-0.019,0.087-0.051,0.118c-0.033,0.029-0.077,0.044-0.122,0.04H8.958c-0.045,0.005-0.089-0.01-0.122-0.04
		c-0.032-0.03-0.051-0.072-0.051-0.118V2.482c0-0.044,0.019-0.087,0.051-0.117c0.033-0.03,0.077-0.044,0.122-0.04h52.084
		c0.045-0.005,0.089,0.009,0.122,0.04c0.032,0.03,0.051,0.072,0.051,0.117V32.595z M40.218,10.278l-9.401,15.418
		c-0.174,0.292-0.466,0.493-0.8,0.551c-0.336,0.046-0.677-0.052-0.939-0.267l-8.18-7.01l-6.268,8.817
		c-0.217,0.315-0.574,0.504-0.956,0.503c-0.236-0.005-0.466-0.082-0.658-0.22c-0.487-0.37-0.61-1.053-0.282-1.571l6.941-9.871
		c0.187-0.265,0.479-0.437,0.8-0.472c0.322-0.048,0.649,0.05,0.893,0.268l8.148,6.899l8.728-14.302
		c0.156-0.261,0.41-0.448,0.705-0.519c0.294-0.071,0.605-0.02,0.862,0.142c0.275,0.157,0.476,0.42,0.553,0.729
		S40.388,10.009,40.218,10.278z M41.252,21.531h3.134v8.346h-3.134V21.531z M46.188,15.167h3.135v14.71h-3.135V15.167z
		 M50.951,7.889h3.134v22.317h-3.134V7.889z M55.966,18.403H59.1v11.803h-3.134V18.403z M19.738,61.451
		c2.384-1.853,3.33-5.02,2.354-7.88c-0.976-2.862-3.656-4.785-6.672-4.785s-5.696,1.923-6.672,4.785
		c-0.976,2.86-0.029,6.027,2.355,7.88c-2.141,0.312-3.729,2.152-3.729,4.322v4.055h16.092v-4.069
		C23.459,63.594,21.873,61.763,19.738,61.451z M10.336,55.871c0-2.075,1.248-3.945,3.161-4.736c1.912-0.791,4.112-0.347,5.57,1.125
		c1.458,1.473,1.888,3.682,1.087,5.595c-0.8,1.912-2.673,3.155-4.741,3.141c-2.815-0.008-5.092-2.3-5.092-5.124H10.336z
		 M21.54,67.879H9.318v-2.105c0-1.339,1.077-2.429,2.412-2.437h7.381c1.335,0.008,2.412,1.098,2.412,2.437L21.54,67.879z
		 M40.187,61.624c1.742-1.321,2.763-3.39,2.758-5.579c0-3.906-3.157-7.072-7.051-7.072c-3.895,0-7.052,3.166-7.052,7.072
		c-0.005,2.189,1.017,4.258,2.758,5.579c-2.152,0.298-3.758,2.142-3.761,4.321V70h16.108v-4.055
		C43.944,63.766,42.34,61.922,40.187,61.624z M30.784,56.045c0-2.83,2.288-5.124,5.109-5.124s5.107,2.294,5.107,5.124
		s-2.286,5.123-5.107,5.123c-2.815-0.009-5.093-2.3-5.093-5.123H30.784z M42.052,68.069H29.797v-2.124
		c0-1.336,1.081-2.42,2.414-2.42h7.38c0.648-0.013,1.274,0.236,1.737,0.691c0.463,0.456,0.724,1.079,0.724,1.729V68.069z
		 M58.88,61.624c1.742-1.321,2.765-3.39,2.758-5.579c0-3.906-3.156-7.072-7.051-7.072s-7.052,3.166-7.052,7.072
		c-0.005,2.189,1.017,4.258,2.758,5.579c-2.152,0.298-3.757,2.142-3.761,4.321V70h16.108v-4.055
		C62.638,63.766,61.033,61.922,58.88,61.624z M49.479,56.045c0-2.83,2.287-5.124,5.108-5.124s5.108,2.294,5.108,5.124
		s-2.287,5.123-5.108,5.123c-2.815-0.009-5.093-2.3-5.093-5.123H49.479z M60.683,68.069H48.491v-2.124
		c0-1.336,1.081-2.42,2.413-2.42h7.381c1.332,0,2.413,1.084,2.413,2.42L60.683,68.069z"/>
</g>
</svg>
